NunitoSans-ExtraBold.ufo
<glyph name="dollar" format="2">
  <advance width="600.0"/>
  <unicode hex="0024"/>
  <outline>
    <contour>
      <point x="250.28915662650604" y="-115.0" type="line"/>
      <point x="369.0843373493976" y="-115.0" type="line"/>
      <point x="369.0843373493976" y="18.87951807228916" type="line"/>
      <point x="348.2048192771084" y="-3.6867469879518073" type="line"/>
      <point x="482.4578313253012" y="11.192771084337348"/>
      <point x="575.7710843373494" y="91.01204819277108"/>
      <point x="575.7710843373494" y="209.57831325301203" type="curve" smooth="yes"/>
      <point x="575.7710843373494" y="310.8313253012048"/>
      <point x="514.7710843373494" y="372.33734939759034"/>
      <point x="387.71084337349396" y="400.33734939759034" type="curve" smooth="yes"/>
      <point x="278.5783132530121" y="424.2771084337349" type="line" smooth="yes"/>
      <point x="215.59036144578315" y="438.3373493975904"/>
      <point x="191.289156626506" y="459.9518072289157"/>
      <point x="191.289156626506" y="496.55421686746985" type="curve" smooth="yes"/>
      <point x="191.289156626506" y="547.2168674698795"/>
      <point x="238.3975903614458" y="582.6385542168674"/>
      <point x="315.13253012048193" y="582.6385542168674" type="curve" smooth="yes"/>
      <point x="390.87951807228916" y="582.6385542168674"/>
      <point x="457.50602409638554" y="560.2650602409639"/>
      <point x="506.93975903614455" y="517.6506024096386" type="curve"/>
      <point x="550.5783132530121" y="632.4457831325301" type="line"/>
      <point x="501.83132530120486" y="679.0"/>
      <point x="422.51807228915663" y="706.0"/>
      <point x="344.0120481927711" y="710.6265060240964" type="curve"/>
      <point x="369.0843373493976" y="693.0602409638553" type="line"/>
      <point x="369.0843373493976" y="820.0" type="line"/>
      <point x="250.28915662650604" y="820.0" type="line"/>
      <point x="250.28915662650604" y="693.0602409638553" type="line"/>
      <point x="274.9879518072289" y="709.0" type="line"/>
      <point x="133.10843373493978" y="696.1807228915662"/>
      <point x="40.16867469879518" y="610.2409638554217"/>
      <point x="40.16867469879518" y="490.9879518072289" type="curve" smooth="yes"/>
      <point x="40.16867469879518" y="386.73493975903614"/>
      <point x="100.85542168674698" y="323.5421686746988"/>
      <point x="222.42168674698797" y="296.91566265060237" type="curve" smooth="yes"/>
      <point x="331.86746987951807" y="272.9759036144578" type="line" smooth="yes"/>
      <point x="401.0963855421687" y="257.855421686747"/>
      <point x="424.33734939759034" y="235.9277108433735"/>
      <point x="424.33734939759034" y="197.6987951807229" type="curve" smooth="yes"/>
      <point x="424.33734939759034" y="155.40963855421688"/>
      <point x="387.2289156626506" y="122.36144578313252"/>
      <point x="297.43373493975906" y="122.36144578313252" type="curve" smooth="yes"/>
      <point x="211.87951807228916" y="122.36144578313252"/>
      <point x="132.18072289156626" y="148.67469879518072"/>
      <point x="71.43373493975903" y="192.5421686746988" type="curve"/>
      <point x="26.795180722891565" y="71.18072289156628" type="line"/>
      <point x="87.855421686747" y="24.313253012048193"/>
      <point x="179.10843373493978" y="-2.6867469879518073"/>
      <point x="276.73493975903614" y="-6.313253012048193" type="curve"/>
      <point x="250.28915662650604" y="18.19277108433735" type="line"/>
    </contour>
  </outline>
</glyph>
<glyph name="parenleft" format="2">
  <advance width="381.8072289156626"/>
  <unicode hex="0028"/>
  <outline>
    <contour>
      <point x="246.45783132530119" y="-196.56626506024097" type="curve"/>
      <point x="346.8072289156626" y="-155.67469879518075" type="line"/>
      <point x="284.7469879518072" y="0.14457831325300852"/>
      <point x="260.6265060240964" y="118.62650602409639"/>
      <point x="260.6265060240964" y="263.0" type="curve" smooth="yes"/>
      <point x="260.6265060240964" y="408.06024096385545"/>
      <point x="284.7469879518072" y="525.855421686747"/>
      <point x="346.8072289156626" y="681.6746987951808" type="curve"/>
      <point x="246.45783132530119" y="722.5662650602409" type="line"/>
      <point x="139.0" y="576.5060240963855"/>
      <point x="98.74698795180723" y="423.93975903614455"/>
      <point x="98.74698795180723" y="263.0" type="curve" smooth="yes"/>
      <point x="98.74698795180723" y="102.74698795180723"/>
      <point x="139.0" y="-51.192771084337345"/>
    </contour>
  </outline>
</glyph>
<glyph name="parenright" format="2">
  <advance width="381.8072289156626"/>
  <unicode hex="0029"/>
  <outline>
    <contour>
      <point x="135.34939759036143" y="-196.56626506024097" type="line"/>
      <point x="242.80722891566262" y="-51.192771084337345"/>
      <point x="283.0602409638554" y="102.74698795180723"/>
      <point x="283.0602409638554" y="263.0" type="curve" smooth="yes"/>
      <point x="283.0602409638554" y="423.2530120481928"/>
      <point x="242.80722891566262" y="576.5060240963855"/>
      <point x="135.34939759036143" y="722.5662650602409" type="curve"/>
      <point x="35.0" y="681.6746987951808" type="line"/>
      <point x="96.06024096385542" y="524.1686746987951"/>
      <point x="120.86746987951808" y="406.3734939759036"/>
      <point x="120.86746987951808" y="263.0" type="curve" smooth="yes"/>
      <point x="120.86746987951808" y="119.62650602409639"/>
      <point x="96.06024096385542" y="1.8313253012048172"/>
      <point x="35.0" y="-155.67469879518075" type="curve"/>
    </contour>
  </outline>
</glyph>
<glyph name="asterisk" format="2">
  <advance width="453.56626506024094"/>
  <unicode hex="002A"/>
  <outline>
    <contour>
      <point x="170.63855421686745" y="328.91566265060237" type="line"/>
      <point x="235.87951807228916" y="470.66265060240966" type="line"/>
      <point x="218.3734939759036" y="470.66265060240966" type="line"/>
      <point x="282.30120481927713" y="328.28915662650604" type="line"/>
      <point x="372.08433734939763" y="380.433734939759" type="line"/>
      <point x="281.144578313253" y="516.2409638554217" type="line"/>
      <point x="260.3855421686747" y="484.60240963855426" type="line"/>
      <point x="424.8192771084337" y="473.72289156626505" type="line"/>
      <point x="424.8192771084337" y="575.7590361445783" type="line"/>
      <point x="260.3855421686747" y="564.1927710843373" type="line"/>
      <point x="281.144578313253" y="532.9277108433735" type="line"/>
      <point x="372.08433734939763" y="668.0481927710844" type="line"/>
      <point x="282.30120481927713" y="720.8795180722892" type="line"/>
      <point x="218.3734939759036" y="580.132530120482" type="line"/>
      <point x="235.87951807228916" y="580.132530120482" type="line"/>
      <point x="171.95180722891564" y="720.8795180722892" type="line"/>
      <point x="82.48192771084337" y="669.3614457831325" type="line"/>
      <point x="173.42168674698797" y="531.6144578313254" type="line"/>
      <point x="194.18072289156626" y="564.1927710843373" type="line"/>
      <point x="29.433734939759038" y="575.7590361445783" type="line"/>
      <point x="29.433734939759038" y="474.03614457831327" type="line"/>
      <point x="193.86746987951807" y="484.60240963855426" type="line"/>
      <point x="172.10843373493978" y="516.2409638554217" type="line"/>
      <point x="81.48192771084337" y="380.433734939759" type="line"/>
    </contour>
  </outline>
</glyph>
<glyph name="period" format="2">
  <advance width="259.5903614457831"/>
  <unicode hex="002E"/>
  <outline>
    <contour>
      <point x="48.674698795180724" y="0.0" type="line"/>
      <point x="210.9156626506024" y="0.0" type="line"/>
      <point x="210.9156626506024" y="160.3012048192771" type="line"/>
      <point x="48.674698795180724" y="160.3012048192771" type="line"/>
    </contour>
  </outline>
</glyph>
<glyph name="one" format="2">
  <advance width="600.0"/>
  <unicode hex="0031"/>
  <outline>
    <contour>
      <point x="99.91566265060241" y="0.0" type="line"/>
      <point x="560.6626506024096" y="0.0" type="line"/>
      <point x="560.6626506024096" y="127.3012048192771" type="line"/>
      <point x="412.91566265060237" y="127.3012048192771" type="line"/>
      <point x="412.91566265060237" y="705.0" type="line"/>
      <point x="302.8072289156627" y="705.0" type="line"/>
      <point x="78.3975903614458" y="573.9879518072289" type="line"/>
      <point x="136.855421686747" y="460.87951807228916" type="line"/>
      <point x="330.6265060240964" y="574.7590361445783" type="line"/>
      <point x="257.66265060240966" y="574.7590361445783" type="line"/>
      <point x="257.66265060240966" y="127.3012048192771" type="line"/>
      <point x="99.91566265060241" y="127.3012048192771" type="line"/>
    </contour>
  </outline>
</glyph>
<glyph name="three" format="2">
  <advance width="600.0"/>
  <unicode hex="0033"/>
  <outline>
    <contour>
      <point x="282.55421686746985" y="-10.626506024096384" type="curve" smooth="yes"/>
      <point x="447.13253012048193" y="-10.626506024096384"/>
      <point x="547.8915662650603" y="67.6867469879518"/>
      <point x="547.8915662650603" y="194.56626506024097" type="curve" smooth="yes"/>
      <point x="547.8915662650603" y="289.2530120481928"/>
      <point x="491.89156626506025" y="356.2530120481928"/>
      <point x="397.144578313253" y="371.9397590361446" type="curve"/>
      <point x="397.144578313253" y="359.0" type="line"/>
      <point x="477.20481927710847" y="378.6867469879518"/>
      <point x="526.578313253012" y="442.433734939759"/>
      <point x="526.578313253012" y="524.8674698795181" type="curve" smooth="yes"/>
      <point x="526.578313253012" y="644.3734939759036"/>
      <point x="437.13253012048193" y="715.6265060240964"/>
      <point x="285.49397590361446" y="715.6265060240964" type="curve" smooth="yes"/>
      <point x="192.9277108433735" y="715.6265060240964"/>
      <point x="102.36144578313254" y="685.566265060241"/>
      <point x="44.16867469879518" y="634.4457831325301" type="curve"/>
      <point x="93.37349397590361" y="519.6506024096386" type="line"/>
      <point x="146.12048192771084" y="564.8915662650603"/>
      <point x="203.86746987951807" y="586.6385542168674"/>
      <point x="271.04819277108436" y="586.6385542168674" type="curve" smooth="yes"/>
      <point x="340.2168674698795" y="586.6385542168674"/>
      <point x="377.51807228915663" y="558.3373493975904"/>
      <point x="377.51807228915663" y="505.48192771084337" type="curve" smooth="yes"/>
      <point x="377.51807228915663" y="449.50602409638554"/>
      <point x="336.1566265060241" y="418.08433734939763"/>
      <point x="270.2409638554217" y="418.08433734939763" type="curve" smooth="yes"/>
      <point x="167.04819277108436" y="418.08433734939763" type="line"/>
      <point x="167.04819277108436" y="292.66265060240966" type="line"/>
      <point x="285.06024096385545" y="292.66265060240966" type="line" smooth="yes"/>
      <point x="359.0963855421687" y="292.66265060240966"/>
      <point x="398.8313253012048" y="265.9879518072289"/>
      <point x="398.8313253012048" y="208.69879518072287" type="curve" smooth="yes"/>
      <point x="398.8313253012048" y="149.40963855421688"/>
      <point x="357.1566265060241" y="118.36144578313252"/>
      <point x="277.3012048192771" y="118.36144578313252" type="curve" smooth="yes"/>
      <point x="206.49397590361446" y="118.36144578313252"/>
      <point x="141.49397590361446" y="139.73493975903614"/>
      <point x="81.37349397590361" y="184.289156626506" type="curve"/>
      <point x="32.48192771084337" y="67.18072289156628" type="line"/>
      <point x="88.5421686746988" y="19.060240963855424"/>
      <point x="184.67469879518075" y="-10.626506024096384"/>
    </contour>
  </outline>
</glyph>
<glyph name="seven" format="2">
  <advance width="600.0"/>
  <unicode hex="0037"/>
  <outline>
    <contour>
      <point x="70.33734939759036" y="0.0" type="line"/>
      <point x="240.7831325301205" y="0.0" type="line"/>
      <point x="553.5180722891566" y="588.6385542168674" type="line"/>
      <point x="553.5180722891566" y="705.0" type="line"/>
      <point x="47.48192771084337" y="705.0" type="line"/>
      <point x="47.48192771084337" y="577.0120481927711" type="line"/>
      <point x="408.2048192771084" y="577.0120481927711" type="line"/>
      <point x="408.2048192771084" y="625.3975903614459" type="line"/>
    </contour>
  </outline>
</glyph>
<glyph name="eight" format="2">
  <advance width="600.0"/>
  <unicode hex="0038"/>
  <outline>
    <contour>
      <point x="300.0" y="-10.626506024096384" type="curve" smooth="yes"/>
      <point x="467.44578313253015" y="-10.626506024096384"/>
      <point x="568.2650602409639" y="64.62650602409639"/>
      <point x="568.2650602409639" y="191.56626506024097" type="curve" smooth="yes"/>
      <point x="568.2650602409639" y="289.87951807228916"/>
      <point x="503.95180722891564" y="360.1927710843373"/>
      <point x="412.20481927710847" y="373.50602409638554" type="curve"/>
      <point x="412.20481927710847" y="349.7469879518072" type="line"/>
      <point x="494.32530120481925" y="363.8072289156626"/>
      <point x="550.6385542168675" y="433.8072289156626"/>
      <point x="550.6385542168675" y="524.0602409638553" type="curve" smooth="yes"/>
      <point x="550.6385542168675" y="643.6867469879518"/>
      <point x="453.7590361445783" y="715.6265060240964"/>
      <point x="300.0" y="715.6265060240964" type="curve" smooth="yes"/>
      <point x="146.9277108433735" y="715.6265060240964"/>
      <point x="50.04819277108434" y="643.6867469879518"/>
      <point x="50.04819277108434" y="524.0602409638553" type="curve" smooth="yes"/>
      <point x="50.04819277108434" y="435.12048192771084"/>
      <point x="106.36144578313254" y="366.12048192771084"/>
      <point x="190.42168674698797" y="348.43373493975906" type="curve"/>
      <point x="190.42168674698797" y="373.50602409638554" type="line"/>
      <point x="98.04819277108435" y="361.81927710843377"/>
      <point x="31.73493975903615" y="291.50602409638554"/>
      <point x="31.73493975903615" y="191.56626506024097" type="curve" smooth="yes"/>
      <point x="31.73493975903615" y="64.62650602409639"/>
      <point x="132.55421686746988" y="-10.626506024096384"/>
    </contour>
    <contour>
      <point x="300.0" y="108.16867469879517" type="curve" smooth="yes"/>
      <point x="218.27710843373495" y="108.16867469879517"/>
      <point x="173.9156626506024" y="140.7831325301205"/>
      <point x="173.9156626506024" y="203.0722891566265" type="curve" smooth="yes"/>
      <point x="173.9156626506024" y="265.3614457831325"/>
      <point x="218.27710843373495" y="297.28915662650604"/>
      <point x="300.0" y="297.28915662650604" type="curve" smooth="yes"/>
      <point x="382.4096385542169" y="297.28915662650604"/>
      <point x="426.0843373493976" y="265.3614457831325"/>
      <point x="426.0843373493976" y="203.0722891566265" type="curve" smooth="yes"/>
      <point x="426.0843373493976" y="140.7831325301205"/>
      <point x="382.4096385542169" y="108.16867469879517"/>
    </contour>
    <contour>
      <point x="300.0" y="416.0843373493976" type="curve" smooth="yes"/>
      <point x="231.96385542168676" y="416.0843373493976"/>
      <point x="192.5421686746988" y="451.0722891566265"/>
      <point x="192.5421686746988" y="507.3012048192771" type="curve" smooth="yes"/>
      <point x="192.5421686746988" y="562.5301204819277"/>
      <point x="231.96385542168676" y="596.8313253012047"/>
      <point x="300.0" y="596.8313253012047" type="curve" smooth="yes"/>
      <point x="368.03614457831327" y="596.8313253012047"/>
      <point x="408.144578313253" y="562.5301204819277"/>
      <point x="408.144578313253" y="507.3012048192771" type="curve" smooth="yes"/>
      <point x="408.144578313253" y="451.0722891566265"/>
      <point x="368.03614457831327" y="416.0843373493976"/>
    </contour>
  </outline>
</glyph>
<glyph name="greater" format="2">
  <advance width="600.0"/>
  <unicode hex="003E"/>
  <outline>
    <contour>
      <point x="56.0" y="31.433734939759038" type="line"/>
      <point x="544.0" y="230.9156626506024" type="line"/>
      <point x="544.0" y="344.0843373493976" type="line"/>
      <point x="56.0" y="543.2530120481928" type="line"/>
      <point x="56.0" y="429.65060240963857" type="line"/>
      <point x="503.86746987951807" y="249.73493975903617" type="line"/>
      <point x="503.86746987951807" y="323.95180722891564" type="line"/>
      <point x="56.0" y="144.03614457831327" type="line"/>
    </contour>
  </outline>
</glyph>
<glyph name="B" format="2">
  <advance width="694.8915662650603"/>
  <unicode hex="0042"/>
  <anchor x="347.50602409638554" y="0.0" name="bottom"/>
  <anchor x="347.50602409638554" y="705.0" name="top"/>
  <outline>
    <contour>
      <point x="70.73493975903614" y="0.0" type="line"/>
      <point x="404.7710843373494" y="0.0" type="line" smooth="yes"/>
      <point x="556.3373493975903" y="0.0"/>
      <point x="648.5301204819276" y="74.19277108433735"/>
      <point x="648.5301204819276" y="198.56626506024097" type="curve" smooth="yes"/>
      <point x="648.5301204819276" y="293.3132530120482"/>
      <point x="592.4096385542168" y="355.0"/>
      <point x="495.34939759036143" y="371.566265060241" type="curve"/>
      <point x="495.34939759036143" y="355.93975903614455" type="line"/>
      <point x="578.4698795180723" y="376.2530120481928"/>
      <point x="630.2168674698795" y="437.566265060241"/>
      <point x="630.2168674698795" y="522.3132530120482" type="curve" smooth="yes"/>
      <point x="630.2168674698795" y="635.0602409638554"/>
      <point x="544.277108433735" y="705.0"/>
      <point x="394.3975903614458" y="705.0" type="curve" smooth="yes"/>
      <point x="70.73493975903614" y="705.0" type="line"/>
    </contour>
    <contour>
      <point x="219.42168674698794" y="115.48192771084337" type="line"/>
      <point x="219.42168674698794" y="299.9156626506024" type="line"/>
      <point x="384.3855421686747" y="299.9156626506024" type="line" smooth="yes"/>
      <point x="463.73493975903614" y="299.9156626506024"/>
      <point x="499.7831325301205" y="269.9879518072289"/>
      <point x="499.7831325301205" y="207.69879518072287" type="curve" smooth="yes"/>
      <point x="499.7831325301205" y="146.0963855421687"/>
      <point x="463.73493975903614" y="115.48192771084337"/>
      <point x="384.3855421686747" y="115.48192771084337" type="curve" smooth="yes"/>
    </contour>
    <contour>
      <point x="219.42168674698794" y="415.39759036144574" type="line"/>
      <point x="219.42168674698794" y="589.5180722891566" type="line"/>
      <point x="366.7590361445783" y="589.5180722891566" type="line" smooth="yes"/>
      <point x="444.73493975903614" y="589.5180722891566"/>
      <point x="481.1566265060241" y="561.1566265060242"/>
      <point x="481.1566265060241" y="502.6144578313253" type="curve" smooth="yes"/>
      <point x="481.1566265060241" y="444.07228915662654"/>
      <point x="444.73493975903614" y="415.39759036144574"/>
      <point x="366.7590361445783" y="415.39759036144574" type="curve" smooth="yes"/>
    </contour>
  </outline>
</glyph>
<glyph name="L" format="2">
  <advance width="573.277108433735"/>
  <unicode hex="004C"/>
  <anchor x="311.566265060241" y="0.0" name="bottom"/>
  <anchor x="194.8313253012048" y="387.0" name="center"/>
  <anchor x="437.5301204819277" y="396.50602409638554" name="dot"/>
  <anchor x="148.2048192771084" y="705.0" name="top"/>
  <anchor x="326.9759036144578" y="705.0" name="topright"/>
  <outline>
    <contour>
      <point x="70.73493975903614" y="0.0" type="line"/>
      <point x="552.0843373493975" y="0.0" type="line"/>
      <point x="552.0843373493975" y="130.6144578313253" type="line"/>
      <point x="225.9879518072289" y="130.6144578313253" type="line"/>
      <point x="225.9879518072289" y="705.0" type="line"/>
      <point x="70.73493975903614" y="705.0" type="line"/>
    </contour>
  </outline>
</glyph>
<glyph name="M" format="2">
  <advance width="875.8313253012049"/>
  <unicode hex="004D"/>
  <anchor x="438.7590361445783" y="0.0" name="bottom"/>
  <anchor x="438.7590361445783" y="705.0" name="top"/>
  <outline>
    <contour>
      <point x="72.73493975903614" y="0.0" type="line"/>
      <point x="213.16867469879517" y="0.0" type="line"/>
      <point x="213.16867469879517" y="468.6987951807229" type="line"/>
      <point x="189.48192771084337" y="468.6987951807229" type="line"/>
      <point x="394.18072289156623" y="105.74698795180723" type="line"/>
      <point x="481.3975903614458" y="105.74698795180723" type="line"/>
      <point x="684.722891566265" y="468.0120481927711" type="line"/>
      <point x="663.3493975903615" y="468.0120481927711" type="line"/>
      <point x="663.3493975903615" y="0.0" type="line"/>
      <point x="803.7831325301205" y="0.0" type="line"/>
      <point x="803.7831325301205" y="705.0" type="line"/>
      <point x="677.1686746987953" y="705.0" type="line"/>
      <point x="423.44578313253015" y="241.25301204819274" type="line"/>
      <point x="456.6987951807229" y="241.25301204819274" type="line"/>
      <point x="202.28915662650604" y="705.0" type="line"/>
      <point x="72.73493975903614" y="705.0" type="line"/>
    </contour>
  </outline>
</glyph>
<glyph name="R" format="2">
  <advance width="696.0240963855422"/>
  <unicode hex="0052"/>
  <anchor x="353.3855421686747" y="0.0" name="bottom"/>
  <anchor x="352.3855421686747" y="705.0" name="top"/>
  <outline>
    <contour>
      <point x="70.73493975903614" y="0.0" type="line"/>
      <point x="225.9879518072289" y="0.0" type="line"/>
      <point x="225.9879518072289" y="272.60240963855426" type="line"/>
      <point x="301.566265060241" y="272.60240963855426" type="line" smooth="yes"/>
      <point x="342.48192771084337" y="272.60240963855426"/>
      <point x="370.66265060240966" y="260.855421686747"/>
      <point x="390.5903614457831" y="224.6867469879518" type="curve" smooth="yes"/>
      <point x="512.9036144578314" y="0.0" type="line"/>
      <point x="683.6626506024097" y="0.0" type="line"/>
      <point x="569.7349397590361" y="208.855421686747" type="line" smooth="yes"/>
      <point x="539.0481927710844" y="264.9156626506024"/>
      <point x="497.1686746987952" y="291.54216867469876"/>
      <point x="441.9156626506024" y="291.54216867469876" type="curve" smooth="yes"/>
      <point x="401.39759036144574" y="291.54216867469876" type="line"/>
      <point x="393.0240963855422" y="275.28915662650604" type="line"/>
      <point x="549.843373493976" y="275.28915662650604"/>
      <point x="639.0963855421686" y="355.7951807228916"/>
      <point x="639.0963855421686" y="489.30120481927713" type="curve" smooth="yes"/>
      <point x="639.0963855421686" y="624.4939759036145"/>
      <point x="550.2168674698795" y="705.0"/>
      <point x="393.0240963855422" y="705.0" type="curve" smooth="yes"/>
      <point x="70.73493975903614" y="705.0" type="line"/>
    </contour>
    <contour>
      <point x="225.9879518072289" y="384.8313253012048" type="line"/>
      <point x="225.9879518072289" y="584.2650602409639" type="line"/>
      <point x="365.3855421686747" y="584.2650602409639" type="line" smooth="yes"/>
      <point x="446.73493975903614" y="584.2650602409639"/>
      <point x="490.03614457831327" y="551.277108433735"/>
      <point x="490.03614457831327" y="485.04819277108436" type="curve" smooth="yes"/>
      <point x="490.03614457831327" y="417.8192771084337"/>
      <point x="446.73493975903614" y="384.8313253012048"/>
      <point x="365.3855421686747" y="384.8313253012048" type="curve" smooth="yes"/>
    </contour>
  </outline>
</glyph>
<glyph name="U" format="2">
  <advance width="743.0120481927711"/>
  <unicode hex="0055"/>
  <anchor x="372.8192771084337" y="0.0" name="bottom"/>
  <anchor x="430.13253012048193" y="0.0" name="ogonek"/>
  <anchor x="372.8192771084337" y="705.0" name="top"/>
  <anchor x="567.9879518072289" y="705.0" name="topright"/>
  <outline>
    <contour>
      <point x="372.8192771084337" y="-10.626506024096384" type="curve" smooth="yes"/>
      <point x="572.4578313253012" y="-10.626506024096384"/>
      <point x="677.2771084337348" y="92.3132530120482"/>
      <point x="677.2771084337348" y="294.6385542168675" type="curve" smooth="yes"/>
      <point x="677.2771084337348" y="705.0" type="line"/>
      <point x="523.9638554216867" y="705.0" type="line"/>
      <point x="523.9638554216867" y="294.07228915662654" type="line" smooth="yes"/>
      <point x="523.9638554216867" y="178.66265060240966"/>
      <point x="471.6024096385542" y="120.98795180722891"/>
      <point x="372.8192771084337" y="120.98795180722891" type="curve" smooth="yes"/>
      <point x="274.03614457831327" y="120.98795180722891"/>
      <point x="220.9879518072289" y="178.66265060240966"/>
      <point x="220.9879518072289" y="294.07228915662654" type="curve" smooth="yes"/>
      <point x="220.9879518072289" y="705.0" type="line"/>
      <point x="65.73493975903614" y="705.0" type="line"/>
      <point x="65.73493975903614" y="294.6385542168675" type="line" smooth="yes"/>
      <point x="65.73493975903614" y="92.3132530120482"/>
      <point x="173.18072289156626" y="-10.626506024096384"/>
    </contour>
  </outline>
</glyph>
<glyph name="Y" format="2">
  <advance width="631.156626506024"/>
  <unicode hex="0059"/>
  <anchor x="315.5783132530121" y="0.0" name="bottom"/>
  <anchor x="315.26506024096386" y="705.0" name="top"/>
  <anchor x="16.686746987951807" y="705.0" name="topleft"/>
  <outline>
    <contour>
      <point x="237.7951807228916" y="0.0" type="line"/>
      <point x="393.0481927710843" y="0.0" type="line"/>
      <point x="393.0481927710843" y="361.7469879518072" type="line"/>
      <point x="361.72289156626505" y="272.5301204819277" type="line"/>
      <point x="663.3614457831326" y="705.0" type="line"/>
      <point x="489.9759036144578" y="705.0" type="line"/>
      <point x="301.6987951807229" y="433.34939759036143" type="line"/>
      <point x="333.7710843373494" y="433.34939759036143" type="line"/>
      <point x="146.18072289156626" y="705.0" type="line"/>
      <point x="-33.51807228915662" y="705.0" type="line"/>
      <point x="269.8072289156627" y="272.5301204819277" type="line"/>
      <point x="237.7951807228916" y="361.7469879518072" type="line"/>
    </contour>
  </outline>
</glyph>
<glyph name="backslash" format="2">
  <advance width="330.855421686747"/>
  <unicode hex="005C"/>
  <outline>
    <contour>
      <point x="239.6265060240964" y="-76.01204819277108" type="line"/>
      <point x="351.1686746987952" y="-43.0" type="line"/>
      <point x="91.22891566265059" y="764.6987951807229" type="line"/>
      <point x="-20.313253012048193" y="731.6867469879519" type="line"/>
    </contour>
  </outline>
</glyph>
<glyph name="asciicircum" format="2">
  <advance width="600.0"/>
  <unicode hex="005E"/>
  <outline>
    <contour>
      <point x="44.43373493975904" y="140.0" type="line"/>
      <point x="157.34939759036143" y="140.0" type="line"/>
      <point x="336.95180722891564" y="587.1807228915663" type="line"/>
      <point x="263.73493975903614" y="587.1807228915663" type="line"/>
      <point x="442.65060240963857" y="140.0" type="line"/>
      <point x="555.5662650602409" y="140.0" type="line"/>
      <point x="356.08433734939763" y="628.0" type="line"/>
      <point x="243.9156626506024" y="628.0" type="line"/>
    </contour>
  </outline>
</glyph>
<glyph name="a" format="2">
  <advance width="557.3373493975903"/>
  <unicode hex="0061"/>
  <anchor x="279.07228915662654" y="0.0" name="bottom"/>
  <anchor x="455.6385542168675" y="0.0" name="ogonek"/>
  <anchor x="283.3855421686747" y="484.0" name="top"/>
  <outline>
    <contour>
      <point x="224.43373493975903" y="-10.626506024096384" type="curve" smooth="yes"/>
      <point x="301.2409638554217" y="-10.626506024096384"/>
      <point x="354.73493975903614" y="31.807228915662655"/>
      <point x="367.855421686747" y="98.67469879518073" type="curve"/>
      <point x="360.7951807228916" y="98.67469879518073" type="line"/>
      <point x="360.7951807228916" y="0.0" type="line"/>
      <point x="501.6024096385542" y="0.0" type="line"/>
      <point x="501.6024096385542" y="289.73493975903614" type="line" smooth="yes"/>
      <point x="501.6024096385542" y="434.6867469879518"/>
      <point x="428.5903614457831" y="501.1927710843374"/>
      <point x="275.566265060241" y="501.1927710843374" type="curve" smooth="yes"/>
      <point x="202.3734939759036" y="501.1927710843374"/>
      <point x="107.42168674698794" y="476.2530120481928"/>
      <point x="56.421686746987945" y="440.566265060241" type="curve"/>
      <point x="97.12048192771084" y="339.90361445783134" type="line"/>
      <point x="155.43373493975903" y="373.9638554216868"/>
      <point x="216.25301204819277" y="389.65060240963857"/>
      <point x="269.6867469879518" y="389.65060240963857" type="curve" smooth="yes"/>
      <point x="334.30120481927713" y="389.65060240963857"/>
      <point x="358.48192771084337" y="367.34939759036143"/>
      <point x="358.48192771084337" y="309.43373493975906" type="curve" smooth="yes"/>
      <point x="358.48192771084337" y="194.12048192771084" type="line" smooth="yes"/>
      <point x="358.48192771084337" y="132.89156626506025"/>
      <point x="314.49397590361446" y="90.09638554216868"/>
      <point x="257.6385542168675" y="90.09638554216868" type="curve" smooth="yes"/>
      <point x="208.90361445783134" y="90.09638554216868"/>
      <point x="181.9156626506024" y="116.71084337349397"/>
      <point x="181.9156626506024" y="154.44578313253012" type="curve" smooth="yes"/>
      <point x="181.9156626506024" y="197.9277108433735"/>
      <point x="220.4698795180723" y="214.24096385542168"/>
      <point x="322.6024096385542" y="214.24096385542168" type="curve" smooth="yes"/>
      <point x="374.73493975903614" y="214.24096385542168" type="line"/>
      <point x="374.73493975903614" y="292.1927710843374" type="line"/>
      <point x="322.2289156626506" y="292.1927710843374" type="line" smooth="yes"/>
      <point x="113.36144578313254" y="292.1927710843374"/>
      <point x="36.42168674698796" y="254.81927710843374"/>
      <point x="36.42168674698796" y="147.81927710843374" type="curve" smooth="yes"/>
      <point x="36.42168674698796" y="57.31325301204819"/>
      <point x="114.36144578313254" y="-10.626506024096384"/>
    </contour>
  </outline>
</glyph>
<glyph name="b" format="2">
  <advance width="610.0240963855422"/>
  <unicode hex="0062"/>
  <anchor x="305.7469879518072" y="0.0" name="bottom"/>
  <anchor x="317.07228915662654" y="705.0" name="top"/>
  <outline>
    <contour>
      <point x="361.4096385542169" y="-10.626506024096384" type="curve" smooth="yes"/>
      <point x="488.4698795180723" y="-10.626506024096384"/>
      <point x="576.4096385542168" y="87.37349397590361"/>
      <point x="576.4096385542168" y="245.6265060240964" type="curve" smooth="yes"/>
      <point x="576.4096385542168" y="403.87951807228916"/>
      <point x="489.4698795180723" y="501.1927710843374"/>
      <point x="361.4096385542169" y="501.1927710843374" type="curve" smooth="yes"/>
      <point x="284.1686746987952" y="501.1927710843374"/>
      <point x="218.10843373493975" y="459.6987951807229"/>
      <point x="197.42168674698794" y="399.71084337349396" type="curve"/>
      <point x="209.42168674698794" y="399.71084337349396" type="line"/>
      <point x="209.42168674698794" y="705.0" type="line"/>
      <point x="58.421686746987945" y="705.0" type="line"/>
      <point x="58.421686746987945" y="0.0" type="line"/>
      <point x="205.79518072289156" y="0.0" type="line"/>
      <point x="205.79518072289156" y="96.79518072289156" type="line"/>
      <point x="196.10843373493975" y="96.79518072289156" type="line"/>
      <point x="215.48192771084337" y="32.18072289156627"/>
      <point x="281.855421686747" y="-10.626506024096384"/>
    </contour>
    <contour>
      <point x="315.7590361445783" y="102.22891566265059" type="curve" smooth="yes"/>
      <point x="250.7831325301205" y="102.22891566265059"/>
      <point x="207.10843373493975" y="148.08433734939757"/>
      <point x="207.10843373493975" y="245.6265060240964" type="curve" smooth="yes"/>
      <point x="207.10843373493975" y="343.1686746987952"/>
      <point x="250.7831325301205" y="388.33734939759034"/>
      <point x="315.7590361445783" y="388.33734939759034" type="curve" smooth="yes"/>
      <point x="380.0481927710843" y="388.33734939759034"/>
      <point x="424.4096385542169" y="343.1686746987952"/>
      <point x="424.4096385542169" y="245.6265060240964" type="curve" smooth="yes"/>
      <point x="424.4096385542169" y="148.08433734939757"/>
      <point x="380.0481927710843" y="102.22891566265059"/>
    </contour>
  </outline>
</glyph>
<glyph name="c" format="2">
  <advance width="477.9518072289157"/>
  <unicode hex="0063"/>
  <anchor x="286.4457831325301" y="0.0" name="bottom"/>
  <anchor x="286.4457831325301" y="484.0" name="top"/>
  <outline>
    <contour>
      <point x="296.9518072289157" y="-10.626506024096384" type="curve" smooth="yes"/>
      <point x="359.51807228915663" y="-10.626506024096384"/>
      <point x="429.3975903614458" y="10.120481927710845"/>
      <point x="470.0240963855422" y="43.554216867469876" type="curve"/>
      <point x="427.6987951807229" y="148.4698795180723" type="line"/>
      <point x="395.20481927710847" y="120.22891566265059"/>
      <point x="349.144578313253" y="104.54216867469879"/>
      <point x="311.71084337349396" y="104.54216867469879" type="curve" smooth="yes"/>
      <point x="232.85542168674698" y="104.54216867469879"/>
      <point x="188.24096385542168" y="157.65060240963857"/>
      <point x="188.24096385542168" y="246.3132530120482" type="curve" smooth="yes"/>
      <point x="188.24096385542168" y="335.66265060240966"/>
      <point x="232.85542168674698" y="386.0240963855422"/>
      <point x="311.71084337349396" y="386.0240963855422" type="curve" smooth="yes"/>
      <point x="350.144578313253" y="386.0240963855422"/>
      <point x="395.20481927710847" y="370.3373493975904"/>
      <point x="427.6987951807229" y="342.7831325301205" type="curve"/>
      <point x="470.0240963855422" y="447.0120481927711" type="line"/>
      <point x="429.3975903614458" y="481.13253012048193"/>
      <point x="360.20481927710847" y="501.1927710843374"/>
      <point x="296.9518072289157" y="501.1927710843374" type="curve" smooth="yes"/>
      <point x="136.3132530120482" y="501.1927710843374"/>
      <point x="33.6144578313253" y="404.566265060241"/>
      <point x="33.6144578313253" y="247.0" type="curve" smooth="yes"/>
      <point x="33.6144578313253" y="88.74698795180723"/>
      <point x="136.3132530120482" y="-10.626506024096384"/>
    </contour>
  </outline>
</glyph>
<glyph name="e" format="2">
  <advance width="548.5783132530121"/>
  <unicode hex="0065"/>
  <anchor x="286.81927710843377" y="0.0" name="bottom"/>
  <anchor x="380.3975903614458" y="0.0" name="ogonek"/>
  <anchor x="286.81927710843377" y="484.0" name="top"/>
  <outline>
    <contour>
      <point x="312.89156626506025" y="-10.626506024096384" type="curve" smooth="yes"/>
      <point x="384.51807228915663" y="-10.626506024096384"/>
      <point x="461.7710843373494" y="12.74698795180723"/>
      <point x="510.96385542168673" y="50.49397590361446" type="curve"/>
      <point x="471.26506024096386" y="150.78313253012047" type="line"/>
      <point x="426.8313253012048" y="117.9156626506024"/>
      <point x="369.26506024096386" y="102.22891566265059"/>
      <point x="316.144578313253" y="102.22891566265059" type="curve" smooth="yes"/>
      <point x="222.0963855421687" y="102.22891566265059"/>
      <point x="175.42168674698794" y="147.3975903614458"/>
      <point x="175.42168674698794" y="250.19277108433735" type="curve" smooth="yes"/>
      <point x="175.42168674698794" y="257.8192771084337" type="line" smooth="yes"/>
      <point x="175.42168674698794" y="348.2409638554217"/>
      <point x="218.40963855421688" y="401.1566265060241"/>
      <point x="292.0722891566265" y="401.1566265060241" type="curve" smooth="yes"/>
      <point x="357.6746987951807" y="401.1566265060241"/>
      <point x="394.28915662650604" y="358.67469879518075"/>
      <point x="394.28915662650604" y="277.0722891566265" type="curve"/>
      <point x="409.9759036144578" y="290.81927710843377" type="line"/>
      <point x="158.10843373493975" y="290.81927710843377" type="line"/>
      <point x="158.10843373493975" y="212.86746987951807" type="line"/>
      <point x="518.9638554216867" y="212.86746987951807" type="line"/>
      <point x="518.9638554216867" y="250.80722891566265" type="line" smooth="yes"/>
      <point x="518.9638554216867" y="404.68674698795184"/>
      <point x="428.89156626506025" y="501.1927710843374"/>
      <point x="285.50602409638554" y="501.1927710843374" type="curve" smooth="yes"/>
      <point x="139.06024096385542" y="501.1927710843374"/>
      <point x="33.6144578313253" y="396.2530120481928"/>
      <point x="33.6144578313253" y="245.25301204819277" type="curve" smooth="yes"/>
      <point x="33.6144578313253" y="88.62650602409639"/>
      <point x="139.6867469879518" y="-10.626506024096384"/>
    </contour>
  </outline>
</glyph>
<glyph name="f" format="2">
  <advance width="382.4819277108434"/>
  <unicode hex="0066"/>
  <anchor x="171.65060240963857" y="0.0" name="bottom"/>
  <anchor x="171.65060240963857" y="705.0" name="top"/>
  <outline>
    <contour>
      <point x="95.80722891566265" y="0.0" type="line"/>
      <point x="246.80722891566262" y="0.0" type="line"/>
      <point x="246.80722891566262" y="378.3975903614458" type="line"/>
      <point x="375.4216867469879" y="378.3975903614458" type="line"/>
      <point x="375.4216867469879" y="490.566265060241" type="line"/>
      <point x="228.3012048192771" y="490.566265060241" type="line"/>
      <point x="246.80722891566262" y="473.6265060240964" type="line"/>
      <point x="246.80722891566262" y="508.433734939759" type="line" smooth="yes"/>
      <point x="246.80722891566262" y="566.3493975903614"/>
      <point x="273.9879518072289" y="593.3975903614457"/>
      <point x="352.4216867469879" y="598.3975903614459" type="curve" smooth="yes"/>
      <point x="398.73493975903614" y="601.3975903614459" type="line"/>
      <point x="389.79518072289153" y="710.6265060240964" type="line"/>
      <point x="335.15662650602405" y="707.3132530120482" type="line" smooth="yes"/>
      <point x="171.19277108433735" y="698.0"/>
      <point x="95.80722891566265" y="626.8072289156627"/>
      <point x="95.80722891566265" y="481.855421686747" type="curve" smooth="yes"/>
      <point x="95.80722891566265" y="450.6746987951807" type="line"/>
      <point x="139.63855421686745" y="490.566265060241" type="line"/>
      <point x="2.7469879518072293" y="490.566265060241" type="line"/>
      <point x="2.7469879518072293" y="378.3975903614458" type="line"/>
      <point x="95.80722891566265" y="378.3975903614458" type="line"/>
    </contour>
  </outline>
</glyph>
<glyph name="g" format="2">
  <advance width="614.6506024096386"/>
  <unicode hex="0067"/>
  <anchor x="306.69879518072287" y="484.0" name="top"/>
  <outline>
    <contour>
      <point x="294.2530120481928" y="-190.6265060240964" type="curve" smooth="yes"/>
      <point x="463.96385542168673" y="-190.6265060240964"/>
      <point x="556.2289156626506" y="-107.80722891566265"/>
      <point x="556.2289156626506" y="57.14457831325301" type="curve" smooth="yes"/>
      <point x="556.2289156626506" y="490.566265060241" type="line"/>
      <point x="408.855421686747" y="490.566265060241" type="line"/>
      <point x="408.855421686747" y="398.3373493975904" type="line"/>
      <point x="416.54216867469876" y="398.3373493975904" type="line"/>
      <point x="397.2289156626506" y="459.6987951807229"/>
      <point x="330.48192771084337" y="501.1927710843374"/>
      <point x="251.92771084337346" y="501.1927710843374" type="curve" smooth="yes"/>
      <point x="120.55421686746989" y="501.1927710843374"/>
      <point x="33.6144578313253" y="403.87951807228916"/>
      <point x="33.6144578313253" y="256.93975903614455" type="curve" smooth="yes"/>
      <point x="33.6144578313253" y="110.0"/>
      <point x="120.55421686746989" y="12.313253012048193"/>
      <point x="251.92771084337346" y="12.313253012048193" type="curve" smooth="yes"/>
      <point x="328.16867469879514" y="12.313253012048193"/>
      <point x="397.2289156626506" y="53.807228915662655"/>
      <point x="417.855421686747" y="116.1686746987952" type="curve"/>
      <point x="409.16867469879514" y="116.1686746987952" type="line"/>
      <point x="409.16867469879514" y="39.63855421686747" type="line" smooth="yes"/>
      <point x="409.16867469879514" y="-39.78313253012049"/>
      <point x="366.3614457831325" y="-77.77108433734941"/>
      <point x="280.8072289156627" y="-77.77108433734941" type="curve" smooth="yes"/>
      <point x="220.56626506024097" y="-77.77108433734941"/>
      <point x="148.6144578313253" y="-59.7710843373494"/>
      <point x="94.80722891566265" y="-25.590361445783135" type="curve"/>
      <point x="54.10843373493976" y="-129.19277108433735" type="line"/>
      <point x="115.04819277108433" y="-171.56626506024097"/>
      <point x="199.80722891566265" y="-190.6265060240964"/>
    </contour>
    <contour>
      <point x="296.578313253012" y="125.16867469879517" type="curve" smooth="yes"/>
      <point x="228.97590361445782" y="125.16867469879517"/>
      <point x="185.6144578313253" y="174.65060240963857"/>
      <point x="185.6144578313253" y="256.93975903614455" type="curve" smooth="yes"/>
      <point x="185.6144578313253" y="339.2289156626506"/>
      <point x="228.97590361445782" y="388.33734939759034"/>
      <point x="296.578313253012" y="388.33734939759034" type="curve" smooth="yes"/>
      <point x="364.1807228915663" y="388.33734939759034"/>
      <point x="407.5421686746988" y="339.2289156626506"/>
      <point x="407.5421686746988" y="256.93975903614455" type="curve" smooth="yes"/>
      <point x="407.5421686746988" y="174.65060240963857"/>
      <point x="364.1807228915663" y="125.16867469879517"/>
    </contour>
  </outline>
</glyph>
<glyph name="h" format="2">
  <advance width="595.3373493975903"/>
  <unicode hex="0068"/>
  <anchor x="299.3253012048193" y="0.0" name="bottom"/>
  <anchor x="299.3253012048193" y="248.6265060240964" name="center"/>
  <anchor x="334.0120481927711" y="351.3734939759036" name="dot"/>
  <anchor x="184.26506024096383" y="590.1927710843373" name="stroke"/>
  <anchor x="299.0120481927711" y="705.0" name="top"/>
  <anchor x="235.66265060240963" y="705.0" name="topright"/>
  <outline>
    <contour>
      <point x="58.421686746987945" y="0.0" type="line"/>
      <point x="209.42168674698794" y="0.0" type="line"/>
      <point x="209.42168674698794" y="274.0602409638554" type="line" smooth="yes"/>
      <point x="209.42168674698794" y="340.6626506024096"/>
      <point x="250.4698795180723" y="384.3975903614458"/>
      <point x="313.7590361445783" y="384.3975903614458" type="curve" smooth="yes"/>
      <point x="364.0481927710843" y="384.3975903614458"/>
      <point x="388.60240963855426" y="356.0963855421687"/>
      <point x="388.60240963855426" y="287.9277108433735" type="curve" smooth="yes"/>
      <point x="388.60240963855426" y="0.0" type="line"/>
      <point x="539.6024096385543" y="0.0" type="line"/>
      <point x="539.6024096385543" y="294.5542168674699" type="line" smooth="yes"/>
      <point x="539.6024096385543" y="433.9397590361446"/>
      <point x="483.6024096385542" y="501.1927710843374"/>
      <point x="366.6024096385542" y="501.1927710843374" type="curve" smooth="yes"/>
      <point x="289.48192771084337" y="501.1927710843374"/>
      <point x="225.04819277108433" y="464.44578313253015"/>
      <point x="194.79518072289156" y="398.51807228915663" type="curve"/>
      <point x="209.42168674698794" y="398.51807228915663" type="line"/>
      <point x="209.42168674698794" y="705.0" type="line"/>
      <point x="58.421686746987945" y="705.0" type="line"/>
    </contour>
  </outline>
</glyph>
<glyph name="k" format="2">
  <advance width="557.6144578313252"/>
  <unicode hex="006B"/>
  <anchor x="278.6506024096385" y="0.0" name="bottom"/>
  <anchor x="299.0120481927711" y="705.0" name="top"/>
  <outline>
    <contour>
      <point x="58.421686746987945" y="0.0" type="line"/>
      <point x="209.42168674698794" y="0.0" type="line"/>
      <point x="209.42168674698794" y="211.73493975903617" type="line"/>
      <point x="211.42168674698794" y="211.73493975903617" type="line"/>
      <point x="398.8072289156626" y="0.0" type="line"/>
      <point x="581.2530120481928" y="0.0" type="line"/>
      <point x="337.855421686747" y="285.3855421686747" type="line"/>
      <point x="337.855421686747" y="228.3734939759036" type="line"/>
      <point x="571.0120481927711" y="490.566265060241" type="line"/>
      <point x="391.50602409638554" y="490.566265060241" type="line"/>
      <point x="211.42168674698794" y="287.5783132530121" type="line"/>
      <point x="209.42168674698794" y="287.5783132530121" type="line"/>
      <point x="209.42168674698794" y="705.0" type="line"/>
      <point x="58.421686746987945" y="705.0" type="line"/>
    </contour>
  </outline>
</glyph>
<glyph name="m" format="2">
  <advance width="889.2168674698795"/>
  <unicode hex="006D"/>
  <anchor x="445.95180722891564" y="0.0" name="bottom"/>
  <anchor x="445.95180722891564" y="484.0" name="top"/>
  <outline>
    <contour>
      <point x="60.421686746987945" y="0.0" type="line"/>
      <point x="211.42168674698794" y="0.0" type="line"/>
      <point x="211.42168674698794" y="268.8072289156626" type="line" smooth="yes"/>
      <point x="211.42168674698794" y="341.9759036144578"/>
      <point x="244.4698795180723" y="384.3975903614458"/>
      <point x="302.0120481927711" y="384.3975903614458" type="curve" smooth="yes"/>
      <point x="350.55421686746985" y="384.3975903614458"/>
      <point x="370.10843373493975" y="356.0963855421687"/>
      <point x="370.10843373493975" y="289.55421686746985" type="curve" smooth="yes"/>
      <point x="370.10843373493975" y="0.0" type="line"/>
      <point x="521.1084337349398" y="0.0" type="line"/>
      <point x="521.1084337349398" y="268.8072289156626" type="line" smooth="yes"/>
      <point x="521.1084337349398" y="341.9759036144578"/>
      <point x="554.843373493976" y="384.3975903614458"/>
      <point x="611.6987951807229" y="384.3975903614458" type="curve" smooth="yes"/>
      <point x="660.9277108433735" y="384.3975903614458"/>
      <point x="680.4819277108434" y="356.0963855421687"/>
      <point x="680.4819277108434" y="289.55421686746985" type="curve" smooth="yes"/>
      <point x="680.4819277108434" y="0.0" type="line"/>
      <point x="831.4819277108434" y="0.0" type="line"/>
      <point x="831.4819277108434" y="294.5542168674699" type="line" smooth="yes"/>
      <point x="831.4819277108434" y="434.9397590361446"/>
      <point x="777.4819277108434" y="501.1927710843374"/>
      <point x="664.9156626506025" y="501.1927710843374" type="curve" smooth="yes"/>
      <point x="587.1084337349397" y="501.1927710843374"/>
      <point x="522.1084337349398" y="459.07228915662654"/>
      <point x="493.2289156626506" y="391.26506024096386" type="curve"/>
      <point x="507.2289156626506" y="391.26506024096386" type="line"/>
      <point x="485.6626506024096" y="465.4457831325301"/>
      <point x="433.03614457831327" y="501.1927710843374"/>
      <point x="358.1686746987952" y="501.1927710843374" type="curve" smooth="yes"/>
      <point x="281.10843373493975" y="501.1927710843374"/>
      <point x="223.42168674698794" y="461.13253012048193"/>
      <point x="196.79518072289156" y="398.51807228915663" type="curve"/>
      <point x="207.79518072289156" y="398.51807228915663" type="line"/>
      <point x="207.79518072289156" y="490.566265060241" type="line"/>
      <point x="60.421686746987945" y="490.566265060241" type="line"/>
    </contour>
  </outline>
</glyph>
<glyph name="n" format="2">
  <advance width="595.3373493975903"/>
  <unicode hex="006E"/>
  <anchor x="299.3253012048193" y="0.0" name="bottom"/>
  <anchor x="299.3253012048193" y="484.0" name="top"/>
  <outline>
    <contour>
      <point x="58.421686746987945" y="0.0" type="line"/>
      <point x="209.42168674698794" y="0.0" type="line"/>
      <point x="209.42168674698794" y="274.0602409638554" type="line" smooth="yes"/>
      <point x="209.42168674698794" y="340.6626506024096"/>
      <point x="250.4698795180723" y="384.3975903614458"/>
      <point x="313.7590361445783" y="384.3975903614458" type="curve" smooth="yes"/>
      <point x="364.0481927710843" y="384.3975903614458"/>
      <point x="388.60240963855426" y="356.0963855421687"/>
      <point x="388.60240963855426" y="287.9277108433735" type="curve" smooth="yes"/>
      <point x="388.60240963855426" y="0.0" type="line"/>
      <point x="539.6024096385543" y="0.0" type="line"/>
      <point x="539.6024096385543" y="294.5542168674699" type="line" smooth="yes"/>
      <point x="539.6024096385543" y="434.6265060240964"/>
      <point x="483.6024096385542" y="501.1927710843374"/>
      <point x="366.6024096385542" y="501.1927710843374" type="curve" smooth="yes"/>
      <point x="289.48192771084337" y="501.1927710843374"/>
      <point x="225.04819277108433" y="464.44578313253015"/>
      <point x="194.79518072289156" y="398.51807228915663" type="curve"/>
      <point x="205.79518072289156" y="398.51807228915663" type="line"/>
      <point x="205.79518072289156" y="490.566265060241" type="line"/>
      <point x="58.421686746987945" y="490.566265060241" type="line"/>
    </contour>
  </outline>
</glyph>
<glyph name="o" format="2">
  <advance width="588.5301204819277"/>
  <unicode hex="006F"/>
  <anchor x="294.26506024096386" y="0.0" name="bottom"/>
  <anchor x="294.26506024096386" y="245.6265060240964" name="center"/>
  <anchor x="353.26506024096386" y="0.0" name="ogonek"/>
  <anchor x="294.26506024096386" y="484.0" name="top"/>
  <anchor x="357.33734939759034" y="484.0" name="topright"/>
  <outline>
    <contour>
      <point x="294.26506024096386" y="-10.626506024096384" type="curve" smooth="yes"/>
      <point x="451.53012048192767" y="-10.626506024096384"/>
      <point x="554.9156626506024" y="87.37349397590361"/>
      <point x="554.9156626506024" y="245.6265060240964" type="curve" smooth="yes"/>
      <point x="554.9156626506024" y="403.1927710843374"/>
      <point x="451.53012048192767" y="501.1927710843374"/>
      <point x="294.26506024096386" y="501.1927710843374" type="curve" smooth="yes"/>
      <point x="136.3132530120482" y="501.1927710843374"/>
      <point x="33.6144578313253" y="403.1927710843374"/>
      <point x="33.6144578313253" y="245.6265060240964" type="curve" smooth="yes"/>
      <point x="33.6144578313253" y="87.37349397590361"/>
      <point x="136.3132530120482" y="-10.626506024096384"/>
    </contour>
    <contour>
      <point x="294.26506024096386" y="102.22891566265059" type="curve" smooth="yes"/>
      <point x="229.289156626506" y="102.22891566265059"/>
      <point x="185.6144578313253" y="148.08433734939757"/>
      <point x="185.6144578313253" y="245.6265060240964" type="curve" smooth="yes"/>
      <point x="185.6144578313253" y="343.1686746987952"/>
      <point x="229.289156626506" y="388.33734939759034"/>
      <point x="294.26506024096386" y="388.33734939759034" type="curve" smooth="yes"/>
      <point x="358.55421686746985" y="388.33734939759034"/>
      <point x="402.9156626506024" y="343.1686746987952"/>
      <point x="402.9156626506024" y="245.6265060240964" type="curve" smooth="yes"/>
      <point x="402.9156626506024" y="148.08433734939757"/>
      <point x="358.55421686746985" y="102.22891566265059"/>
    </contour>
  </outline>
</glyph>
<glyph name="p" format="2">
  <advance width="610.0240963855422"/>
  <unicode hex="0070"/>
  <anchor x="304.0120481927711" y="0.0" name="bottom"/>
  <anchor x="304.0120481927711" y="484.0" name="top"/>
  <outline>
    <contour>
      <point x="58.421686746987945" y="-180.0" type="line"/>
      <point x="209.42168674698794" y="-180.0" type="line"/>
      <point x="209.42168674698794" y="91.5421686746988" type="line"/>
      <point x="197.42168674698794" y="91.5421686746988" type="line"/>
      <point x="218.10843373493975" y="30.86746987951807"/>
      <point x="284.1686746987952" y="-10.626506024096384"/>
      <point x="361.4096385542169" y="-10.626506024096384" type="curve" smooth="yes"/>
      <point x="489.4698795180723" y="-10.626506024096384"/>
      <point x="576.4096385542168" y="87.37349397590361"/>
      <point x="576.4096385542168" y="245.6265060240964" type="curve" smooth="yes"/>
      <point x="576.4096385542168" y="403.87951807228916"/>
      <point x="488.4698795180723" y="501.1927710843374"/>
      <point x="361.4096385542169" y="501.1927710843374" type="curve" smooth="yes"/>
      <point x="281.855421686747" y="501.1927710843374"/>
      <point x="215.48192771084337" y="458.3855421686747"/>
      <point x="196.10843373493975" y="394.4578313253012" type="curve"/>
      <point x="205.79518072289156" y="394.4578313253012" type="line"/>
      <point x="205.79518072289156" y="490.566265060241" type="line"/>
      <point x="58.421686746987945" y="490.566265060241" type="line"/>
    </contour>
    <contour>
      <point x="315.7590361445783" y="102.22891566265059" type="curve" smooth="yes"/>
      <point x="250.7831325301205" y="102.22891566265059"/>
      <point x="207.10843373493975" y="148.08433734939757"/>
      <point x="207.10843373493975" y="245.6265060240964" type="curve" smooth="yes"/>
      <point x="207.10843373493975" y="343.1686746987952"/>
      <point x="250.7831325301205" y="388.33734939759034"/>
      <point x="315.7590361445783" y="388.33734939759034" type="curve" smooth="yes"/>
      <point x="380.0481927710843" y="388.33734939759034"/>
      <point x="424.4096385542169" y="343.1686746987952"/>
      <point x="424.4096385542169" y="245.6265060240964" type="curve" smooth="yes"/>
      <point x="424.4096385542169" y="148.08433734939757"/>
      <point x="380.0481927710843" y="102.22891566265059"/>
    </contour>
  </outline>
</glyph>
<glyph name="q" format="2">
  <advance width="610.0240963855422"/>
  <unicode hex="0071"/>
  <anchor x="306.26506024096386" y="0.0" name="bottom"/>
  <anchor x="306.26506024096386" y="484.0" name="top"/>
  <outline>
    <contour>
      <point x="400.6024096385542" y="-180.0" type="line"/>
      <point x="551.6024096385541" y="-180.0" type="line"/>
      <point x="551.6024096385541" y="490.566265060241" type="line"/>
      <point x="404.2289156626506" y="490.566265060241" type="line"/>
      <point x="404.2289156626506" y="394.4578313253012" type="line"/>
      <point x="413.2289156626506" y="394.4578313253012" type="line"/>
      <point x="393.855421686747" y="458.3855421686747"/>
      <point x="327.48192771084337" y="501.1927710843374"/>
      <point x="248.61445783132527" y="501.1927710843374" type="curve" smooth="yes"/>
      <point x="121.55421686746989" y="501.1927710843374"/>
      <point x="33.6144578313253" y="403.87951807228916"/>
      <point x="33.6144578313253" y="245.6265060240964" type="curve" smooth="yes"/>
      <point x="33.6144578313253" y="87.37349397590361"/>
      <point x="120.55421686746989" y="-10.626506024096384"/>
      <point x="248.61445783132527" y="-10.626506024096384" type="curve" smooth="yes"/>
      <point x="325.855421686747" y="-10.626506024096384"/>
      <point x="391.2289156626506" y="30.86746987951807"/>
      <point x="411.91566265060237" y="91.5421686746988" type="curve"/>
      <point x="400.6024096385542" y="91.5421686746988" type="line"/>
    </contour>
    <contour>
      <point x="294.26506024096386" y="102.22891566265059" type="curve" smooth="yes"/>
      <point x="229.289156626506" y="102.22891566265059"/>
      <point x="185.6144578313253" y="148.08433734939757"/>
      <point x="185.6144578313253" y="245.6265060240964" type="curve" smooth="yes"/>
      <point x="185.6144578313253" y="343.1686746987952"/>
      <point x="229.289156626506" y="388.33734939759034"/>
      <point x="294.26506024096386" y="388.33734939759034" type="curve" smooth="yes"/>
      <point x="358.55421686746985" y="388.33734939759034"/>
      <point x="402.9156626506024" y="343.1686746987952"/>
      <point x="402.9156626506024" y="245.6265060240964" type="curve" smooth="yes"/>
      <point x="402.9156626506024" y="148.08433734939757"/>
      <point x="358.55421686746985" y="102.22891566265059"/>
    </contour>
  </outline>
</glyph>
<glyph name="r" format="2">
  <advance width="412.3614457831325"/>
  <unicode hex="0072"/>
  <anchor x="134.89156626506025" y="0.0" name="bottom"/>
  <anchor x="233.89156626506022" y="484.0" name="top"/>
  <outline>
    <contour>
      <point x="58.421686746987945" y="0.0" type="line"/>
      <point x="212.04819277108433" y="0.0" type="line"/>
      <point x="212.04819277108433" y="254.2289156626506" type="line" smooth="yes"/>
      <point x="212.04819277108433" y="324.27710843373495"/>
      <point x="248.03614457831327" y="360.9518072289157"/>
      <point x="324.3975903614458" y="368.3253012048193" type="curve" smooth="yes"/>
      <point x="408.6144578313253" y="376.578313253012" type="line"/>
      <point x="399.67469879518075" y="503.87951807228916" type="line"/>
      <point x="356.34939759036143" y="500.566265060241" type="line" smooth="yes"/>
      <point x="266.28915662650604" y="493.87951807228916"/>
      <point x="210.97590361445782" y="451.0"/>
      <point x="195.79518072289156" y="371.0" type="curve"/>
      <point x="205.79518072289156" y="371.0" type="line"/>
      <point x="205.79518072289156" y="490.566265060241" type="line"/>
      <point x="58.421686746987945" y="490.566265060241" type="line"/>
    </contour>
  </outline>
</glyph>
<glyph name="s" format="2">
  <advance width="492.07228915662654"/>
  <unicode hex="0073"/>
  <anchor x="246.50602409638554" y="0.0" name="bottom"/>
  <anchor x="255.19277108433735" y="484.0" name="top"/>
  <outline>
    <contour>
      <point x="246.19277108433735" y="-10.626506024096384" type="curve" smooth="yes"/>
      <point x="377.2048192771084" y="-10.626506024096384"/>
      <point x="463.96385542168673" y="49.25301204819277"/>
      <point x="463.96385542168673" y="152.26506024096383" type="curve" smooth="yes"/>
      <point x="463.96385542168673" y="226.144578313253"/>
      <point x="417.0240963855422" y="269.39759036144574"/>
      <point x="331.3373493975904" y="284.45783132530124" type="curve" smooth="yes"/>
      <point x="226.0120481927711" y="303.144578313253" type="line" smooth="yes"/>
      <point x="193.90361445783134" y="308.89156626506025"/>
      <point x="178.72289156626505" y="324.44578313253015"/>
      <point x="178.72289156626505" y="346.8072289156626" type="curve" smooth="yes"/>
      <point x="178.72289156626505" y="376.6024096385542"/>
      <point x="204.3975903614458" y="397.5301204819277"/>
      <point x="264.3855421686747" y="397.5301204819277" type="curve" smooth="yes"/>
      <point x="311.81927710843377" y="397.5301204819277"/>
      <point x="373.6385542168675" y="377.5301204819277"/>
      <point x="412.6385542168675" y="348.3493975903615" type="curve"/>
      <point x="451.3373493975904" y="445.3855421686747" type="line"/>
      <point x="402.89156626506025" y="483.7590361445783"/>
      <point x="332.3855421686747" y="501.1927710843374"/>
      <point x="262.4457831325301" y="501.1927710843374" type="curve" smooth="yes"/>
      <point x="133.80722891566265" y="501.1927710843374"/>
      <point x="44.10843373493976" y="438.0"/>
      <point x="44.10843373493976" y="339.2409638554217" type="curve" smooth="yes"/>
      <point x="44.10843373493976" y="266.04819277108436"/>
      <point x="89.67469879518073" y="220.10843373493978"/>
      <point x="172.67469879518075" y="205.04819277108436" type="curve" smooth="yes"/>
      <point x="278.0" y="186.36144578313255" type="line" smooth="yes"/>
      <point x="311.16867469879514" y="180.24096385542168"/>
      <point x="329.34939759036143" y="167.3734939759036"/>
      <point x="329.34939759036143" y="142.3855421686747" type="curve" smooth="yes"/>
      <point x="329.34939759036143" y="112.96385542168674"/>
      <point x="303.6746987951807" y="93.03614457831324"/>
      <point x="246.87951807228916" y="93.03614457831324" type="curve" smooth="yes"/>
      <point x="184.6265060240964" y="93.03614457831324"/>
      <point x="117.12048192771084" y="112.66265060240964"/>
      <point x="67.80722891566265" y="143.15662650602408" type="curve"/>
      <point x="31.73493975903615" y="45.18072289156627" type="line"/>
      <point x="81.9277108433735" y="9.74698795180723"/>
      <point x="159.12048192771084" y="-10.626506024096384"/>
    </contour>
  </outline>
</glyph>
<glyph name="t" format="2">
  <advance width="404.36144578313247"/>
  <unicode hex="0074"/>
  <anchor x="238.45783132530119" y="0.0" name="bottom"/>
  <anchor x="188.7710843373494" y="257.2409638554217" name="center"/>
  <anchor x="168.33734939759034" y="635.0" name="top"/>
  <anchor x="290.6626506024096" y="705.0" name="topright"/>
  <outline>
    <contour>
      <point x="299.33734939759034" y="-10.626506024096384" type="curve" smooth="yes"/>
      <point x="335.8433734939759" y="-10.626506024096384"/>
      <point x="378.4096385542168" y="-1.3132530120481927"/>
      <point x="405.85542168674704" y="12.93975903614458" type="curve"/>
      <point x="384.34939759036143" y="122.79518072289156" type="line"/>
      <point x="361.4698795180723" y="116.48192771084337"/>
      <point x="342.4096385542168" y="112.10843373493975"/>
      <point x="324.66265060240966" y="112.10843373493975" type="curve" smooth="yes"/>
      <point x="267.6144578313253" y="112.10843373493975"/>
      <point x="243.49397590361446" y="139.72289156626505"/>
      <point x="243.49397590361446" y="196.2048192771084" type="curve" smooth="yes"/>
      <point x="243.49397590361446" y="378.3975903614458" type="line"/>
      <point x="387.73493975903614" y="378.3975903614458" type="line"/>
      <point x="387.73493975903614" y="490.566265060241" type="line"/>
      <point x="243.49397590361446" y="490.566265060241" type="line"/>
      <point x="243.49397590361446" y="635.0" type="line"/>
      <point x="92.49397590361446" y="635.0" type="line"/>
      <point x="92.49397590361446" y="490.566265060241" type="line"/>
      <point x="-0.5662650602409633" y="490.566265060241" type="line"/>
      <point x="-0.5662650602409633" y="378.3975903614458" type="line"/>
      <point x="92.49397590361446" y="378.3975903614458" type="line"/>
      <point x="92.49397590361446" y="189.8313253012048" type="line" smooth="yes"/>
      <point x="92.49397590361446" y="56.93975903614458"/>
      <point x="159.25301204819277" y="-10.626506024096384"/>
    </contour>
  </outline>
</glyph>
<glyph name="u" format="2">
  <advance width="589.6506024096386"/>
  <unicode hex="0075"/>
  <anchor x="294.32530120481925" y="0.0" name="bottom"/>
  <anchor x="485.26506024096386" y="0.0" name="ogonek"/>
  <anchor x="294.32530120481925" y="484.68674698795184" name="top"/>
  <anchor x="421.9397590361446" y="484.0" name="topright"/>
  <outline>
    <contour>
      <point x="238.86746987951807" y="-10.626506024096384" type="curve" smooth="yes"/>
      <point x="313.67469879518075" y="-10.626506024096384"/>
      <point x="369.855421686747" y="27.493975903614462"/>
      <point x="398.79518072289153" y="96.04819277108433" type="curve"/>
      <point x="383.855421686747" y="96.04819277108433" type="line"/>
      <point x="383.855421686747" y="0.0" type="line"/>
      <point x="531.2289156626506" y="0.0" type="line"/>
      <point x="531.2289156626506" y="490.566265060241" type="line"/>
      <point x="380.2289156626506" y="490.566265060241" type="line"/>
      <point x="380.2289156626506" y="216.81927710843374" type="line" smooth="yes"/>
      <point x="380.2289156626506" y="150.2168674698795"/>
      <point x="339.49397590361446" y="106.16867469879517"/>
      <point x="281.89156626506025" y="106.16867469879517" type="curve" smooth="yes"/>
      <point x="229.97590361445782" y="106.16867469879517"/>
      <point x="206.73493975903614" y="134.78313253012047"/>
      <point x="206.73493975903614" y="193.44578313253012" type="curve" smooth="yes"/>
      <point x="206.73493975903614" y="490.566265060241" type="line"/>
      <point x="55.73493975903614" y="490.566265060241" type="line"/>
      <point x="55.73493975903614" y="196.69879518072287" type="line" smooth="yes"/>
      <point x="55.73493975903614" y="58.31325301204819"/>
      <point x="114.36144578313252" y="-10.626506024096384"/>
    </contour>
  </outline>
</glyph>
<glyph name="v" format="2">
  <advance width="534.2048192771084"/>
  <unicode hex="0076"/>
  <anchor x="269.07228915662654" y="0.0" name="bottom"/>
  <anchor x="269.07228915662654" y="484.0" name="top"/>
  <outline>
    <contour>
      <point x="203.04819277108436" y="0.0" type="line"/>
      <point x="329.8433734939759" y="0.0" type="line"/>
      <point x="547.3493975903615" y="490.566265060241" type="line"/>
      <point x="397.9156626506024" y="490.566265060241" type="line"/>
      <point x="254.44578313253012" y="139.4457831325301" type="line"/>
      <point x="286.3253012048193" y="139.4457831325301" type="line"/>
      <point x="148.48192771084337" y="490.566265060241" type="line"/>
      <point x="-10.831325301204817" y="490.566265060241" type="line"/>
    </contour>
  </outline>
</glyph>
<glyph name="w" format="2">
  <advance width="860.5180722891566"/>
  <unicode hex="0077"/>
  <anchor x="430.7590361445783" y="0.0" name="bottom"/>
  <anchor x="430.7590361445783" y="484.0" name="top"/>
  <outline>
    <contour>
      <point x="196.55421686746988" y="0.0" type="line"/>
      <point x="324.03614457831327" y="0.0" type="line"/>
      <point x="460.578313253012" y="363.7469879518072" type="line"/>
      <point x="395.7469879518072" y="363.7469879518072" type="line"/>
      <point x="537.1686746987953" y="0.0" type="line"/>
      <point x="664.6506024096385" y="0.0" type="line"/>
      <point x="863.2289156626506" y="490.566265060241" type="line"/>
      <point x="718.421686746988" y="490.566265060241" type="line"/>
      <point x="591.5060240963855" y="145.63855421686745" type="line"/>
      <point x="610.9397590361446" y="145.63855421686745" type="line"/>
      <point x="483.71084337349396" y="490.566265060241" type="line"/>
      <point x="384.43373493975906" y="490.566265060241" type="line"/>
      <point x="256.144578313253" y="145.63855421686745" type="line"/>
      <point x="278.51807228915663" y="145.63855421686745" type="line"/>
      <point x="150.03614457831327" y="490.566265060241" type="line"/>
      <point x="-3.3373493975903585" y="490.566265060241" type="line"/>
    </contour>
  </outline>
</glyph>
<glyph name="x" format="2">
  <advance width="558.8433734939758"/>
  <unicode hex="0078"/>
  <anchor x="280.26506024096386" y="0.0" name="bottom"/>
  <anchor x="280.26506024096386" y="484.0" name="top"/>
  <outline>
    <contour>
      <point x="-13.024096385542165" y="0.0" type="line"/>
      <point x="162.73493975903614" y="0.0" type="line"/>
      <point x="305.27710843373495" y="181.03614457831324" type="line"/>
      <point x="253.87951807228916" y="181.03614457831324" type="line"/>
      <point x="397.10843373493975" y="0.0" type="line"/>
      <point x="573.8674698795181" y="0.0" type="line"/>
      <point x="337.9759036144578" y="286.5783132530121" type="line"/>
      <point x="337.9759036144578" y="218.9879518072289" type="line"/>
      <point x="560.2409638554217" y="490.566265060241" type="line"/>
      <point x="384.48192771084337" y="490.566265060241" type="line"/>
      <point x="253.87951807228916" y="322.53012048192767" type="line"/>
      <point x="306.65060240963857" y="322.53012048192767" type="line"/>
      <point x="176.04819277108433" y="490.566265060241" type="line"/>
      <point x="0.2891566265060277" y="490.566265060241" type="line"/>
      <point x="222.24096385542168" y="218.6144578313253" type="line"/>
      <point x="222.24096385542168" y="287.3253012048193" type="line"/>
    </contour>
  </outline>
</glyph>
<glyph name="y" format="2">
  <advance width="533.2048192771085"/>
  <unicode hex="0079"/>
  <anchor x="422.2168674698795" y="0.0" name="bottom"/>
  <anchor x="267.4457831325301" y="484.0" name="top"/>
  <outline>
    <contour>
      <point x="95.53012048192772" y="-180.0" type="line"/>
      <point x="249.90361445783134" y="-180.0" type="line"/>
      <point x="547.0361445783132" y="490.566265060241" type="line"/>
      <point x="396.91566265060237" y="490.566265060241" type="line"/>
      <point x="254.13253012048193" y="139.4457831325301" type="line"/>
      <point x="286.0120481927711" y="139.4457831325301" type="line"/>
      <point x="147.48192771084337" y="490.566265060241" type="line"/>
      <point x="-11.831325301204815" y="490.566265060241" type="line"/>
      <point x="204.10843373493978" y="-4.80722891566265" type="line"/>
      <point x="204.10843373493978" y="56.59036144578313" type="line"/>
    </contour>
  </outline>
</glyph>
<glyph name="z" format="2">
  <advance width="480.26506024096386"/>
  <unicode hex="007A"/>
  <anchor x="245.50602409638554" y="0.0" name="bottom"/>
  <anchor x="245.50602409638554" y="484.0" name="top"/>
  <outline>
    <contour>
      <point x="45.554216867469876" y="0.0" type="line"/>
      <point x="456.144578313253" y="0.0" type="line"/>
      <point x="456.144578313253" y="112.16867469879517" type="line"/>
      <point x="175.85542168674698" y="112.16867469879517" type="line"/>
      <point x="175.85542168674698" y="72.90361445783131" type="line"/>
      <point x="445.45783132530124" y="393.5903614457832" type="line"/>
      <point x="445.45783132530124" y="490.566265060241" type="line"/>
      <point x="45.554216867469876" y="490.566265060241" type="line"/>
      <point x="45.554216867469876" y="378.3975903614458" type="line"/>
      <point x="311.21686746987956" y="378.3975903614458" type="line"/>
      <point x="311.21686746987956" y="413.4096385542169" type="line"/>
      <point x="45.554216867469876" y="96.97590361445783" type="line"/>
    </contour>
  </outline>
</glyph>
<glyph name="braceright" format="2">
  <advance width="413.86746987951807"/>
  <unicode hex="007D"/>
  <outline>
    <contour>
      <point x="14.506024096385541" y="-180.0" type="line"/>
      <point x="139.5301204819277" y="-180.0" type="line" smooth="yes"/>
      <point x="223.42168674698794" y="-180.0"/>
      <point x="272.433734939759" y="-131.3012048192771"/>
      <point x="272.433734939759" y="-47.40963855421687" type="curve" smooth="yes"/>
      <point x="272.433734939759" y="126.54216867469881" type="line" smooth="yes"/>
      <point x="272.433734939759" y="179.60240963855424"/>
      <point x="288.49397590361446" y="199.97590361445785"/>
      <point x="332.9879518072289" y="204.28915662650604" type="curve" smooth="yes"/>
      <point x="374.0" y="207.91566265060243" type="line"/>
      <point x="374.0" y="316.45783132530124" type="line"/>
      <point x="332.9879518072289" y="320.08433734939763" type="line" smooth="yes"/>
      <point x="288.49397590361446" y="324.39759036144574"/>
      <point x="272.433734939759" y="344.7710843373494"/>
      <point x="272.433734939759" y="397.8313253012048" type="curve" smooth="yes"/>
      <point x="272.433734939759" y="572.4096385542169" type="line" smooth="yes"/>
      <point x="272.433734939759" y="656.301204819277"/>
      <point x="223.42168674698794" y="705.0"/>
      <point x="139.5301204819277" y="705.0" type="curve" smooth="yes"/>
      <point x="14.506024096385541" y="705.0" type="line"/>
      <point x="14.506024096385541" y="592.8313253012047" type="line"/>
      <point x="80.37349397590361" y="592.8313253012047" type="line" smooth="yes"/>
      <point x="109.06024096385542" y="592.8313253012047"/>
      <point x="121.43373493975903" y="579.4578313253012"/>
      <point x="121.43373493975903" y="549.4578313253012" type="curve" smooth="yes"/>
      <point x="121.43373493975903" y="379.3855421686747" type="line" smooth="yes"/>
      <point x="121.43373493975903" y="316.13253012048193"/>
      <point x="168.25301204819277" y="259.6867469879518"/>
      <point x="220.87951807228916" y="259.6867469879518" type="curve"/>
      <point x="220.87951807228916" y="263.6867469879518" type="line"/>
      <point x="168.25301204819277" y="263.6867469879518"/>
      <point x="121.43373493975903" y="207.9277108433735"/>
      <point x="121.43373493975903" y="144.9879518072289" type="curve" smooth="yes"/>
      <point x="121.43373493975903" y="-24.457831325301214" type="line" smooth="yes"/>
      <point x="121.43373493975903" y="-54.45783132530121"/>
      <point x="109.06024096385542" y="-67.83132530120483"/>
      <point x="80.37349397590361" y="-67.83132530120483" type="curve" smooth="yes"/>
      <point x="14.506024096385541" y="-67.83132530120483" type="line"/>
    </contour>
  </outline>
</glyph>
<glyph name="sterling" format="2">
  <advance width="600.0"/>
  <unicode hex="00A3"/>
  <outline>
    <contour>
      <point x="41.49397590361446" y="0.0" type="line"/>
      <point x="566.0120481927711" y="0.0" type="line"/>
      <point x="566.0120481927711" y="125.36144578313252" type="line"/>
      <point x="272.28915662650604" y="125.36144578313252" type="line"/>
      <point x="272.28915662650604" y="304.9879518072289" type="line"/>
      <point x="429.8313253012048" y="304.9879518072289" type="line"/>
      <point x="429.8313253012048" y="402.3855421686747" type="line"/>
      <point x="272.28915662650604" y="402.3855421686747" type="line"/>
      <point x="272.28915662650604" y="495.10843373493975" type="line" smooth="yes"/>
      <point x="272.28915662650604" y="557.3373493975904"/>
      <point x="303.5903614457831" y="593.2048192771085"/>
      <point x="375.3253012048193" y="593.2048192771085" type="curve" smooth="yes"/>
      <point x="424.7469879518072" y="593.2048192771085"/>
      <point x="479.6144578313253" y="577.3975903614459"/>
      <point x="529.433734939759" y="535.2168674698795" type="curve"/>
      <point x="580.3253012048192" y="645.7590361445783" type="line"/>
      <point x="528.0722891566265" y="689.5662650602409"/>
      <point x="446.13253012048193" y="715.6265060240964"/>
      <point x="364.93975903614455" y="715.6265060240964" type="curve" smooth="yes"/>
      <point x="197.1686746987952" y="715.6265060240964"/>
      <point x="117.03614457831327" y="623.6746987951808"/>
      <point x="117.03614457831327" y="488.855421686747" type="curve" smooth="yes"/>
      <point x="117.03614457831327" y="402.3855421686747" type="line"/>
      <point x="41.49397590361446" y="402.3855421686747" type="line"/>
      <point x="41.49397590361446" y="304.9879518072289" type="line"/>
      <point x="117.03614457831327" y="304.9879518072289" type="line"/>
      <point x="117.03614457831327" y="125.36144578313252" type="line"/>
      <point x="41.49397590361446" y="125.36144578313252" type="line"/>
    </contour>
  </outline>
</glyph>
<glyph name="section" format="2">
  <advance width="583.722891566265"/>
  <unicode hex="00A7"/>
  <outline>
    <contour>
      <point x="271.7710843373494" y="-190.6265060240964" type="curve" smooth="yes"/>
      <point x="417.28915662650604" y="-190.6265060240964"/>
      <point x="512.4819277108434" y="-119.06024096385542"/>
      <point x="512.4819277108434" y="-2.1807228915662664" type="curve" smooth="yes"/>
      <point x="512.4819277108434" y="42.445783132530124"/>
      <point x="495.6024096385542" y="79.57831325301206"/>
      <point x="466.27710843373495" y="106.02409638554217" type="curve"/>
      <point x="454.71084337349396" y="65.75903614457832" type="line"/>
      <point x="519.2289156626506" y="105.26506024096386"/>
      <point x="553.4819277108434" y="160.57831325301203"/>
      <point x="553.4819277108434" y="227.96385542168673" type="curve" smooth="yes"/>
      <point x="553.4819277108434" y="302.27710843373495"/>
      <point x="513.9759036144578" y="357.15662650602405"/>
      <point x="417.3614457831326" y="400.65060240963857" type="curve" smooth="yes"/>
      <point x="281.96385542168673" y="461.4096385542168" type="line" smooth="yes"/>
      <point x="232.48192771084337" y="483.96385542168673"/>
      <point x="215.73493975903614" y="506.5783132530121"/>
      <point x="215.73493975903614" y="538.6867469879518" type="curve" smooth="yes"/>
      <point x="215.73493975903614" y="584.9156626506024"/>
      <point x="253.4698795180723" y="611.277108433735"/>
      <point x="311.2048192771084" y="611.277108433735" type="curve" smooth="yes"/>
      <point x="365.6385542168675" y="611.277108433735"/>
      <point x="433.89156626506025" y="591.9036144578314"/>
      <point x="479.7710843373494" y="562.7831325301205" type="curve"/>
      <point x="519.156626506024" y="659.8192771084338" type="line"/>
      <point x="473.5903614457831" y="695.566265060241"/>
      <point x="399.0240963855422" y="715.6265060240964"/>
      <point x="310.5783132530121" y="715.6265060240964" type="curve" smooth="yes"/>
      <point x="167.12048192771084" y="715.6265060240964"/>
      <point x="71.9277108433735" y="644.0602409638553"/>
      <point x="71.9277108433735" y="527.1807228915662" type="curve" smooth="yes"/>
      <point x="71.9277108433735" y="481.2409638554217"/>
      <point x="88.80722891566265" y="445.4216867469879"/>
      <point x="118.13253012048192" y="418.9759036144578" type="curve"/>
      <point x="129.69879518072287" y="459.2409638554217" type="line"/>
      <point x="65.18072289156626" y="419.73493975903614"/>
      <point x="30.927710843373493" y="364.4216867469879"/>
      <point x="30.927710843373493" y="297.03614457831327" type="curve" smooth="yes"/>
      <point x="30.927710843373493" y="222.72289156626508"/>
      <point x="70.43373493975903" y="167.8433734939759"/>
      <point x="167.04819277108436" y="124.34939759036146" type="curve" smooth="yes"/>
      <point x="302.4457831325301" y="63.59036144578313" type="line" smooth="yes"/>
      <point x="351.9277108433735" y="41.036144578313255"/>
      <point x="368.6746987951807" y="18.421686746987955"/>
      <point x="368.6746987951807" y="-13.686746987951807" type="curve" smooth="yes"/>
      <point x="368.6746987951807" y="-60.60240963855422"/>
      <point x="330.9397590361446" y="-86.27710843373494"/>
      <point x="271.144578313253" y="-86.27710843373494" type="curve" smooth="yes"/>
      <point x="207.45783132530119" y="-86.27710843373494"/>
      <point x="130.63855421686745" y="-61.65060240963855"/>
      <point x="87.69879518072288" y="-30.21686746987952" type="curve"/>
      <point x="47.68674698795181" y="-130.56626506024097" type="line"/>
      <point x="97.50602409638554" y="-167.6265060240964"/>
      <point x="178.95180722891564" y="-190.6265060240964"/>
    </contour>
    <contour>
      <point x="163.85542168674698" y="325.3012048192771" type="curve" smooth="yes"/>
      <point x="163.85542168674698" y="349.54216867469876"/>
      <point x="173.28915662650604" y="373.72289156626505"/>
      <point x="192.7831325301205" y="395.4096385542169" type="curve"/>
      <point x="158.33734939759037" y="389.84337349397595" type="line"/>
      <point x="173.0843373493976" y="376.28915662650604"/>
      <point x="195.95180722891564" y="360.3614457831325"/>
      <point x="222.18072289156626" y="348.433734939759" type="curve" smooth="yes"/>
      <point x="340.26506024096386" y="294.67469879518075" type="line" smooth="yes"/>
      <point x="397.1807228915663" y="269.0602409638554"/>
      <point x="420.5542168674699" y="237.93975903614458"/>
      <point x="420.5542168674699" y="199.69879518072287" type="curve" smooth="yes"/>
      <point x="420.5542168674699" y="175.45783132530119"/>
      <point x="411.12048192771084" y="151.27710843373492"/>
      <point x="391.6265060240964" y="129.59036144578312" type="curve"/>
      <point x="426.0722891566265" y="135.15662650602408" type="line"/>
      <point x="411.32530120481925" y="148.710843373494"/>
      <point x="388.7710843373494" y="164.32530120481925"/>
      <point x="362.2289156626506" y="176.56626506024097" type="curve" smooth="yes"/>
      <point x="244.144578313253" y="230.32530120481925" type="line" smooth="yes"/>
      <point x="187.2289156626506" y="256.2530120481928"/>
      <point x="163.85542168674698" y="287.0602409638554"/>
    </contour>
  </outline>
</glyph>
<glyph name="ordfeminine" format="2">
  <advance width="346.20481927710847"/>
  <unicode hex="00AA"/>
  <outline>
    <contour>
      <point x="134.06024096385542" y="406.12048192771084" type="curve" smooth="yes"/>
      <point x="178.43373493975903" y="406.12048192771084"/>
      <point x="205.80722891566265" y="427.3734939759036"/>
      <point x="225.86746987951807" y="468.06024096385545" type="curve"/>
      <point x="228.18072289156626" y="468.06024096385545" type="line"/>
      <point x="228.18072289156626" y="412.7469879518072" type="line"/>
      <point x="318.33734939759034" y="412.7469879518072" type="line"/>
      <point x="318.33734939759034" y="593.1807228915663" type="line" smooth="yes"/>
      <point x="318.33734939759034" y="674.3734939759036"/>
      <point x="269.8313253012048" y="715.6265060240964"/>
      <point x="170.19277108433735" y="715.6265060240964" type="curve" smooth="yes"/>
      <point x="123.93975903614458" y="715.6265060240964"/>
      <point x="66.80722891566265" y="704.0"/>
      <point x="33.49397590361446" y="684.9397590361446" type="curve"/>
      <point x="56.0" y="619.1686746987951" type="line"/>
      <point x="88.62650602409639" y="636.5421686746988"/>
      <point x="130.56626506024097" y="645.2289156626506"/>
      <point x="162.0" y="645.2289156626506" type="curve" smooth="yes"/>
      <point x="205.12048192771084" y="645.2289156626506"/>
      <point x="223.9277108433735" y="630.4216867469879"/>
      <point x="223.9277108433735" y="597.8072289156626" type="curve" smooth="yes"/>
      <point x="223.9277108433735" y="539.8072289156627" type="line" smooth="yes"/>
      <point x="223.9277108433735" y="495.8192771084337"/>
      <point x="196.06024096385542" y="468.9518072289157"/>
      <point x="160.0722891566265" y="468.9518072289157" type="curve" smooth="yes"/>
      <point x="127.7710843373494" y="468.9518072289157"/>
      <point x="113.65060240963855" y="484.4457831325301"/>
      <point x="113.65060240963855" y="504.6265060240964" type="curve" smooth="yes"/>
      <point x="113.65060240963855" y="529.8072289156626"/>
      <point x="134.26506024096386" y="541.2409638554217"/>
      <point x="190.19277108433735" y="541.2409638554217" type="curve" smooth="yes"/>
      <point x="234.18072289156626" y="541.2409638554217" type="line"/>
      <point x="234.18072289156626" y="590.2530120481928" type="line"/>
      <point x="186.87951807228916" y="590.2530120481928" type="line" smooth="yes"/>
      <point x="72.98795180722892" y="590.2530120481928"/>
      <point x="18.554216867469883" y="565.2530120481928"/>
      <point x="18.554216867469883" y="502.3132530120482" type="curve" smooth="yes"/>
      <point x="18.554216867469883" y="447.06024096385545"/>
      <point x="65.18072289156628" y="406.12048192771084"/>
    </contour>
  </outline>
</glyph>
<glyph name="micro" format="2">
  <advance width="600.0"/>
  <unicode hex="00B5"/>
  <outline>
    <contour>
      <point x="63.096385542168676" y="-180.0" type="line"/>
      <point x="214.0963855421687" y="-180.0" type="line"/>
      <point x="202.21686746987953" y="41.28915662650603" type="line"/>
      <point x="198.66265060240966" y="41.28915662650603" type="line"/>
      <point x="216.4698795180723" y="4.120481927710844"/>
      <point x="243.89156626506022" y="-10.626506024096384"/>
      <point x="285.31325301204816" y="-10.626506024096384" type="curve" smooth="yes"/>
      <point x="334.1686746987952" y="-10.626506024096384"/>
      <point x="379.84337349397595" y="27.493975903614462"/>
      <point x="392.71084337349396" y="96.04819277108433" type="curve"/>
      <point x="391.2168674698795" y="96.04819277108433" type="line"/>
      <point x="391.2168674698795" y="0.0" type="line"/>
      <point x="538.5903614457832" y="0.0" type="line"/>
      <point x="538.5903614457832" y="490.566265060241" type="line"/>
      <point x="387.5903614457831" y="490.566265060241" type="line"/>
      <point x="387.5903614457831" y="217.50602409638554" type="line" smooth="yes"/>
      <point x="387.5903614457831" y="150.9036144578313"/>
      <point x="346.855421686747" y="107.54216867469879"/>
      <point x="288.56626506024094" y="107.54216867469879" type="curve" smooth="yes"/>
      <point x="237.33734939759037" y="107.54216867469879"/>
      <point x="214.0963855421687" y="135.46987951807228"/>
      <point x="214.0963855421687" y="194.13253012048193" type="curve" smooth="yes"/>
      <point x="214.0963855421687" y="490.566265060241" type="line"/>
      <point x="63.096385542168676" y="490.566265060241" type="line"/>
    </contour>
  </outline>
</glyph>
<glyph name="paragraph" format="2">
  <advance width="645.9879518072289"/>
  <unicode hex="00B6"/>
  <outline>
    <contour>
      <point x="251.81927710843374" y="-180.0" type="line"/>
      <point x="358.1686746987952" y="-180.0" type="line"/>
      <point x="358.1686746987952" y="600.0240963855422" type="line"/>
      <point x="468.90361445783134" y="600.0240963855422" type="line"/>
      <point x="468.90361445783134" y="-180.0" type="line"/>
      <point x="575.2530120481928" y="-180.0" type="line"/>
      <point x="575.2530120481928" y="705.0" type="line"/>
      <point x="254.44578313253012" y="705.0" type="line" smooth="yes"/>
      <point x="119.43373493975903" y="705.0"/>
      <point x="30.674698795180724" y="617.8072289156626"/>
      <point x="30.674698795180724" y="485.855421686747" type="curve" smooth="yes"/>
      <point x="30.674698795180724" y="353.5903614457832"/>
      <point x="119.43373493975903" y="265.3975903614458"/>
      <point x="251.81927710843374" y="265.3975903614458" type="curve"/>
    </contour>
  </outline>
</glyph>
<glyph name="ordmasculine" format="2">
  <advance width="361.45783132530124"/>
  <unicode hex="00BA"/>
  <outline>
    <contour>
      <point x="181.0722891566265" y="407.7469879518072" type="curve" smooth="yes"/>
      <point x="274.83132530120486" y="407.7469879518072"/>
      <point x="344.6506024096385" y="468.0602409638554"/>
      <point x="344.6506024096385" y="562.6867469879518" type="curve" smooth="yes"/>
      <point x="344.6506024096385" y="656.6265060240964"/>
      <point x="274.83132530120486" y="715.6265060240964"/>
      <point x="181.0722891566265" y="715.6265060240964" type="curve" smooth="yes"/>
      <point x="86.62650602409639" y="715.6265060240964"/>
      <point x="16.80722891566265" y="656.6265060240964"/>
      <point x="16.80722891566265" y="562.6867469879518" type="curve" smooth="yes"/>
      <point x="16.80722891566265" y="468.0602409638554"/>
      <point x="86.62650602409639" y="407.7469879518072"/>
    </contour>
    <contour>
      <point x="181.0722891566265" y="480.4578313253012" type="curve" smooth="yes"/>
      <point x="140.3975903614458" y="480.4578313253012"/>
      <point x="114.5301204819277" y="508.0120481927711"/>
      <point x="114.5301204819277" y="562.6867469879518" type="curve" smooth="yes"/>
      <point x="114.5301204819277" y="617.3614457831326"/>
      <point x="140.3975903614458" y="643.6024096385543"/>
      <point x="181.0722891566265" y="643.6024096385543" type="curve" smooth="yes"/>
      <point x="221.06024096385542" y="643.6024096385543"/>
      <point x="246.9277108433735" y="616.0481927710842"/>
      <point x="246.9277108433735" y="562.6867469879518" type="curve" smooth="yes"/>
      <point x="246.9277108433735" y="509.32530120481925"/>
      <point x="221.06024096385542" y="480.4578313253012"/>
    </contour>
  </outline>
</glyph>
<glyph name="questiondown" format="2">
  <advance width="468.39759036144574"/>
  <unicode hex="00BF"/>
  <outline>
    <contour>
      <point x="231.63855421686745" y="-190.6265060240964" type="curve" smooth="yes"/>
      <point x="318.0120481927711" y="-190.6265060240964"/>
      <point x="408.89156626506025" y="-161.87951807228916"/>
      <point x="467.3975903614458" y="-115.13253012048192" type="curve"/>
      <point x="417.50602409638554" y="-1.3373493975903656" type="line"/>
      <point x="362.81927710843377" y="-41.51807228915663"/>
      <point x="305.3855421686747" y="-61.638554216867476"/>
      <point x="242.45783132530119" y="-61.638554216867476" type="curve" smooth="yes"/>
      <point x="191.66265060240966" y="-61.638554216867476"/>
      <point x="163.67469879518072" y="-40.33734939759036"/>
      <point x="163.67469879518072" y="-4.91566265060241" type="curve" smooth="yes"/>
      <point x="163.67469879518072" y="22.69879518072289"/>
      <point x="175.73493975903614" y="44.31325301204819"/>
      <point x="214.0963855421687" y="79.42168674698794" type="curve" smooth="yes"/>
      <point x="267.3373493975904" y="127.84337349397589"/>
      <point x="284.7710843373494" y="172.33734939759034"/>
      <point x="284.7710843373494" y="225.51807228915663" type="curve" smooth="yes"/>
      <point x="284.7710843373494" y="267.1566265060241" type="line"/>
      <point x="195.36144578313255" y="267.1566265060241" type="line"/>
      <point x="189.73493975903617" y="238.96385542168673" type="line" smooth="yes"/>
      <point x="183.67469879518075" y="205.6024096385542"/>
      <point x="166.30120481927713" y="173.04819277108436"/>
      <point x="103.61445783132531" y="126.06024096385542" type="curve" smooth="yes"/>
      <point x="33.6144578313253" y="74.38554216867469"/>
      <point x="10.674698795180724" y="26.44578313253012"/>
      <point x="10.674698795180724" y="-30.240963855421686" type="curve" smooth="yes"/>
      <point x="10.674698795180724" y="-125.74698795180723"/>
      <point x="99.37349397590361" y="-190.6265060240964"/>
    </contour>
    <contour>
      <point x="159.28915662650604" y="330.26506024096386" type="line"/>
      <point x="320.8433734939759" y="330.26506024096386" type="line"/>
      <point x="320.8433734939759" y="490.566265060241" type="line"/>
      <point x="159.28915662650604" y="490.566265060241" type="line"/>
    </contour>
  </outline>
</glyph>
<glyph name="multiply" format="2">
  <advance width="600.0"/>
  <unicode hex="00D7"/>
  <outline>
    <contour>
      <point x="138.65060240963857" y="52.31325301204819" type="line"/>
      <point x="300.0" y="213.34939759036146" type="line"/>
      <point x="461.3493975903615" y="52.31325301204819" type="line"/>
      <point x="534.0" y="124.27710843373494" type="line"/>
      <point x="372.6506024096385" y="285.6265060240964" type="line"/>
      <point x="534.0" y="446.6626506024096" type="line"/>
      <point x="461.3493975903615" y="520.3132530120482" type="line"/>
      <point x="300.0" y="358.96385542168673" type="line"/>
      <point x="138.65060240963857" y="520.3132530120482" type="line"/>
      <point x="66.0" y="446.6626506024096" type="line"/>
      <point x="227.34939759036146" y="285.6265060240964" type="line"/>
      <point x="66.0" y="124.27710843373494" type="line"/>
    </contour>
  </outline>
</glyph>
<glyph name="germandbls" format="2">
  <advance width="675.867469879518"/>
  <unicode hex="00DF"/>
  <outline>
    <contour>
      <point x="455.421686746988" y="-10.626506024096384" type="curve" smooth="yes"/>
      <point x="578.433734939759" y="-10.626506024096384"/>
      <point x="657.9397590361446" y="54.87951807228915"/>
      <point x="657.9397590361446" y="156.5180722891566" type="curve" smooth="yes"/>
      <point x="657.9397590361446" y="229.144578313253"/>
      <point x="618.2530120481928" y="277.33734939759034"/>
      <point x="521.4457831325301" y="306.0843373493976" type="curve" smooth="yes"/>
      <point x="447.95180722891564" y="327.8313253012048"/>
      <point x="428.4578313253012" y="343.3253012048193"/>
      <point x="428.4578313253012" y="367.2530120481928" type="curve" smooth="yes"/>
      <point x="428.4578313253012" y="387.43373493975906"/>
      <point x="438.51807228915663" y="403.18072289156623"/>
      <point x="479.6385542168674" y="442.86746987951807" type="curve" smooth="yes"/>
      <point x="526.5060240963855" y="487.6144578313253"/>
      <point x="542.6265060240964" y="524.9277108433735"/>
      <point x="542.6265060240964" y="570.3614457831325" type="curve" smooth="yes"/>
      <point x="542.6265060240964" y="659.1204819277109"/>
      <point x="465.6144578313253" y="715.6265060240964"/>
      <point x="333.90361445783134" y="715.6265060240964" type="curve" smooth="yes"/>
      <point x="156.3734939759036" y="715.6265060240964"/>
      <point x="58.421686746987945" y="619.867469879518"/>
      <point x="58.421686746987945" y="446.1566265060241" type="curve" smooth="yes"/>
      <point x="58.421686746987945" y="0.0" type="line"/>
      <point x="209.42168674698794" y="0.0" type="line"/>
      <point x="209.42168674698794" y="470.7951807228916" type="line" smooth="yes"/>
      <point x="209.42168674698794" y="558.1566265060242"/>
      <point x="251.28915662650604" y="608.3373493975903"/>
      <point x="332.2771084337349" y="608.3373493975903" type="curve" smooth="yes"/>
      <point x="379.20481927710847" y="608.3373493975903"/>
      <point x="401.44578313253015" y="587.5301204819277"/>
      <point x="401.44578313253015" y="556.8554216867469" type="curve" smooth="yes"/>
      <point x="401.44578313253015" y="531.6746987951808"/>
      <point x="390.69879518072287" y="511.55421686746985"/>
      <point x="360.08433734939763" y="480.7469879518072" type="curve" smooth="yes"/>
      <point x="305.5903614457831" y="425.5542168674699"/>
      <point x="291.2168674698795" y="390.1807228915663"/>
      <point x="291.2168674698795" y="347.86746987951807" type="curve" smooth="yes"/>
      <point x="291.2168674698795" y="281.9277108433735"/>
      <point x="328.53012048192767" y="238.04819277108436"/>
      <point x="433.5903614457831" y="207.30120481927713" type="curve" smooth="yes"/>
      <point x="501.83132530120486" y="187.18072289156626"/>
      <point x="521.6987951807229" y="173.0"/>
      <point x="521.6987951807229" y="147.0120481927711" type="curve" smooth="yes"/>
      <point x="521.6987951807229" y="116.59036144578313"/>
      <point x="497.96385542168673" y="99.6024096385542"/>
      <point x="457.73493975903614" y="99.6024096385542" type="curve" smooth="yes"/>
      <point x="409.3614457831325" y="99.6024096385542"/>
      <point x="345.1686746987952" y="118.22891566265059"/>
      <point x="293.2289156626506" y="152.03614457831327" type="curve"/>
      <point x="252.21686746987953" y="51.74698795180723" type="line"/>
      <point x="303.72289156626505" y="12.060240963855422"/>
      <point x="380.91566265060237" y="-10.626506024096384"/>
    </contour>
  </outline>
</glyph>
<glyph name="ae" format="2">
  <advance width="867.5060240963855"/>
  <unicode hex="00E6"/>
  <anchor x="414.6867469879518" y="0.0" name="bottom"/>
  <anchor x="414.6867469879518" y="484.0" name="top"/>
  <outline>
    <contour>
      <point x="236.6265060240964" y="-10.626506024096384" type="curve" smooth="yes"/>
      <point x="335.0" y="-10.626506024096384"/>
      <point x="403.06024096385545" y="36.98795180722892"/>
      <point x="427.2530120481928" y="119.28915662650601" type="curve"/>
      <point x="402.6867469879518" y="119.28915662650601" type="line"/>
      <point x="437.81927710843377" y="32.554216867469876"/>
      <point x="522.8192771084338" y="-10.626506024096384"/>
      <point x="633.1927710843373" y="-10.626506024096384" type="curve" smooth="yes"/>
      <point x="703.4457831325301" y="-10.626506024096384"/>
      <point x="780.6987951807229" y="12.74698795180723"/>
      <point x="829.8915662650603" y="50.49397590361446" type="curve"/>
      <point x="790.1927710843373" y="151.4698795180723" type="line"/>
      <point x="745.7590361445783" y="119.28915662650601"/>
      <point x="690.8192771084337" y="101.9156626506024"/>
      <point x="637.0722891566264" y="101.9156626506024" type="curve" smooth="yes"/>
      <point x="542.3975903614457" y="101.9156626506024"/>
      <point x="501.03614457831327" y="148.08433734939757"/>
      <point x="501.03614457831327" y="251.87951807228916" type="curve" smooth="yes"/>
      <point x="501.03614457831327" y="258.87951807228916" type="line" smooth="yes"/>
      <point x="501.03614457831327" y="351.9879518072289"/>
      <point x="541.4578313253012" y="401.1566265060241"/>
      <point x="611.6867469879518" y="401.1566265060241" type="curve" smooth="yes"/>
      <point x="677.9156626506025" y="401.1566265060241"/>
      <point x="713.2168674698795" y="358.67469879518075"/>
      <point x="713.2168674698795" y="278.4457831325301" type="curve"/>
      <point x="728.2168674698795" y="292.1927710843373" type="line"/>
      <point x="492.03614457831327" y="292.1927710843373" type="line"/>
      <point x="492.03614457831327" y="214.24096385542168" type="line"/>
      <point x="837.8915662650603" y="214.24096385542168" type="line"/>
      <point x="837.8915662650603" y="250.80722891566265" type="line" smooth="yes"/>
      <point x="837.8915662650603" y="404.68674698795184"/>
      <point x="747.8192771084337" y="501.1927710843374"/>
      <point x="606.4939759036145" y="501.1927710843374" type="curve" smooth="yes"/>
      <point x="534.7469879518072" y="501.1927710843374"/>
      <point x="465.0722891566265" y="470.89156626506025"/>
      <point x="427.56626506024094" y="410.1566265060241" type="curve"/>
      <point x="459.6385542168675" y="410.1566265060241" type="line"/>
      <point x="430.56626506024094" y="472.89156626506025"/>
      <point x="365.12048192771084" y="501.1927710843374"/>
      <point x="276.2530120481928" y="501.1927710843374" type="curve" smooth="yes"/>
      <point x="202.3734939759036" y="501.1927710843374"/>
      <point x="107.42168674698794" y="476.2530120481928"/>
      <point x="56.421686746987945" y="440.566265060241" type="curve"/>
      <point x="97.12048192771084" y="339.90361445783134" type="line"/>
      <point x="155.43373493975903" y="374.65060240963857"/>
      <point x="216.25301204819277" y="389.65060240963857"/>
      <point x="270.3734939759036" y="389.65060240963857" type="curve" smooth="yes"/>
      <point x="331.3614457831325" y="389.65060240963857"/>
      <point x="356.9156626506024" y="366.3493975903615"/>
      <point x="356.9156626506024" y="310.3734939759036" type="curve" smooth="yes"/>
      <point x="356.9156626506024" y="197.49397590361446" type="line" smooth="yes"/>
      <point x="356.9156626506024" y="133.57831325301206"/>
      <point x="316.55421686746985" y="90.09638554216868"/>
      <point x="258.32530120481925" y="90.09638554216868" type="curve" smooth="yes"/>
      <point x="208.90361445783134" y="90.09638554216868"/>
      <point x="181.9156626506024" y="116.71084337349397"/>
      <point x="181.9156626506024" y="154.44578313253012" type="curve" smooth="yes"/>
      <point x="181.9156626506024" y="197.9277108433735"/>
      <point x="220.4698795180723" y="214.24096385542168"/>
      <point x="322.6024096385542" y="214.24096385542168" type="curve" smooth="yes"/>
      <point x="370.855421686747" y="214.24096385542168" type="line"/>
      <point x="370.855421686747" y="292.1927710843373" type="line"/>
      <point x="325.855421686747" y="292.1927710843373" type="line" smooth="yes"/>
      <point x="113.36144578313254" y="292.1927710843373"/>
      <point x="36.42168674698796" y="254.81927710843374"/>
      <point x="36.42168674698796" y="147.81927710843374" type="curve" smooth="yes"/>
      <point x="36.42168674698796" y="57.31325301204819"/>
      <point x="114.36144578313254" y="-10.626506024096384"/>
    </contour>
  </outline>
</glyph>
<glyph name="eth" format="2">
  <advance width="592.5301204819277"/>
  <unicode hex="00F0"/>
  <outline>
    <contour>
      <point x="288.0120481927711" y="-10.626506024096384" type="curve" smooth="yes"/>
      <point x="462.2168674698795" y="-10.626506024096384"/>
      <point x="560.5421686746988" y="102.81927710843372"/>
      <point x="560.5421686746988" y="290.1927710843374" type="curve" smooth="yes"/>
      <point x="560.5421686746988" y="409.16867469879514"/>
      <point x="507.10843373493975" y="524.6746987951807"/>
      <point x="407.09638554216866" y="606.1204819277109" type="curve"/>
      <point x="401.53012048192767" y="590.2409638554217" type="line"/>
      <point x="512.6626506024096" y="641.433734939759" type="line"/>
      <point x="477.78313253012044" y="716.2530120481928" type="line"/>
      <point x="320.0240963855422" y="643.433734939759" type="line"/>
      <point x="353.0843373493976" y="643.9397590361446" type="line"/>
      <point x="302.7590361445783" y="673.4457831325301"/>
      <point x="235.0" y="701.5060240963855"/>
      <point x="150.86746987951807" y="716.2530120481928" type="curve"/>
      <point x="124.42168674698796" y="620.2168674698795" type="line"/>
      <point x="166.28915662650604" y="611.7831325301205"/>
      <point x="201.21686746987953" y="599.2289156626506"/>
      <point x="232.10843373493978" y="586.3493975903615" type="curve"/>
      <point x="228.42168674698797" y="600.9759036144578" type="line"/>
      <point x="100.9277108433735" y="542.289156626506" type="line"/>
      <point x="135.80722891566265" y="467.4698795180723" type="line"/>
      <point x="316.0" y="550.6626506024097" type="line"/>
      <point x="293.86746987951807" y="551.6626506024096" type="line"/>
      <point x="364.49397590361446" y="504.6024096385542"/>
      <point x="419.4216867469879" y="426.18072289156623"/>
      <point x="419.0481927710843" y="324.08433734939763" type="curve"/>
      <point x="448.2409638554217" y="324.08433734939763" type="line"/>
      <point x="422.73493975903614" y="416.9397590361446"/>
      <point x="357.7469879518072" y="448.43373493975906"/>
      <point x="273.2530120481928" y="448.43373493975906" type="curve" smooth="yes"/>
      <point x="132.74698795180723" y="448.43373493975906"/>
      <point x="33.6144578313253" y="354.8072289156627"/>
      <point x="33.6144578313253" y="221.6867469879518" type="curve" smooth="yes"/>
      <point x="33.6144578313253" y="84.3132530120482"/>
      <point x="137.0" y="-10.626506024096384"/>
    </contour>
    <contour>
      <point x="293.5783132530121" y="103.54216867469879" type="curve" smooth="yes"/>
      <point x="226.289156626506" y="103.54216867469879"/>
      <point x="185.6144578313253" y="147.96385542168673"/>
      <point x="185.6144578313253" y="221.3734939759036" type="curve" smooth="yes"/>
      <point x="185.6144578313253" y="292.0963855421687"/>
      <point x="226.66265060240966" y="337.2048192771084"/>
      <point x="293.26506024096386" y="337.2048192771084" type="curve" smooth="yes"/>
      <point x="363.1807228915663" y="337.2048192771084"/>
      <point x="401.6024096385542" y="292.0963855421687"/>
      <point x="401.6024096385542" y="221.3734939759036" type="curve" smooth="yes"/>
      <point x="401.6024096385542" y="149.96385542168676"/>
      <point x="362.1807228915663" y="103.54216867469879"/>
    </contour>
  </outline>
</glyph>
<glyph name="divide" format="2">
  <advance width="600.0"/>
  <unicode hex="00F7"/>
  <outline>
    <contour>
      <point x="56.0" y="235.4819277108434" type="line"/>
      <point x="544.0" y="235.4819277108434" type="line"/>
      <point x="544.0" y="338.51807228915663" type="line"/>
      <point x="56.0" y="338.51807228915663" type="line"/>
    </contour>
    <contour>
      <point x="236.67469879518075" y="33.6144578313253" type="line"/>
      <point x="351.3253012048193" y="33.6144578313253" type="line"/>
      <point x="351.3253012048193" y="148.57831325301203" type="line"/>
      <point x="236.67469879518075" y="148.57831325301203" type="line"/>
    </contour>
    <contour>
      <point x="236.67469879518075" y="425.421686746988" type="line"/>
      <point x="351.3253012048193" y="425.421686746988" type="line"/>
      <point x="351.3253012048193" y="540.3855421686748" type="line"/>
      <point x="236.67469879518075" y="540.3855421686748" type="line"/>
    </contour>
  </outline>
</glyph>
<glyph name="thorn" format="2">
  <advance width="610.0240963855422"/>
  <unicode hex="00FE"/>
  <anchor x="306.95180722891564" y="0.0" name="bottom"/>
  <anchor x="306.95180722891564" y="484.0" name="top"/>
  <outline>
    <contour>
      <point x="58.421686746987945" y="-180.0" type="line"/>
      <point x="209.42168674698794" y="-180.0" type="line"/>
      <point x="209.42168674698794" y="91.5421686746988" type="line"/>
      <point x="197.42168674698794" y="91.5421686746988" type="line"/>
      <point x="218.10843373493975" y="30.86746987951807"/>
      <point x="284.1686746987952" y="-10.626506024096384"/>
      <point x="361.4096385542169" y="-10.626506024096384" type="curve" smooth="yes"/>
      <point x="489.4698795180723" y="-10.626506024096384"/>
      <point x="576.4096385542168" y="87.37349397590361"/>
      <point x="576.4096385542168" y="245.6265060240964" type="curve" smooth="yes"/>
      <point x="576.4096385542168" y="403.87951807228916"/>
      <point x="488.4698795180723" y="501.1927710843374"/>
      <point x="361.4096385542169" y="501.1927710843374" type="curve" smooth="yes"/>
      <point x="281.855421686747" y="501.1927710843374"/>
      <point x="215.48192771084337" y="458.3855421686747"/>
      <point x="196.10843373493975" y="394.4578313253012" type="curve"/>
      <point x="209.42168674698794" y="394.4578313253012" type="line"/>
      <point x="209.42168674698794" y="705.0" type="line"/>
      <point x="58.421686746987945" y="705.0" type="line"/>
    </contour>
    <contour>
      <point x="315.7590361445783" y="102.22891566265059" type="curve" smooth="yes"/>
      <point x="250.7831325301205" y="102.22891566265059"/>
      <point x="207.10843373493975" y="148.08433734939757"/>
      <point x="207.10843373493975" y="245.6265060240964" type="curve" smooth="yes"/>
      <point x="207.10843373493975" y="343.1686746987952"/>
      <point x="250.7831325301205" y="388.33734939759034"/>
      <point x="315.7590361445783" y="388.33734939759034" type="curve" smooth="yes"/>
      <point x="380.0481927710843" y="388.33734939759034"/>
      <point x="424.4096385542169" y="343.1686746987952"/>
      <point x="424.4096385542169" y="245.6265060240964" type="curve" smooth="yes"/>
      <point x="424.4096385542169" y="148.08433734939757"/>
      <point x="380.0481927710843" y="102.22891566265059"/>
    </contour>
  </outline>
</glyph>
<glyph name="dcroat" format="2">
  <advance width="610.0240963855422"/>
  <unicode hex="0111"/>
  <outline>
    <contour>
      <point x="249.3012048192771" y="-10.626506024096384" type="curve" smooth="yes"/>
      <point x="328.16867469879514" y="-10.626506024096384"/>
      <point x="393.91566265060237" y="31.867469879518076"/>
      <point x="413.28915662650604" y="95.54216867469879" type="curve"/>
      <point x="403.54216867469876" y="95.54216867469879" type="line"/>
      <point x="403.54216867469876" y="0.0" type="line"/>
      <point x="552.2891566265059" y="0.0" type="line"/>
      <point x="552.2891566265059" y="538.0481927710842" type="line"/>
      <point x="637.0963855421686" y="538.0481927710842" type="line"/>
      <point x="637.0963855421686" y="642.3373493975904" type="line"/>
      <point x="552.2891566265059" y="642.3373493975904" type="line"/>
      <point x="552.2891566265059" y="705.0" type="line"/>
      <point x="401.28915662650604" y="705.0" type="line"/>
      <point x="401.28915662650604" y="642.3373493975904" type="line"/>
      <point x="215.10843373493978" y="642.3373493975904" type="line"/>
      <point x="215.10843373493978" y="538.0481927710842" type="line"/>
      <point x="401.28915662650604" y="538.0481927710842" type="line"/>
      <point x="401.28915662650604" y="394.3855421686747" type="line"/>
      <point x="411.9759036144578" y="394.3855421686747" type="line"/>
      <point x="391.28915662650604" y="453.7469879518072"/>
      <point x="326.5421686746988" y="494.9277108433735"/>
      <point x="249.3012048192771" y="494.9277108433735" type="curve" smooth="yes"/>
      <point x="121.2409638554217" y="494.9277108433735"/>
      <point x="34.30120481927711" y="398.8674698795181"/>
      <point x="34.30120481927711" y="242.49397590361446" type="curve" smooth="yes"/>
      <point x="34.30120481927711" y="86.12048192771084"/>
      <point x="122.2409638554217" y="-10.626506024096384"/>
    </contour>
    <contour>
      <point x="294.95180722891564" y="102.22891566265059" type="curve" smooth="yes"/>
      <point x="229.97590361445782" y="102.22891566265059"/>
      <point x="186.3012048192771" y="148.08433734939757"/>
      <point x="186.3012048192771" y="242.49397590361446" type="curve" smooth="yes"/>
      <point x="186.3012048192771" y="336.90361445783134"/>
      <point x="229.97590361445782" y="382.0722891566265"/>
      <point x="294.95180722891564" y="382.0722891566265" type="curve" smooth="yes"/>
      <point x="359.2409638554217" y="382.0722891566265"/>
      <point x="403.6024096385542" y="336.90361445783134"/>
      <point x="403.6024096385542" y="242.49397590361446" type="curve" smooth="yes"/>
      <point x="403.6024096385542" y="148.08433734939757"/>
      <point x="359.2409638554217" y="102.22891566265059"/>
    </contour>
  </outline>
</glyph>
<glyph name="hbar" format="2">
  <advance width="595.3373493975903"/>
  <unicode hex="0127"/>
  <outline>
    <contour>
      <point x="58.421686746987945" y="0.0" type="line"/>
      <point x="209.42168674698794" y="0.0" type="line"/>
      <point x="209.42168674698794" y="267.79518072289153" type="line" smooth="yes"/>
      <point x="209.42168674698794" y="334.3975903614458"/>
      <point x="250.4698795180723" y="378.132530120482"/>
      <point x="313.7590361445783" y="378.132530120482" type="curve" smooth="yes"/>
      <point x="364.0481927710843" y="378.132530120482"/>
      <point x="388.60240963855426" y="349.83132530120486"/>
      <point x="388.60240963855426" y="281.66265060240966" type="curve" smooth="yes"/>
      <point x="388.60240963855426" y="0.0" type="line"/>
      <point x="539.6024096385543" y="0.0" type="line"/>
      <point x="539.6024096385543" y="288.28915662650604" type="line" smooth="yes"/>
      <point x="539.6024096385543" y="427.67469879518075"/>
      <point x="483.6024096385542" y="494.9277108433735"/>
      <point x="366.6024096385542" y="494.9277108433735" type="curve" smooth="yes"/>
      <point x="289.48192771084337" y="494.9277108433735"/>
      <point x="225.04819277108433" y="458.1807228915663"/>
      <point x="194.79518072289156" y="392.2530120481928" type="curve"/>
      <point x="209.42168674698794" y="392.2530120481928" type="line"/>
      <point x="209.42168674698794" y="538.0481927710842" type="line"/>
      <point x="395.6024096385542" y="538.0481927710842" type="line"/>
      <point x="395.6024096385542" y="642.3373493975904" type="line"/>
      <point x="209.42168674698794" y="642.3373493975904" type="line"/>
      <point x="209.42168674698794" y="705.0" type="line"/>
      <point x="58.421686746987945" y="705.0" type="line"/>
      <point x="58.421686746987945" y="642.3373493975904" type="line"/>
      <point x="-26.3855421686747" y="642.3373493975904" type="line"/>
      <point x="-26.3855421686747" y="538.0481927710842" type="line"/>
      <point x="58.421686746987945" y="538.0481927710842" type="line"/>
    </contour>
  </outline>
</glyph>
<glyph name="Eng" format="2">
  <advance width="752.6987951807229"/>
  <unicode hex="014A"/>
  <anchor x="376.50602409638554" y="0.0" name="bottom"/>
  <anchor x="376.1927710843373" y="705.0" name="top"/>
  <outline>
    <contour>
      <point x="426.0481927710843" y="-193.0" type="line"/>
      <point x="470.04819277108436" y="-190.0" type="line" smooth="yes"/>
      <point x="625.710843373494" y="-179.06024096385542"/>
      <point x="681.9638554216867" y="-121.37349397590361"/>
      <point x="681.9638554216867" y="18.39759036144578" type="curve" smooth="yes"/>
      <point x="681.9638554216867" y="705.0" type="line"/>
      <point x="537.5903614457832" y="705.0" type="line"/>
      <point x="537.5903614457832" y="221.6024096385542" type="line"/>
      <point x="564.843373493976" y="221.6024096385542" type="line"/>
      <point x="185.84337349397592" y="705.0" type="line"/>
      <point x="70.73493975903614" y="705.0" type="line"/>
      <point x="70.73493975903614" y="0.0" type="line"/>
      <point x="215.10843373493975" y="0.0" type="line"/>
      <point x="215.10843373493975" y="484.0843373493977" type="line"/>
      <point x="188.5421686746988" y="484.0843373493977" type="line"/>
      <point x="567.5421686746987" y="0.0" type="line"/>
      <point x="537.9036144578314" y="58.83132530120482" type="line"/>
      <point x="537.9036144578314" y="-2.3012048192771104" type="line" smooth="yes"/>
      <point x="537.9036144578314" y="-50.78313253012049"/>
      <point x="514.0361445783133" y="-74.3975903614458"/>
      <point x="466.3614457831325" y="-79.77108433734941" type="curve" smooth="yes"/>
      <point x="416.1686746987952" y="-85.0843373493976" type="line"/>
    </contour>
  </outline>
</glyph>
<glyph name="eng" format="2">
  <advance width="595.3373493975903"/>
  <unicode hex="014B"/>
  <outline>
    <contour>
      <point x="283.6867469879518" y="-193.0" type="line"/>
      <point x="327.68674698795184" y="-190.0" type="line" smooth="yes"/>
      <point x="483.34939759036143" y="-179.06024096385542"/>
      <point x="539.6024096385543" y="-121.37349397590361"/>
      <point x="539.6024096385543" y="18.39759036144578" type="curve" smooth="yes"/>
      <point x="539.6024096385543" y="294.5542168674699" type="line" smooth="yes"/>
      <point x="539.6024096385543" y="434.6265060240964"/>
      <point x="483.6024096385542" y="501.1927710843374"/>
      <point x="366.6024096385542" y="501.1927710843374" type="curve" smooth="yes"/>
      <point x="289.48192771084337" y="501.1927710843374"/>
      <point x="225.04819277108433" y="464.44578313253015"/>
      <point x="194.79518072289156" y="398.51807228915663" type="curve"/>
      <point x="205.79518072289156" y="398.51807228915663" type="line"/>
      <point x="205.79518072289156" y="490.566265060241" type="line"/>
      <point x="58.421686746987945" y="490.566265060241" type="line"/>
      <point x="58.421686746987945" y="0.0" type="line"/>
      <point x="209.42168674698794" y="0.0" type="line"/>
      <point x="209.42168674698794" y="274.0602409638554" type="line" smooth="yes"/>
      <point x="209.42168674698794" y="340.6626506024096"/>
      <point x="250.4698795180723" y="384.3975903614458"/>
      <point x="313.7590361445783" y="384.3975903614458" type="curve" smooth="yes"/>
      <point x="364.0481927710843" y="384.3975903614458"/>
      <point x="388.60240963855426" y="356.0963855421687"/>
      <point x="388.60240963855426" y="287.9277108433735" type="curve" smooth="yes"/>
      <point x="388.60240963855426" y="-2.3012048192771104" type="line" smooth="yes"/>
      <point x="388.60240963855426" y="-50.78313253012049"/>
      <point x="367.3614457831325" y="-74.3975903614458"/>
      <point x="320.3734939759036" y="-79.77108433734941" type="curve" smooth="yes"/>
      <point x="273.8072289156627" y="-85.0843373493976" type="line"/>
    </contour>
  </outline>
</glyph>
<glyph name="oe" format="2">
  <advance width="917.1325301204819"/>
  <unicode hex="0153"/>
  <anchor x="476.44578313253015" y="0.0" name="bottom"/>
  <anchor x="476.44578313253015" y="484.0" name="top"/>
  <outline>
    <contour>
      <point x="289.3253012048193" y="-10.626506024096384" type="curve" smooth="yes"/>
      <point x="383.13253012048193" y="-10.626506024096384"/>
      <point x="453.1927710843374" y="31.048192771084338"/>
      <point x="493.6385542168675" y="102.21686746987952" type="curve"/>
      <point x="460.7590361445783" y="102.21686746987952" type="line"/>
      <point x="498.4578313253012" y="29.987951807228917"/>
      <point x="577.9518072289156" y="-10.626506024096384"/>
      <point x="682.8192771084338" y="-10.626506024096384" type="curve" smooth="yes"/>
      <point x="753.1325301204819" y="-10.626506024096384"/>
      <point x="830.3253012048193" y="12.74698795180723"/>
      <point x="879.5180722891566" y="50.49397590361446" type="curve"/>
      <point x="839.8192771084338" y="151.4698795180723" type="line"/>
      <point x="795.3855421686746" y="119.28915662650601"/>
      <point x="739.8192771084337" y="101.9156626506024"/>
      <point x="687.3253012048193" y="101.9156626506024" type="curve" smooth="yes"/>
      <point x="591.9036144578313" y="101.9156626506024"/>
      <point x="550.9759036144578" y="149.45783132530119"/>
      <point x="550.9759036144578" y="251.56626506024097" type="curve" smooth="yes"/>
      <point x="550.9759036144578" y="259.1927710843373" type="line" smooth="yes"/>
      <point x="550.9759036144578" y="353.0481927710843"/>
      <point x="591.710843373494" y="401.1566265060241"/>
      <point x="661.9397590361446" y="401.1566265060241" type="curve" smooth="yes"/>
      <point x="726.8554216867469" y="401.1566265060241"/>
      <point x="763.4698795180723" y="358.67469879518075"/>
      <point x="763.4698795180723" y="278.44578313253015" type="curve"/>
      <point x="779.156626506024" y="290.81927710843377" type="line"/>
      <point x="530.9759036144578" y="290.81927710843377" type="line"/>
      <point x="530.9759036144578" y="212.86746987951807" type="line"/>
      <point x="887.5180722891566" y="212.86746987951807" type="line"/>
      <point x="887.5180722891566" y="250.80722891566265" type="line" smooth="yes"/>
      <point x="887.5180722891566" y="405.6265060240964"/>
      <point x="798.0722891566264" y="501.1927710843374"/>
      <point x="656.1204819277108" y="501.1927710843374" type="curve" smooth="yes"/>
      <point x="569.8192771084338" y="501.1927710843374"/>
      <point x="498.89156626506025" y="458.65060240963857"/>
      <point x="462.1927710843373" y="395.5421686746988" type="curve"/>
      <point x="493.0120481927711" y="395.5421686746988" type="line"/>
      <point x="452.566265060241" y="463.144578313253"/>
      <point x="382.81927710843377" y="501.1927710843374"/>
      <point x="289.3253012048193" y="501.1927710843374" type="curve" smooth="yes"/>
      <point x="133.3734939759036" y="501.1927710843374"/>
      <point x="33.6144578313253" y="402.87951807228916"/>
      <point x="33.6144578313253" y="247.25301204819277" type="curve" smooth="yes"/>
      <point x="33.6144578313253" y="90.0"/>
      <point x="133.3734939759036" y="-10.626506024096384"/>
    </contour>
    <contour>
      <point x="294.5783132530121" y="102.22891566265059" type="curve" smooth="yes"/>
      <point x="230.28915662650604" y="102.22891566265059"/>
      <point x="185.6144578313253" y="149.3975903614458"/>
      <point x="185.6144578313253" y="245.93975903614458" type="curve" smooth="yes"/>
      <point x="185.6144578313253" y="342.16867469879514"/>
      <point x="229.289156626506" y="388.33734939759034"/>
      <point x="294.26506024096386" y="388.33734939759034" type="curve" smooth="yes"/>
      <point x="358.55421686746985" y="388.33734939759034"/>
      <point x="402.9156626506024" y="342.16867469879514"/>
      <point x="402.9156626506024" y="245.93975903614458" type="curve" smooth="yes"/>
      <point x="402.9156626506024" y="149.3975903614458"/>
      <point x="359.5542168674699" y="102.22891566265059"/>
    </contour>
  </outline>
</glyph>
<glyph name="Yhook" format="2">
  <advance width="644.3734939759036"/>
  <unicode hex="01B3"/>
  <outline>
    <contour>
      <point x="237.7951807228916" y="0.0" type="line"/>
      <point x="393.0481927710843" y="0.0" type="line"/>
      <point x="393.0481927710843" y="361.7469879518072" type="line"/>
      <point x="361.72289156626505" y="272.5301204819277" type="line"/>
      <point x="557.5903614457831" y="557.3373493975903" type="line" smooth="yes"/>
      <point x="581.3373493975904" y="591.0843373493975"/>
      <point x="611.277108433735" y="603.7710843373494"/>
      <point x="642.6506024096386" y="603.7710843373494" type="curve" smooth="yes"/>
      <point x="663.6506024096385" y="603.7710843373494"/>
      <point x="677.9638554216867" y="602.0843373493976"/>
      <point x="692.277108433735" y="597.0843373493976" type="curve"/>
      <point x="692.277108433735" y="702.3734939759037" type="line"/>
      <point x="674.9638554216867" y="710.0"/>
      <point x="644.2650602409639" y="714.6265060240964"/>
      <point x="615.6987951807229" y="714.6265060240964" type="curve" smooth="yes"/>
      <point x="528.9879518072289" y="714.6265060240964"/>
      <point x="471.66265060240966" y="681.8072289156627"/>
      <point x="425.4698795180723" y="614.1084337349397" type="curve" smooth="yes"/>
      <point x="302.3855421686747" y="433.34939759036143" type="line"/>
      <point x="333.7710843373494" y="433.34939759036143" type="line"/>
      <point x="146.18072289156626" y="705.0" type="line"/>
      <point x="-33.51807228915662" y="705.0" type="line"/>
      <point x="269.8072289156627" y="272.5301204819277" type="line"/>
      <point x="237.7951807228916" y="361.7469879518072" type="line"/>
    </contour>
  </outline>
</glyph>
<glyph name="yhook" format="2">
  <advance width="582.9036144578313"/>
  <unicode hex="01B4"/>
  <outline>
    <contour>
      <point x="352.09638554216866" y="378.04819277108436" type="curve" smooth="yes"/>
      <point x="254.13253012048193" y="139.4457831325301" type="line"/>
      <point x="286.0120481927711" y="139.4457831325301" type="line"/>
      <point x="147.48192771084337" y="490.566265060241" type="line"/>
      <point x="-11.831325301204815" y="490.566265060241" type="line"/>
      <point x="204.10843373493978" y="-4.80722891566265" type="line"/>
      <point x="204.10843373493978" y="56.59036144578313" type="line"/>
      <point x="95.53012048192772" y="-180.0" type="line"/>
      <point x="249.90361445783134" y="-180.0" type="line"/>
      <point x="469.144578313253" y="316.5301204819277" type="line" smooth="yes"/>
      <point x="490.89156626506025" y="365.0843373493976"/>
      <point x="518.1445783132531" y="384.0843373493976"/>
      <point x="553.2650602409639" y="384.0843373493976" type="curve" smooth="yes"/>
      <point x="566.5783132530121" y="384.0843373493976"/>
      <point x="578.9518072289156" y="383.3975903614458"/>
      <point x="592.5783132530121" y="378.3975903614458" type="curve"/>
      <point x="611.710843373494" y="488.6265060240964" type="line"/>
      <point x="595.3975903614457" y="496.2530120481928"/>
      <point x="562.6987951807229" y="501.1927710843374"/>
      <point x="533.5060240963855" y="501.1927710843374" type="curve" smooth="yes"/>
      <point x="433.10843373493975" y="501.1927710843374"/>
      <point x="382.3493975903615" y="452.18072289156623"/>
    </contour>
  </outline>
</glyph>
<glyph name="gstroke" format="2">
  <advance width="614.6506024096386"/>
  <unicode hex="01E5"/>
  <outline>
    <contour>
      <point x="294.2530120481928" y="-190.6265060240964" type="curve" smooth="yes"/>
      <point x="426.710843373494" y="-190.6265060240964"/>
      <point x="511.28915662650604" y="-140.49397590361446"/>
      <point x="543.2289156626506" y="-39.168674698795186" type="curve"/>
      <point x="524.9879518072289" y="-49.48192771084338" type="line"/>
      <point x="610.5301204819277" y="-49.48192771084338" type="line"/>
      <point x="610.5301204819277" y="28.831325301204817" type="line"/>
      <point x="544.7951807228916" y="28.831325301204817" type="line"/>
      <point x="552.1686746987953" y="2.3493975903614412" type="line"/>
      <point x="554.855421686747" y="20.66265060240963"/>
      <point x="556.2289156626506" y="37.53012048192771"/>
      <point x="556.2289156626506" y="57.14457831325301" type="curve" smooth="yes"/>
      <point x="556.2289156626506" y="490.566265060241" type="line"/>
      <point x="408.855421686747" y="490.566265060241" type="line"/>
      <point x="408.855421686747" y="397.08433734939763" type="line"/>
      <point x="417.16867469879514" y="399.5903614457832" type="line"/>
      <point x="397.2289156626506" y="460.6385542168675"/>
      <point x="329.54216867469876" y="501.1927710843374"/>
      <point x="252.9277108433735" y="501.1927710843374" type="curve" smooth="yes"/>
      <point x="122.55421686746989" y="501.1927710843374"/>
      <point x="33.6144578313253" y="407.3253012048193"/>
      <point x="33.6144578313253" y="274.7590361445783" type="curve" smooth="yes"/>
      <point x="33.6144578313253" y="142.50602409638554"/>
      <point x="122.55421686746989" y="48.95180722891566"/>
      <point x="252.9277108433735" y="48.95180722891566" type="curve" smooth="yes"/>
      <point x="329.54216867469876" y="48.95180722891566"/>
      <point x="397.2289156626506" y="89.19277108433735"/>
      <point x="417.16867469879514" y="149.6144578313253" type="curve"/>
      <point x="409.16867469879514" y="149.6144578313253" type="line"/>
      <point x="409.16867469879514" y="34.0" type="line" smooth="yes"/>
      <point x="409.16867469879514" y="20.50602409638554"/>
      <point x="408.1686746987952" y="10.44578313253012"/>
      <point x="405.7951807228916" y="-0.6746987951807242" type="curve"/>
      <point x="418.67469879518075" y="28.831325301204817" type="line"/>
      <point x="284.10843373493975" y="28.831325301204817" type="line"/>
      <point x="284.10843373493975" y="-49.48192771084338" type="line"/>
      <point x="398.86746987951807" y="-49.48192771084338" type="line"/>
      <point x="389.4216867469879" y="-40.79518072289157" type="line"/>
      <point x="368.67469879518075" y="-69.60240963855422"/>
      <point x="333.2409638554217" y="-83.72289156626506"/>
      <point x="280.8072289156627" y="-83.72289156626506" type="curve" smooth="yes"/>
      <point x="220.56626506024097" y="-83.72289156626506"/>
      <point x="148.6144578313253" y="-63.8433734939759"/>
      <point x="95.43373493975903" y="-27.469879518072293" type="curve"/>
      <point x="54.10843373493976" y="-129.19277108433735" type="line"/>
      <point x="115.04819277108433" y="-171.56626506024097"/>
      <point x="199.80722891566265" y="-190.6265060240964"/>
    </contour>
    <contour>
      <point x="296.578313253012" y="160.55421686746988" type="curve" smooth="yes"/>
      <point x="231.66265060240966" y="160.55421686746988"/>
      <point x="185.6144578313253" y="204.46987951807228"/>
      <point x="185.6144578313253" y="274.13253012048193" type="curve" smooth="yes"/>
      <point x="185.6144578313253" y="343.7951807228916"/>
      <point x="230.34939759036143" y="388.33734939759034"/>
      <point x="296.578313253012" y="388.33734939759034" type="curve" smooth="yes"/>
      <point x="362.8072289156626" y="388.33734939759034"/>
      <point x="406.855421686747" y="343.10843373493975"/>
      <point x="406.855421686747" y="274.13253012048193" type="curve" smooth="yes"/>
      <point x="406.855421686747" y="205.7831325301205"/>
      <point x="361.8072289156627" y="160.55421686746988"/>
    </contour>
  </outline>
</glyph>
<glyph name="bhook" format="2">
  <advance width="610.0240963855422"/>
  <unicode hex="0253"/>
  <outline>
    <contour>
      <point x="361.4096385542169" y="-10.626506024096384" type="curve" smooth="yes"/>
      <point x="488.4698795180723" y="-10.626506024096384"/>
      <point x="576.4096385542168" y="87.37349397590361"/>
      <point x="576.4096385542168" y="245.6265060240964" type="curve" smooth="yes"/>
      <point x="576.4096385542168" y="403.87951807228916"/>
      <point x="489.4698795180723" y="501.1927710843374"/>
      <point x="361.4096385542169" y="501.1927710843374" type="curve" smooth="yes"/>
      <point x="284.1686746987952" y="501.1927710843374"/>
      <point x="218.10843373493975" y="459.6987951807229"/>
      <point x="197.42168674698794" y="399.71084337349396" type="curve"/>
      <point x="209.42168674698794" y="399.71084337349396" type="line"/>
      <point x="209.42168674698794" y="506.9036144578314" type="line" smooth="yes"/>
      <point x="209.42168674698794" y="565.3975903614457"/>
      <point x="235.85542168674698" y="597.8313253012049"/>
      <point x="286.78313253012044" y="597.8313253012049" type="curve" smooth="yes"/>
      <point x="300.7831325301205" y="597.8313253012049"/>
      <point x="310.4096385542168" y="596.8313253012049"/>
      <point x="326.7831325301205" y="592.8313253012047" type="curve"/>
      <point x="343.6024096385542" y="704.6867469879519" type="line"/>
      <point x="324.6626506024096" y="711.3132530120482"/>
      <point x="294.9036144578313" y="715.6265060240964"/>
      <point x="272.96385542168673" y="715.6265060240964" type="curve" smooth="yes"/>
      <point x="129.74698795180723" y="715.6265060240964"/>
      <point x="58.421686746987945" y="635.0481927710844"/>
      <point x="58.421686746987945" y="508.8433734939759" type="curve" smooth="yes"/>
      <point x="58.421686746987945" y="0.0" type="line"/>
      <point x="205.79518072289156" y="0.0" type="line"/>
      <point x="205.79518072289156" y="96.79518072289156" type="line"/>
      <point x="196.10843373493975" y="96.79518072289156" type="line"/>
      <point x="215.48192771084337" y="32.18072289156627"/>
      <point x="281.855421686747" y="-10.626506024096384"/>
    </contour>
    <contour>
      <point x="315.7590361445783" y="102.22891566265059" type="curve" smooth="yes"/>
      <point x="250.7831325301205" y="102.22891566265059"/>
      <point x="207.10843373493975" y="148.08433734939757"/>
      <point x="207.10843373493975" y="245.6265060240964" type="curve" smooth="yes"/>
      <point x="207.10843373493975" y="343.1686746987952"/>
      <point x="250.7831325301205" y="388.33734939759034"/>
      <point x="315.7590361445783" y="388.33734939759034" type="curve" smooth="yes"/>
      <point x="380.0481927710843" y="388.33734939759034"/>
      <point x="424.4096385542169" y="343.1686746987952"/>
      <point x="424.4096385542169" y="245.6265060240964" type="curve" smooth="yes"/>
      <point x="424.4096385542169" y="148.08433734939757"/>
      <point x="380.0481927710843" y="102.22891566265059"/>
    </contour>
  </outline>
</glyph>
<glyph name="dhook" format="2">
  <advance width="610.0240963855422"/>
  <unicode hex="0257"/>
  <outline>
    <contour>
      <point x="248.61445783132527" y="-10.626506024096384" type="curve" smooth="yes"/>
      <point x="327.48192771084337" y="-10.626506024096384"/>
      <point x="393.855421686747" y="32.18072289156627"/>
      <point x="413.2289156626506" y="96.79518072289156" type="curve"/>
      <point x="404.2289156626506" y="96.79518072289156" type="line"/>
      <point x="404.2289156626506" y="0.0" type="line"/>
      <point x="551.6024096385541" y="0.0" type="line"/>
      <point x="551.6024096385541" y="506.9036144578314" type="line" smooth="yes"/>
      <point x="551.6024096385541" y="573.277108433735"/>
      <point x="584.289156626506" y="597.8313253012049"/>
      <point x="628.9638554216867" y="597.8313253012049" type="curve" smooth="yes"/>
      <point x="642.9638554216867" y="597.8313253012049"/>
      <point x="652.5903614457832" y="596.8313253012049"/>
      <point x="668.9638554216867" y="592.8313253012047" type="curve"/>
      <point x="685.7831325301205" y="704.6867469879519" type="line"/>
      <point x="668.156626506024" y="711.3132530120482"/>
      <point x="637.0843373493976" y="715.6265060240964"/>
      <point x="615.144578313253" y="715.6265060240964" type="curve" smooth="yes"/>
      <point x="471.92771084337346" y="715.6265060240964"/>
      <point x="400.6024096385542" y="635.0481927710844"/>
      <point x="400.6024096385542" y="508.8433734939759" type="curve" smooth="yes"/>
      <point x="400.6024096385542" y="399.71084337349396" type="line"/>
      <point x="411.91566265060237" y="399.71084337349396" type="line"/>
      <point x="391.2289156626506" y="459.6987951807229"/>
      <point x="325.855421686747" y="501.1927710843374"/>
      <point x="248.61445783132527" y="501.1927710843374" type="curve" smooth="yes"/>
      <point x="120.55421686746989" y="501.1927710843374"/>
      <point x="33.6144578313253" y="403.87951807228916"/>
      <point x="33.6144578313253" y="245.6265060240964" type="curve" smooth="yes"/>
      <point x="33.6144578313253" y="87.37349397590361"/>
      <point x="121.55421686746989" y="-10.626506024096384"/>
    </contour>
    <contour>
      <point x="294.26506024096386" y="102.22891566265059" type="curve" smooth="yes"/>
      <point x="229.289156626506" y="102.22891566265059"/>
      <point x="185.6144578313253" y="148.08433734939757"/>
      <point x="185.6144578313253" y="245.6265060240964" type="curve" smooth="yes"/>
      <point x="185.6144578313253" y="343.1686746987952"/>
      <point x="229.289156626506" y="388.33734939759034"/>
      <point x="294.26506024096386" y="388.33734939759034" type="curve" smooth="yes"/>
      <point x="358.55421686746985" y="388.33734939759034"/>
      <point x="402.9156626506024" y="343.1686746987952"/>
      <point x="402.9156626506024" y="245.6265060240964" type="curve" smooth="yes"/>
      <point x="402.9156626506024" y="148.08433734939757"/>
      <point x="358.55421686746985" y="102.22891566265059"/>
    </contour>
  </outline>
</glyph>
<glyph name="schwa" format="2">
  <advance width="549.2650602409639"/>
  <unicode hex="0259"/>
  <outline>
    <contour>
      <point x="267.7590361445783" y="-10.626506024096384" type="curve" smooth="yes"/>
      <point x="410.89156626506025" y="-10.626506024096384"/>
      <point x="515.6506024096385" y="92.62650602409639"/>
      <point x="515.6506024096385" y="246.0" type="curve" smooth="yes"/>
      <point x="515.6506024096385" y="401.9397590361446"/>
      <point x="409.578313253012" y="501.1927710843374"/>
      <point x="242.25301204819277" y="501.1927710843374" type="curve" smooth="yes"/>
      <point x="170.6265060240964" y="501.1927710843374"/>
      <point x="94.06024096385542" y="480.13253012048193"/>
      <point x="37.6144578313253" y="440.7590361445783" type="curve"/>
      <point x="77.3132530120482" y="339.7831325301205" type="line"/>
      <point x="129.0" y="371.96385542168673"/>
      <point x="185.25301204819277" y="388.65060240963857"/>
      <point x="237.6867469879518" y="388.65060240963857" type="curve" smooth="yes"/>
      <point x="326.48192771084337" y="388.65060240963857"/>
      <point x="374.1566265060241" y="343.1686746987952"/>
      <point x="374.1566265060241" y="240.3734939759036" type="curve" smooth="yes"/>
      <point x="374.1566265060241" y="233.06024096385542" type="line" smooth="yes"/>
      <point x="374.1566265060241" y="137.83132530120483"/>
      <point x="329.79518072289153" y="89.40963855421687"/>
      <point x="261.31325301204816" y="89.40963855421687" type="curve" smooth="yes"/>
      <point x="196.90361445783134" y="89.40963855421687"/>
      <point x="159.6024096385542" y="129.14457831325302"/>
      <point x="159.6024096385542" y="214.18072289156626" type="curve"/>
      <point x="139.289156626506" y="199.74698795180723" type="line"/>
      <point x="391.1566265060241" y="199.74698795180723" type="line"/>
      <point x="391.1566265060241" y="277.6987951807229" type="line"/>
      <point x="29.614457831325304" y="277.6987951807229" type="line"/>
      <point x="29.614457831325304" y="241.13253012048193" type="line" smooth="yes"/>
      <point x="29.614457831325304" y="79.3132530120482"/>
      <point x="119.06024096385542" y="-10.626506024096384"/>
    </contour>
  </outline>
</glyph>
<glyph name="circumflexcomb" format="2">
  <unicode hex="0302"/>
  <anchor x="0.0" y="484.0" name="_top"/>
  <anchor x="0.0" y="685.0" name="top"/>
  <outline>
    <contour>
      <point x="-175.02409638554215" y="555.2530120481928" type="line"/>
      <point x="-81.2409638554217" y="555.2530120481928" type="line"/>
      <point x="0.0" y="678.1686746987951" type="line"/>
      <point x="81.2409638554217" y="555.2530120481928" type="line"/>
      <point x="175.02409638554215" y="555.2530120481928" type="line"/>
      <point x="64.39759036144578" y="759.5060240963855" type="line"/>
      <point x="-64.39759036144578" y="759.5060240963855" type="line"/>
    </contour>
  </outline>
</glyph>
<glyph name="tildecomb" format="2">
  <unicode hex="0303"/>
  <anchor x="0.0" y="484.0" name="_top"/>
  <anchor x="0.0" y="685.0" name="top"/>
  <outline>
    <contour>
      <point x="-130.74698795180723" y="580.5542168674699" type="line"/>
      <point x="-123.37349397590361" y="623.5421686746988"/>
      <point x="-104.62650602409639" y="645.2289156626506"/>
      <point x="-69.6867469879518" y="645.2289156626506" type="curve" smooth="yes"/>
      <point x="-51.68674698795181" y="645.2289156626506"/>
      <point x="-36.373493975903614" y="637.8554216867469"/>
      <point x="-10.313253012048193" y="619.0481927710844" type="curve" smooth="yes"/>
      <point x="24.12048192771084" y="594.1807228915662"/>
      <point x="46.373493975903614" y="585.1807228915663"/>
      <point x="75.3132530120482" y="585.1807228915663" type="curve" smooth="yes"/>
      <point x="146.75903614457832" y="585.1807228915663"/>
      <point x="196.45783132530119" y="643.0602409638554"/>
      <point x="202.144578313253" y="741.6385542168675" type="curve"/>
      <point x="130.74698795180723" y="746.2650602409639" type="line"/>
      <point x="123.74698795180723" y="702.710843373494"/>
      <point x="104.37349397590361" y="681.5903614457831"/>
      <point x="70.37349397590361" y="681.5903614457831" type="curve" smooth="yes"/>
      <point x="52.74698795180723" y="681.5903614457831"/>
      <point x="38.06024096385542" y="688.277108433735"/>
      <point x="9.686746987951807" y="708.0843373493976" type="curve" smooth="yes"/>
      <point x="-21.686746987951807" y="729.8915662650602"/>
      <point x="-43.626506024096386" y="741.6385542168675"/>
      <point x="-74.62650602409639" y="741.6385542168675" type="curve" smooth="yes"/>
      <point x="-146.07228915662648" y="741.6385542168675"/>
      <point x="-195.77108433734938" y="683.7590361445783"/>
      <point x="-202.144578313253" y="585.1807228915663" type="curve"/>
    </contour>
  </outline>
</glyph>
<glyph name="macroncomb" format="2">
  <unicode hex="0304"/>
  <anchor x="0.0" y="484.0" name="_top"/>
  <anchor x="0.0" y="685.0" name="top"/>
  <outline>
    <contour>
      <point x="-162.63855421686745" y="610.6746987951808" type="line"/>
      <point x="163.32530120481925" y="610.6746987951808" type="line"/>
      <point x="163.32530120481925" y="695.9518072289156" type="line"/>
      <point x="-162.63855421686745" y="695.9518072289156" type="line"/>
    </contour>
  </outline>
</glyph>
<glyph name="brevecomb" format="2">
  <unicode hex="0306"/>
  <anchor x="0.0" y="484.0" name="_top"/>
  <anchor x="0.0" y="685.0" name="top"/>
  <outline>
    <contour>
      <point x="0.0" y="551.9397590361446" type="curve" smooth="yes"/>
      <point x="102.38554216867469" y="551.9397590361446"/>
      <point x="170.8313253012048" y="627.5060240963855"/>
      <point x="172.89156626506022" y="747.132530120482" type="curve"/>
      <point x="89.98795180722892" y="754.7590361445783" type="line"/>
      <point x="84.98795180722892" y="681.0240963855422"/>
      <point x="52.86746987951807" y="640.4698795180723"/>
      <point x="0.0" y="640.4698795180723" type="curve" smooth="yes"/>
      <point x="-52.86746987951807" y="640.4698795180723"/>
      <point x="-84.98795180722892" y="681.0240963855422"/>
      <point x="-89.98795180722892" y="754.7590361445783" type="curve"/>
      <point x="-172.89156626506022" y="747.132530120482" type="line"/>
      <point x="-170.144578313253" y="627.5060240963855"/>
      <point x="-101.69879518072288" y="551.9397590361446"/>
    </contour>
  </outline>
</glyph>
<glyph name="dieresiscomb" format="2">
  <unicode hex="0308"/>
  <anchor x="0.0" y="484.0" name="_top"/>
  <anchor x="0.0" y="685.0" name="top"/>
  <outline>
    <contour>
      <point x="32.24096385542168" y="589.7951807228916" type="line"/>
      <point x="164.53012048192772" y="589.7951807228916" type="line"/>
      <point x="164.53012048192772" y="721.710843373494" type="line"/>
      <point x="32.24096385542168" y="721.710843373494" type="line"/>
    </contour>
    <contour>
      <point x="-164.53012048192772" y="589.7951807228916" type="line"/>
      <point x="-32.24096385542168" y="589.7951807228916" type="line"/>
      <point x="-32.24096385542168" y="721.710843373494" type="line"/>
      <point x="-164.53012048192772" y="721.710843373494" type="line"/>
    </contour>
  </outline>
</glyph>
<glyph name="hungarumlautcomb" format="2">
  <unicode hex="030B"/>
  <anchor x="0.0" y="484.0" name="_top"/>
  <anchor x="0.0" y="685.0" name="top"/>
  <outline>
    <contour>
      <point x="39.373493975903614" y="555.2530120481928" type="line"/>
      <point x="117.59036144578313" y="555.2530120481928" type="line"/>
      <point x="208.72289156626505" y="759.5060240963855" type="line"/>
      <point x="85.86746987951808" y="759.5060240963855" type="line"/>
    </contour>
    <contour>
      <point x="-121.84337349397589" y="555.2530120481928" type="line"/>
      <point x="-43.626506024096386" y="555.2530120481928" type="line"/>
      <point x="48.192771084337345" y="759.5060240963855" type="line"/>
      <point x="-74.66265060240963" y="759.5060240963855" type="line"/>
    </contour>
  </outline>
</glyph>
<glyph name="caroncomb" format="2">
  <unicode hex="030C"/>
  <anchor x="0.0" y="484.0" name="_top"/>
  <anchor x="0.0" y="685.0" name="top"/>
  <outline>
    <contour>
      <point x="-64.39759036144578" y="555.2530120481928" type="line"/>
      <point x="64.39759036144578" y="555.2530120481928" type="line"/>
      <point x="175.02409638554215" y="759.5060240963855" type="line"/>
      <point x="81.2409638554217" y="759.5060240963855" type="line"/>
      <point x="0.0" y="636.5903614457831" type="line"/>
      <point x="-81.2409638554217" y="759.5060240963855" type="line"/>
      <point x="-175.02409638554215" y="759.5060240963855" type="line"/>
    </contour>
  </outline>
</glyph>
<glyph name="dblgravecomb" format="2">
  <unicode hex="030F"/>
  <anchor x="0.0" y="484.0" name="_top"/>
  <anchor x="0.0" y="685.0" name="top"/>
  <outline>
    <contour>
      <point x="43.626506024096386" y="555.2530120481928" type="line"/>
      <point x="121.84337349397589" y="555.2530120481928" type="line"/>
      <point x="75.34939759036143" y="759.5060240963855" type="line"/>
      <point x="-47.50602409638554" y="759.5060240963855" type="line"/>
    </contour>
    <contour>
      <point x="-116.90361445783132" y="555.2530120481928" type="line"/>
      <point x="-38.68674698795181" y="555.2530120481928" type="line"/>
      <point x="-85.86746987951808" y="759.5060240963855" type="line"/>
      <point x="-208.72289156626505" y="759.5060240963855" type="line"/>
    </contour>
  </outline>
</glyph>
<glyph name="breveinvertedcomb" format="2">
  <unicode hex="0311"/>
  <anchor x="0.0" y="484.0" name="_top"/>
  <anchor x="0.0" y="685.0" name="top"/>
  <outline>
    <contour>
      <point x="-89.98795180722892" y="551.9397590361446" type="line"/>
      <point x="-84.98795180722892" y="624.9879518072289"/>
      <point x="-52.86746987951807" y="666.2289156626506"/>
      <point x="0.0" y="666.2289156626506" type="curve" smooth="yes"/>
      <point x="52.86746987951807" y="666.2289156626506"/>
      <point x="84.98795180722892" y="624.9879518072289"/>
      <point x="89.98795180722892" y="551.9397590361446" type="curve"/>
      <point x="172.89156626506022" y="558.8795180722892" type="line"/>
      <point x="170.8313253012048" y="678.5060240963855"/>
      <point x="102.38554216867469" y="754.7590361445783"/>
      <point x="0.0" y="754.7590361445783" type="curve" smooth="yes"/>
      <point x="-101.69879518072288" y="754.7590361445783"/>
      <point x="-170.144578313253" y="678.5060240963855"/>
      <point x="-172.89156626506022" y="558.8795180722892" type="curve"/>
    </contour>
  </outline>
</glyph>
<glyph name="commaturnedabovecomb" format="2">
  <unicode hex="0312"/>
  <anchor x="0.0" y="484.0" name="_top"/>
  <anchor x="0.0" y="685.0" name="top"/>
  <outline>
    <contour>
      <point x="-74.71084337349397" y="562.1204819277108" type="line"/>
      <point x="74.39759036144578" y="562.1204819277108" type="line"/>
      <point x="74.39759036144578" y="675.710843373494" type="line"/>
      <point x="-29.759036144578314" y="675.710843373494" type="line"/>
      <point x="1.3132530120481927" y="658.2048192771084" type="line"/>
      <point x="1.3132530120481927" y="688.2650602409639"/>
      <point x="10.626506024096386" y="714.2650602409639"/>
      <point x="39.31325301204819" y="741.0722891566265" type="curve"/>
      <point x="-14.265060240963853" y="777.1445783132531" type="line"/>
      <point x="-58.71084337349397" y="738.2650602409639"/>
      <point x="-74.71084337349397" y="691.3253012048192"/>
      <point x="-74.71084337349397" y="633.1927710843373" type="curve" smooth="yes"/>
    </contour>
  </outline>
</glyph>
<glyph name="dieresisbelowcomb" format="2">
  <unicode hex="0324"/>
  <anchor x="0.0" y="0.0" name="_bottom"/>
  <anchor x="0.0" y="-170.0" name="bottom"/>
  <outline>
    <contour>
      <point x="32.24096385542168" y="-199.26506024096383" type="line"/>
      <point x="164.53012048192772" y="-199.26506024096383" type="line"/>
      <point x="164.53012048192772" y="-67.34939759036145" type="line"/>
      <point x="32.24096385542168" y="-67.34939759036145" type="line"/>
    </contour>
    <contour>
      <point x="-164.53012048192772" y="-199.26506024096383" type="line"/>
      <point x="-32.24096385542168" y="-199.26506024096383" type="line"/>
      <point x="-32.24096385542168" y="-67.34939759036145" type="line"/>
      <point x="-164.53012048192772" y="-67.34939759036145" type="line"/>
    </contour>
  </outline>
</glyph>
<glyph name="cedillacomb" format="2">
  <unicode hex="0327"/>
  <anchor x="0.0" y="0.0" name="_bottom"/>
  <outline>
    <contour>
      <point x="-0.5662650602409633" y="-196.56626506024097" type="curve" smooth="yes"/>
      <point x="71.62650602409639" y="-196.56626506024097"/>
      <point x="122.50602409638554" y="-161.93975903614458"/>
      <point x="122.50602409638554" y="-108.06024096385542" type="curve" smooth="yes"/>
      <point x="122.50602409638554" y="-61.807228915662655"/>
      <point x="86.19277108433735" y="-34.18072289156627"/>
      <point x="27.433734939759038" y="-34.18072289156627" type="curve" smooth="yes"/>
      <point x="13.433734939759038" y="-34.18072289156627"/>
      <point x="-2.879518072289156" y="-37.18072289156627"/>
      <point x="-18.566265060240962" y="-42.49397590361446" type="curve"/>
      <point x="17.819277108433734" y="-56.31325301204819" type="line"/>
      <point x="30.50602409638554" y="20.0" type="line"/>
      <point x="-45.26506024096385" y="20.0" type="line"/>
      <point x="-57.95180722891566" y="-67.80722891566265" type="line"/>
      <point x="-37.69879518072289" y="-87.6867469879518" type="line"/>
      <point x="-22.265060240963855" y="-83.62650602409639"/>
      <point x="-11.89156626506024" y="-82.62650602409639"/>
      <point x="0.16867469879518282" y="-82.62650602409639" type="curve" smooth="yes"/>
      <point x="26.16867469879518" y="-82.62650602409639"/>
      <point x="36.855421686746986" y="-89.6867469879518"/>
      <point x="36.855421686746986" y="-102.80722891566265" type="curve" smooth="yes"/>
      <point x="36.855421686746986" y="-120.30120481927712"/>
      <point x="20.04819277108434" y="-128.73493975903617"/>
      <point x="-14.95180722891566" y="-128.73493975903617" type="curve" smooth="yes"/>
      <point x="-41.3855421686747" y="-128.73493975903617"/>
      <point x="-65.57831325301204" y="-122.42168674698796"/>
      <point x="-89.26506024096386" y="-111.42168674698794" type="curve"/>
      <point x="-110.08433734939759" y="-174.6265060240964" type="line"/>
      <point x="-82.57831325301206" y="-189.25301204819277"/>
      <point x="-42.07228915662651" y="-196.56626506024097"/>
    </contour>
  </outline>
</glyph>
<glyph name="strokeshortcomb" format="2">
  <unicode hex="0335"/>
  <anchor x="0.0" y="585.9638554216867" name="_stroke"/>
  <outline>
    <contour>
      <point x="-210.65060240963857" y="533.8192771084337" type="line"/>
      <point x="211.33734939759034" y="533.8192771084337" type="line"/>
      <point x="211.33734939759034" y="638.1084337349397" type="line"/>
      <point x="-210.65060240963857" y="638.1084337349397" type="line"/>
    </contour>
  </outline>
</glyph>
<glyph name="slashshortcomb" format="2">
  <unicode hex="0337"/>
  <anchor x="0.0" y="358.3132530120482" name="_center"/>
  <outline>
    <contour>
      <point x="-134.51807228915663" y="213.27710843373495" type="line"/>
      <point x="191.97590361445782" y="402.7469879518072" type="line"/>
      <point x="135.20481927710844" y="503.0361445783132" type="line"/>
      <point x="-191.28915662650604" y="313.566265060241" type="line"/>
    </contour>
  </outline>
</glyph>
<glyph name="slashlongcomb" format="2">
  <unicode hex="0338"/>
  <anchor x="0.0" y="246.3132530120482" name="_center"/>
  <outline>
    <contour>
      <point x="-131.3734939759036" y="-63.638554216867476" type="line"/>
      <point x="206.63855421686748" y="512.1927710843373" type="line"/>
      <point x="131.3734939759036" y="556.2650602409639" type="line"/>
      <point x="-206.63855421686748" y="-19.566265060240962" type="line"/>
    </contour>
  </outline>
</glyph>
<glyph name="Delta" format="2">
  <advance width="753.0843373493976"/>
  <unicode hex="0394"/>
  <outline>
    <contour>
      <point x="37.18072289156627" y="0.0" type="line"/>
      <point x="716.5903614457831" y="0.0" type="line"/>
      <point x="716.5903614457831" y="85.46987951807228" type="line"/>
      <point x="439.4096385542169" y="705.0" type="line"/>
      <point x="314.3614457831325" y="705.0" type="line"/>
      <point x="37.18072289156627" y="85.46987951807228" type="line"/>
    </contour>
    <contour>
      <point x="375.3855421686747" y="540.3132530120481" type="line"/>
      <point x="377.3855421686747" y="540.3132530120481" type="line"/>
      <point x="572.5903614457831" y="81.22891566265059" type="line"/>
      <point x="572.5903614457831" y="121.42168674698794" type="line"/>
      <point x="181.18072289156626" y="121.42168674698794" type="line"/>
      <point x="181.18072289156626" y="81.22891566265059" type="line"/>
    </contour>
  </outline>
</glyph>
<glyph name="Sigma" format="2">
  <advance width="600.0"/>
  <unicode hex="03A3"/>
  <outline>
    <contour>
      <point x="28.73493975903615" y="-180.0" type="line"/>
      <point x="571.2650602409639" y="-180.0" type="line"/>
      <point x="571.2650602409639" y="-52.6987951807229" type="line"/>
      <point x="194.55421686746988" y="-52.6987951807229" type="line"/>
      <point x="194.55421686746988" y="-85.0843373493976" type="line"/>
      <point x="428.2168674698795" y="222.36144578313255" type="line"/>
      <point x="428.2168674698795" y="302.6385542168675" type="line"/>
      <point x="194.55421686746988" y="610.0843373493975" type="line"/>
      <point x="194.55421686746988" y="577.6987951807229" type="line"/>
      <point x="571.2650602409639" y="577.6987951807229" type="line"/>
      <point x="571.2650602409639" y="705.0" type="line"/>
      <point x="28.73493975903615" y="705.0" type="line"/>
      <point x="28.73493975903615" y="596.2048192771084" type="line"/>
      <point x="300.03614457831327" y="239.86746987951807" type="line"/>
      <point x="300.03614457831327" y="285.8192771084337" type="line"/>
      <point x="28.73493975903615" y="-71.20481927710844" type="line"/>
    </contour>
  </outline>
</glyph>
<glyph name="mu" format="2">
  <advance width="589.6506024096386"/>
  <unicode hex="03BC"/>
  <outline>
    <contour>
      <point x="55.73493975903614" y="-180.0" type="line"/>
      <point x="206.73493975903614" y="-180.0" type="line"/>
      <point x="194.85542168674698" y="41.28915662650603" type="line"/>
      <point x="191.3012048192771" y="41.28915662650603" type="line"/>
      <point x="209.10843373493975" y="4.120481927710844"/>
      <point x="236.53012048192772" y="-10.626506024096384"/>
      <point x="277.95180722891564" y="-10.626506024096384" type="curve" smooth="yes"/>
      <point x="326.8072289156627" y="-10.626506024096384"/>
      <point x="372.48192771084337" y="27.493975903614462"/>
      <point x="385.34939759036143" y="96.04819277108433" type="curve"/>
      <point x="383.855421686747" y="96.04819277108433" type="line"/>
      <point x="383.855421686747" y="0.0" type="line"/>
      <point x="531.2289156626506" y="0.0" type="line"/>
      <point x="531.2289156626506" y="490.566265060241" type="line"/>
      <point x="380.2289156626506" y="490.566265060241" type="line"/>
      <point x="380.2289156626506" y="217.50602409638554" type="line" smooth="yes"/>
      <point x="380.2289156626506" y="150.9036144578313"/>
      <point x="339.49397590361446" y="106.85542168674698"/>
      <point x="281.89156626506025" y="106.85542168674698" type="curve" smooth="yes"/>
      <point x="229.97590361445782" y="106.85542168674698"/>
      <point x="206.73493975903614" y="135.46987951807228"/>
      <point x="206.73493975903614" y="194.13253012048193" type="curve" smooth="yes"/>
      <point x="206.73493975903614" y="490.566265060241" type="line"/>
      <point x="55.73493975903614" y="490.566265060241" type="line"/>
    </contour>
  </outline>
</glyph>
<glyph name="pi" format="2">
  <advance width="636.4819277108434"/>
  <unicode hex="03C0"/>
  <outline>
    <contour>
      <point x="549.0963855421687" y="-9.25301204819277" type="curve" smooth="yes"/>
      <point x="570.0361445783132" y="-9.25301204819277"/>
      <point x="593.289156626506" y="-7.253012048192771"/>
      <point x="622.1686746987953" y="-3.2530120481927707" type="curve"/>
      <point x="628.1084337349397" y="117.54216867469879" type="line"/>
      <point x="613.3614457831326" y="115.16867469879517"/>
      <point x="599.301204819277" y="113.48192771084337"/>
      <point x="587.2409638554217" y="113.48192771084337" type="curve" smooth="yes"/>
      <point x="522.433734939759" y="113.48192771084337"/>
      <point x="497.6867469879518" y="144.97590361445782"/>
      <point x="497.6867469879518" y="218.4698795180723" type="curve" smooth="yes"/>
      <point x="497.6867469879518" y="378.3975903614458" type="line"/>
      <point x="601.0481927710844" y="378.3975903614458" type="line"/>
      <point x="601.0481927710844" y="490.566265060241" type="line"/>
      <point x="3.6867469879518078" y="490.566265060241" type="line"/>
      <point x="3.6867469879518078" y="378.3975903614458" type="line"/>
      <point x="98.43373493975903" y="378.3975903614458" type="line"/>
      <point x="96.12048192771084" y="256.6144578313253"/>
      <point x="77.6867469879518" y="148.89156626506022"/>
      <point x="33.31325301204819" y="0.0" type="curve"/>
      <point x="188.0" y="0.0" type="line"/>
      <point x="228.3734939759036" y="114.06024096385542"/>
      <point x="246.12048192771084" y="225.9156626506024"/>
      <point x="248.12048192771084" y="378.3975903614458" type="curve"/>
      <point x="346.68674698795184" y="378.3975903614458" type="line"/>
      <point x="346.68674698795184" y="204.02409638554215" type="line" smooth="yes"/>
      <point x="346.68674698795184" y="71.50602409638554"/>
      <point x="406.3855421686747" y="-9.25301204819277"/>
    </contour>
  </outline>
</glyph>
<glyph name="E-cy" format="2">
  <advance width="683.0722891566265"/>
  <unicode hex="0404"/>
  <anchor x="394.44578313253015" y="0.0" name="bottom"/>
  <anchor x="394.8192771084337" y="705.0" name="top"/>
  <outline>
    <contour>
      <point x="412.51807228915663" y="-10.626506024096384" type="curve" smooth="yes"/>
      <point x="506.578313253012" y="-10.626506024096384"/>
      <point x="597.7710843373494" y="21.060240963855424"/>
      <point x="651.8313253012047" y="71.2409638554217" type="curve"/>
      <point x="603.5662650602409" y="194.2289156626506" type="line"/>
      <point x="544.1927710843373" y="146.9879518072289"/>
      <point x="484.7590361445783" y="126.24096385542168"/>
      <point x="417.7710843373494" y="126.24096385542168" type="curve" smooth="yes"/>
      <point x="295.6746987951807" y="126.24096385542168"/>
      <point x="220.3734939759036" y="194.65060240963854"/>
      <point x="211.80722891566262" y="335.18072289156623" type="curve"/>
      <point x="167.85542168674698" y="298.28915662650604" type="line"/>
      <point x="514.3855421686746" y="298.28915662650604" type="line"/>
      <point x="514.3855421686746" y="419.71084337349396" type="line"/>
      <point x="170.16867469879517" y="419.71084337349396" type="line"/>
      <point x="213.12048192771084" y="382.3855421686747" type="line"/>
      <point x="222.3734939759036" y="508.72289156626505"/>
      <point x="295.6746987951807" y="578.7590361445783"/>
      <point x="417.7710843373494" y="578.7590361445783" type="curve" smooth="yes"/>
      <point x="484.7590361445783" y="578.7590361445783"/>
      <point x="544.1927710843373" y="558.0120481927711"/>
      <point x="603.5662650602409" y="510.7710843373494" type="curve"/>
      <point x="651.8313253012047" y="633.7590361445783" type="line"/>
      <point x="597.7710843373494" y="684.6265060240964"/>
      <point x="506.578313253012" y="715.6265060240964"/>
      <point x="412.51807228915663" y="715.6265060240964" type="curve" smooth="yes"/>
      <point x="185.6265060240964" y="715.6265060240964"/>
      <point x="49.92771084337349" y="573.3734939759036"/>
      <point x="49.92771084337349" y="353.0" type="curve" smooth="yes"/>
      <point x="49.92771084337349" y="131.6265060240964"/>
      <point x="185.6265060240964" y="-10.626506024096384"/>
    </contour>
  </outline>
</glyph>
<glyph name="Lje-cy" format="2">
  <advance width="1135.1927710843372"/>
  <unicode hex="0409"/>
  <outline>
    <contour>
      <point x="89.5301204819277" y="-17.93975903614458" type="line"/>
      <point x="230.34939759036143" y="52.0"/>
      <point x="313.79518072289153" y="192.32530120481925"/>
      <point x="313.79518072289153" y="449.2289156626506" type="curve" smooth="yes"/>
      <point x="313.79518072289153" y="577.0120481927711" type="line"/>
      <point x="525.4096385542169" y="577.0120481927711" type="line"/>
      <point x="525.4096385542169" y="0.0" type="line"/>
      <point x="859.4457831325301" y="0.0" type="line" smooth="yes"/>
      <point x="1011.0120481927711" y="0.0"/>
      <point x="1103.2048192771085" y="74.50602409638554"/>
      <point x="1103.2048192771085" y="210.69879518072287" type="curve" smooth="yes"/>
      <point x="1103.2048192771085" y="346.89156626506025"/>
      <point x="1011.0120481927711" y="420.71084337349396"/>
      <point x="859.4457831325301" y="420.71084337349396" type="curve" smooth="yes"/>
      <point x="680.6626506024097" y="420.71084337349396" type="line"/>
      <point x="680.6626506024097" y="705.0" type="line"/>
      <point x="171.04819277108436" y="705.0" type="line"/>
      <point x="171.04819277108436" y="489.43373493975906" type="line" smooth="yes"/>
      <point x="171.04819277108436" y="250.3012048192771"/>
      <point x="120.06024096385542" y="156.48192771084337"/>
      <point x="12.120481927710843" y="94.6024096385542" type="curve"/>
    </contour>
    <contour>
      <point x="680.6626506024097" y="120.16867469879517" type="line"/>
      <point x="680.6626506024097" y="300.54216867469876" type="line"/>
      <point x="839.0602409638554" y="300.54216867469876" type="line" smooth="yes"/>
      <point x="918.4096385542169" y="300.54216867469876"/>
      <point x="954.4578313253012" y="271.6144578313253"/>
      <point x="954.4578313253012" y="210.69879518072287" type="curve" smooth="yes"/>
      <point x="954.4578313253012" y="149.09638554216866"/>
      <point x="918.4096385542169" y="120.16867469879517"/>
      <point x="839.0602409638554" y="120.16867469879517" type="curve" smooth="yes"/>
    </contour>
  </outline>
</glyph>
<glyph name="Nje-cy" format="2">
  <advance width="1163.3734939759038"/>
  <unicode hex="040A"/>
  <outline>
    <contour>
      <point x="70.73493975903614" y="0.0" type="line"/>
      <point x="225.9879518072289" y="0.0" type="line"/>
      <point x="225.9879518072289" y="293.03614457831327" type="line"/>
      <point x="553.5903614457832" y="293.03614457831327" type="line"/>
      <point x="553.5903614457832" y="0.0" type="line"/>
      <point x="887.6265060240964" y="0.0" type="line" smooth="yes"/>
      <point x="1039.1927710843372" y="0.0"/>
      <point x="1131.3855421686746" y="74.50602409638554"/>
      <point x="1131.3855421686746" y="210.69879518072287" type="curve" smooth="yes"/>
      <point x="1131.3855421686746" y="346.89156626506025"/>
      <point x="1039.1927710843372" y="420.71084337349396"/>
      <point x="887.6265060240964" y="420.71084337349396" type="curve" smooth="yes"/>
      <point x="708.8433734939758" y="420.71084337349396" type="line"/>
      <point x="708.8433734939758" y="705.0" type="line"/>
      <point x="553.5903614457832" y="705.0" type="line"/>
      <point x="553.5903614457832" y="421.6506024096385" type="line"/>
      <point x="225.9879518072289" y="421.6506024096385" type="line"/>
      <point x="225.9879518072289" y="705.0" type="line"/>
      <point x="70.73493975903614" y="705.0" type="line"/>
    </contour>
    <contour>
      <point x="708.8433734939758" y="120.16867469879517" type="line"/>
      <point x="708.8433734939758" y="300.54216867469876" type="line"/>
      <point x="867.2409638554217" y="300.54216867469876" type="line" smooth="yes"/>
      <point x="946.5903614457832" y="300.54216867469876"/>
      <point x="982.6385542168674" y="271.6144578313253"/>
      <point x="982.6385542168674" y="210.69879518072287" type="curve" smooth="yes"/>
      <point x="982.6385542168674" y="149.09638554216866"/>
      <point x="946.5903614457832" y="120.16867469879517"/>
      <point x="867.2409638554217" y="120.16867469879517" type="curve" smooth="yes"/>
    </contour>
  </outline>
</glyph>
<glyph name="Ii-cy" format="2">
  <advance width="752.6987951807229"/>
  <unicode hex="0418"/>
  <anchor x="537.5903614457832" y="0.0" name="bottomright"/>
  <anchor x="376.50602409638554" y="705.0" name="top"/>
  <outline>
    <contour>
      <point x="70.73493975903614" y="0.0" type="line"/>
      <point x="185.1566265060241" y="0.0" type="line"/>
      <point x="560.5301204819277" y="484.0843373493977" type="line"/>
      <point x="537.5903614457832" y="484.0843373493977" type="line"/>
      <point x="537.5903614457832" y="0.0" type="line"/>
      <point x="681.9638554216867" y="0.0" type="line"/>
      <point x="681.9638554216867" y="705.0" type="line"/>
      <point x="566.8554216867469" y="705.0" type="line"/>
      <point x="191.48192771084337" y="221.6024096385542" type="line"/>
      <point x="215.10843373493975" y="221.6024096385542" type="line"/>
      <point x="215.10843373493975" y="705.0" type="line"/>
      <point x="70.73493975903614" y="705.0" type="line"/>
    </contour>
  </outline>
</glyph>
<glyph name="Ka-cy" format="2">
  <advance width="695.0481927710844"/>
  <unicode hex="041A"/>
  <anchor x="526.9879518072289" y="0.0" name="bottomright"/>
  <anchor x="355.5903614457831" y="353.0" name="center"/>
  <anchor x="346.20481927710847" y="705.0" name="top"/>
  <anchor x="225.9879518072289" y="705.0" name="topleft"/>
  <outline>
    <contour>
      <point x="70.73493975903614" y="0.0" type="line"/>
      <point x="225.9879518072289" y="0.0" type="line"/>
      <point x="225.9879518072289" y="286.46987951807233" type="line"/>
      <point x="304.8313253012048" y="286.46987951807233" type="line" smooth="yes"/>
      <point x="368.0722891566265" y="286.46987951807233"/>
      <point x="406.31325301204816" y="262.28915662650604"/>
      <point x="434.86746987951807" y="200.49397590361446" type="curve" smooth="yes"/>
      <point x="526.9879518072289" y="0.0" type="line"/>
      <point x="695.1204819277109" y="0.0" type="line"/>
      <point x="571.5542168674698" y="254.44578313253012" type="line" smooth="yes"/>
      <point x="527.6144578313254" y="344.3253012048193"/>
      <point x="468.6746987951807" y="393.32530120481925"/>
      <point x="379.2289156626506" y="408.51807228915663" type="curve"/>
      <point x="440.8192771084337" y="365.566265060241" type="line"/>
      <point x="659.7469879518072" y="705.0" type="line"/>
      <point x="489.9277108433735" y="705.0" type="line"/>
      <point x="300.26506024096386" y="396.8313253012048" type="line"/>
      <point x="325.89156626506025" y="414.4578313253012" type="line"/>
      <point x="225.9879518072289" y="414.4578313253012" type="line"/>
      <point x="225.9879518072289" y="705.0" type="line"/>
      <point x="70.73493975903614" y="705.0" type="line"/>
    </contour>
  </outline>
</glyph>
<glyph name="El-cy" format="2">
  <advance width="758.2650602409639"/>
  <unicode hex="041B"/>
  <anchor x="540.7831325301205" y="0.0" name="bottomright"/>
  <outline>
    <contour>
      <point x="89.5301204819277" y="-17.93975903614458" type="line"/>
      <point x="230.34939759036143" y="52.0"/>
      <point x="313.79518072289153" y="192.32530120481925"/>
      <point x="313.79518072289153" y="449.2289156626506" type="curve" smooth="yes"/>
      <point x="313.79518072289153" y="577.0120481927711" type="line"/>
      <point x="532.277108433735" y="577.0120481927711" type="line"/>
      <point x="532.277108433735" y="0.0" type="line"/>
      <point x="687.5301204819277" y="0.0" type="line"/>
      <point x="687.5301204819277" y="705.0" type="line"/>
      <point x="171.04819277108436" y="705.0" type="line"/>
      <point x="171.04819277108436" y="489.43373493975906" type="line" smooth="yes"/>
      <point x="171.04819277108436" y="250.3012048192771"/>
      <point x="120.06024096385542" y="156.48192771084337"/>
      <point x="12.120481927710843" y="94.6024096385542" type="curve"/>
    </contour>
  </outline>
</glyph>
<glyph name="Tse-cy" format="2">
  <advance width="824.2168674698795"/>
  <unicode hex="0426"/>
  <outline>
    <contour>
      <point x="665.9759036144578" y="-169.69879518072287" type="line"/>
      <point x="802.2168674698795" y="-169.69879518072287" type="line"/>
      <point x="802.2168674698795" y="127.98795180722891" type="line"/>
      <point x="702.2168674698795" y="127.98795180722891" type="line"/>
      <point x="702.2168674698795" y="705.0" type="line"/>
      <point x="546.9638554216867" y="705.0" type="line"/>
      <point x="546.9638554216867" y="127.98795180722891" type="line"/>
      <point x="225.9879518072289" y="127.98795180722891" type="line"/>
      <point x="225.9879518072289" y="705.0" type="line"/>
      <point x="70.73493975903614" y="705.0" type="line"/>
      <point x="70.73493975903614" y="0.0" type="line"/>
      <point x="665.9759036144578" y="0.0" type="line"/>
    </contour>
  </outline>
</glyph>
<glyph name="Shcha-cy" format="2">
  <advance width="1130.9759036144578"/>
  <unicode hex="0429"/>
  <outline>
    <contour>
      <point x="972.7349397590361" y="-169.69879518072287" type="line"/>
      <point x="1108.9759036144578" y="-169.69879518072287" type="line"/>
      <point x="1108.9759036144578" y="127.98795180722891" type="line"/>
      <point x="1008.9759036144578" y="127.98795180722891" type="line"/>
      <point x="1008.9759036144578" y="705.0" type="line"/>
      <point x="856.3493975903615" y="705.0" type="line"/>
      <point x="856.3493975903615" y="127.98795180722891" type="line"/>
      <point x="616.1686746987953" y="127.98795180722891" type="line"/>
      <point x="616.1686746987953" y="705.0" type="line"/>
      <point x="463.5421686746988" y="705.0" type="line"/>
      <point x="463.5421686746988" y="127.98795180722891" type="line"/>
      <point x="223.36144578313252" y="127.98795180722891" type="line"/>
      <point x="223.36144578313252" y="705.0" type="line"/>
      <point x="70.73493975903614" y="705.0" type="line"/>
      <point x="70.73493975903614" y="0.0" type="line"/>
      <point x="972.7349397590361" y="0.0" type="line"/>
    </contour>
  </outline>
</glyph>
<glyph name="Hardsign-cy" format="2">
  <advance width="815.7108433734941"/>
  <unicode hex="042A"/>
  <outline>
    <contour>
      <point x="205.9277108433735" y="0.0" type="line"/>
      <point x="539.9638554216867" y="0.0" type="line" smooth="yes"/>
      <point x="692.2168674698795" y="0.0"/>
      <point x="783.722891566265" y="74.50602409638554"/>
      <point x="783.722891566265" y="210.69879518072287" type="curve" smooth="yes"/>
      <point x="783.722891566265" y="346.89156626506025"/>
      <point x="692.2168674698795" y="420.71084337349396"/>
      <point x="539.9638554216867" y="420.71084337349396" type="curve" smooth="yes"/>
      <point x="361.86746987951807" y="420.71084337349396" type="line"/>
      <point x="361.86746987951807" y="705.0" type="line"/>
      <point x="5.626506024096385" y="705.0" type="line"/>
      <point x="5.626506024096385" y="577.0120481927711" type="line"/>
      <point x="205.9277108433735" y="577.0120481927711" type="line"/>
    </contour>
    <contour>
      <point x="361.86746987951807" y="120.16867469879517" type="line"/>
      <point x="361.86746987951807" y="300.54216867469876" type="line"/>
      <point x="520.2650602409639" y="300.54216867469876" type="line" smooth="yes"/>
      <point x="598.9277108433736" y="300.54216867469876"/>
      <point x="635.6626506024097" y="271.6144578313253"/>
      <point x="635.6626506024097" y="210.69879518072287" type="curve" smooth="yes"/>
      <point x="635.6626506024097" y="149.09638554216866"/>
      <point x="598.9277108433736" y="120.16867469879517"/>
      <point x="520.2650602409639" y="120.16867469879517" type="curve" smooth="yes"/>
    </contour>
  </outline>
</glyph>
<glyph name="Iu-cy" format="2">
  <advance width="1066.0481927710844"/>
  <unicode hex="042E"/>
  <outline>
    <contour>
      <point x="677.4096385542168" y="-10.626506024096384" type="curve" smooth="yes"/>
      <point x="882.1084337349397" y="-10.626506024096384"/>
      <point x="1016.8072289156626" y="132.6265060240964"/>
      <point x="1016.8072289156626" y="353.0" type="curve" smooth="yes"/>
      <point x="1016.8072289156626" y="573.0602409638553"/>
      <point x="883.1084337349397" y="715.6265060240964"/>
      <point x="677.4096385542168" y="715.6265060240964" type="curve" smooth="yes"/>
      <point x="495.09638554216866" y="715.6265060240964"/>
      <point x="370.96385542168673" y="602.7590361445783"/>
      <point x="344.89156626506025" y="421.33734939759034" type="curve"/>
      <point x="225.9879518072289" y="421.33734939759034" type="line"/>
      <point x="225.9879518072289" y="705.0" type="line"/>
      <point x="70.73493975903614" y="705.0" type="line"/>
      <point x="70.73493975903614" y="0.0" type="line"/>
      <point x="225.9879518072289" y="0.0" type="line"/>
      <point x="225.9879518072289" y="293.3493975903615" type="line"/>
      <point x="343.89156626506025" y="293.3493975903615" type="line"/>
      <point x="367.2771084337349" y="106.9277108433735"/>
      <point x="493.09638554216866" y="-10.626506024096384"/>
    </contour>
    <contour>
      <point x="677.722891566265" y="120.98795180722891" type="curve" smooth="yes"/>
      <point x="565.9397590361446" y="120.98795180722891"/>
      <point x="500.5180722891566" y="207.1566265060241"/>
      <point x="500.5180722891566" y="353.0" type="curve" smooth="yes"/>
      <point x="500.5180722891566" y="499.53012048192767"/>
      <point x="565.6265060240964" y="584.0120481927711"/>
      <point x="677.722891566265" y="584.0120481927711" type="curve" smooth="yes"/>
      <point x="790.1927710843373" y="584.0120481927711"/>
      <point x="854.9277108433736" y="499.2168674698795"/>
      <point x="854.9277108433736" y="353.0" type="curve" smooth="yes"/>
      <point x="854.9277108433736" y="207.4698795180723"/>
      <point x="789.5060240963855" y="120.98795180722891"/>
    </contour>
  </outline>
</glyph>
<glyph name="de-cy" format="2">
  <advance width="633.3493975903614"/>
  <unicode hex="0434"/>
  <outline>
    <contour>
      <point x="25.686746987951807" y="-130.0" type="line"/>
      <point x="153.3012048192771" y="-130.0" type="line"/>
      <point x="153.3012048192771" y="0.0" type="line"/>
      <point x="488.49397590361446" y="0.0" type="line"/>
      <point x="488.49397590361446" y="-130.0" type="line"/>
      <point x="616.1084337349398" y="-130.0" type="line"/>
      <point x="616.1084337349398" y="115.54216867469879" type="line"/>
      <point x="534.5421686746988" y="115.54216867469879" type="line"/>
      <point x="534.5421686746988" y="490.566265060241" type="line"/>
      <point x="131.9277108433735" y="490.566265060241" type="line"/>
      <point x="131.9277108433735" y="354.3855421686747" type="line" smooth="yes"/>
      <point x="131.9277108433735" y="240.144578313253"/>
      <point x="118.80722891566265" y="172.7831325301205"/>
      <point x="84.50602409638554" y="115.54216867469879" type="curve"/>
      <point x="25.686746987951807" y="115.54216867469879" type="line"/>
    </contour>
    <contour>
      <point x="217.86746987951807" y="115.22891566265059" type="line"/>
      <point x="244.79518072289156" y="165.59036144578315"/>
      <point x="259.6024096385542" y="242.0120481927711"/>
      <point x="259.6024096385542" y="315.9879518072289" type="curve" smooth="yes"/>
      <point x="259.6024096385542" y="375.7710843373494" type="line"/>
      <point x="393.73493975903614" y="375.7710843373494" type="line"/>
      <point x="393.73493975903614" y="115.22891566265059" type="line"/>
    </contour>
  </outline>
</glyph>
<glyph name="zhe-cy" format="2">
  <advance width="851.6867469879518"/>
  <unicode hex="0436"/>
  <anchor x="713.698795180723" y="0.0" name="bottomright"/>
  <anchor x="425.8433734939759" y="484.0" name="top"/>
  <outline>
    <contour>
      <point x="-9.445783132530119" y="0.0" type="line"/>
      <point x="151.80722891566265" y="0.0" type="line"/>
      <point x="230.36144578313252" y="141.80722891566265" type="line" smooth="yes"/>
      <point x="252.289156626506" y="181.22891566265062"/>
      <point x="271.4096385542169" y="192.289156626506"/>
      <point x="308.2048192771084" y="192.289156626506" type="curve" smooth="yes"/>
      <point x="350.68674698795184" y="192.289156626506" type="line"/>
      <point x="350.68674698795184" y="0.0" type="line"/>
      <point x="501.6867469879518" y="0.0" type="line"/>
      <point x="501.6867469879518" y="192.289156626506" type="line"/>
      <point x="544.1686746987951" y="192.289156626506" type="line" smooth="yes"/>
      <point x="580.277108433735" y="192.289156626506"/>
      <point x="600.0843373493976" y="181.22891566265062"/>
      <point x="622.0120481927711" y="141.80722891566265" type="curve" smooth="yes"/>
      <point x="700.566265060241" y="0.0" type="line"/>
      <point x="861.1325301204819" y="0.0" type="line"/>
      <point x="757.2530120481928" y="190.144578313253" type="line" smooth="yes"/>
      <point x="725.9518072289156" y="246.6265060240964"/>
      <point x="687.4457831325301" y="281.6987951807229"/>
      <point x="634.3855421686746" y="288.69879518072287" type="curve"/>
      <point x="662.144578313253" y="240.24096385542168" type="line"/>
      <point x="841.0120481927711" y="490.566265060241" type="line"/>
      <point x="680.3855421686746" y="490.566265060241" type="line"/>
      <point x="549.722891566265" y="308.39759036144574" type="line"/>
      <point x="501.6867469879518" y="308.39759036144574" type="line"/>
      <point x="501.6867469879518" y="490.566265060241" type="line"/>
      <point x="350.68674698795184" y="490.566265060241" type="line"/>
      <point x="350.68674698795184" y="308.39759036144574" type="line"/>
      <point x="302.65060240963857" y="308.39759036144574" type="line"/>
      <point x="171.3012048192771" y="490.566265060241" type="line"/>
      <point x="10.674698795180726" y="490.566265060241" type="line"/>
      <point x="190.22891566265062" y="240.24096385542168" type="line"/>
      <point x="217.30120481927713" y="288.69879518072287" type="line"/>
      <point x="164.24096385542168" y="281.6987951807229"/>
      <point x="126.42168674698797" y="246.6265060240964"/>
      <point x="95.12048192771084" y="190.144578313253" type="curve" smooth="yes"/>
    </contour>
  </outline>
</glyph>
<glyph name="ze-cy" format="2">
  <advance width="532.4698795180723"/>
  <unicode hex="0437"/>
  <anchor x="268.2048192771084" y="0.0" name="bottom"/>
  <anchor x="260.32530120481925" y="490.566265060241" name="top"/>
  <outline>
    <contour>
      <point x="258.26506024096386" y="-10.626506024096384" type="curve" smooth="yes"/>
      <point x="411.5903614457831" y="-10.626506024096384"/>
      <point x="498.855421686747" y="46.68674698795181"/>
      <point x="498.855421686747" y="138.25301204819277" type="curve" smooth="yes"/>
      <point x="498.855421686747" y="211.19277108433735"/>
      <point x="452.04819277108436" y="254.6265060240964"/>
      <point x="367.48192771084337" y="261.1927710843374" type="curve"/>
      <point x="367.48192771084337" y="246.25301204819277" type="line"/>
      <point x="436.1686746987952" y="256.50602409638554"/>
      <point x="480.2289156626506" y="301.87951807228916"/>
      <point x="480.2289156626506" y="362.2530120481928" type="curve" smooth="yes"/>
      <point x="480.2289156626506" y="449.87951807228916"/>
      <point x="405.2168674698795" y="501.1927710843374"/>
      <point x="269.2048192771084" y="501.1927710843374" type="curve" smooth="yes"/>
      <point x="172.19277108433735" y="501.1927710843374"/>
      <point x="90.12048192771084" y="480.87951807228916"/>
      <point x="34.807228915662655" y="447.07228915662654" type="curve"/>
      <point x="71.87951807228916" y="352.9759036144578" type="line"/>
      <point x="119.3132530120482" y="378.21686746987956"/>
      <point x="174.6265060240964" y="394.90361445783134"/>
      <point x="241.6265060240964" y="394.90361445783134" type="curve" smooth="yes"/>
      <point x="318.7469879518072" y="394.90361445783134"/>
      <point x="343.9879518072289" y="376.9759036144578"/>
      <point x="343.9879518072289" y="345.2409638554217" type="curve" smooth="yes"/>
      <point x="343.9879518072289" y="316.44578313253015"/>
      <point x="322.31325301204816" y="299.8313253012048"/>
      <point x="280.5783132530121" y="299.8313253012048" type="curve" smooth="yes"/>
      <point x="154.74698795180723" y="299.8313253012048" type="line"/>
      <point x="154.74698795180723" y="195.10843373493978" type="line"/>
      <point x="293.51807228915663" y="195.10843373493978" type="line" smooth="yes"/>
      <point x="340.9397590361446" y="195.10843373493978"/>
      <point x="362.6144578313253" y="177.86746987951807"/>
      <point x="362.6144578313253" y="146.3855421686747" type="curve" smooth="yes"/>
      <point x="362.6144578313253" y="109.65060240963855"/>
      <point x="328.8072289156626" y="94.72289156626506"/>
      <point x="254.63855421686745" y="94.72289156626506" type="curve" smooth="yes"/>
      <point x="186.95180722891564" y="94.72289156626506"/>
      <point x="112.19277108433735" y="112.09638554216868"/>
      <point x="65.19277108433735" y="141.96385542168673" type="curve"/>
      <point x="28.12048192771084" y="46.18072289156627" type="line"/>
      <point x="83.87951807228916" y="8.80722891566265"/>
      <point x="167.75903614457832" y="-10.626506024096384"/>
    </contour>
  </outline>
</glyph>
<glyph name="ii-cy" format="2">
  <advance width="615.9036144578314"/>
  <unicode hex="0438"/>
  <anchor x="414.0481927710843" y="0.0" name="bottomright"/>
  <anchor x="307.9518072289157" y="484.0" name="top"/>
  <outline>
    <contour>
      <point x="65.67469879518073" y="0.0" type="line"/>
      <point x="190.34939759036143" y="0.0" type="line"/>
      <point x="441.67469879518075" y="333.49397590361446" type="line"/>
      <point x="414.0481927710843" y="333.49397590361446" type="line"/>
      <point x="414.0481927710843" y="0.0" type="line"/>
      <point x="550.2289156626506" y="0.0" type="line"/>
      <point x="550.2289156626506" y="490.566265060241" type="line"/>
      <point x="425.55421686746985" y="490.566265060241" type="line"/>
      <point x="174.9156626506024" y="157.75903614457832" type="line"/>
      <point x="201.85542168674698" y="157.75903614457832" type="line"/>
      <point x="201.85542168674698" y="490.566265060241" type="line"/>
      <point x="65.67469879518073" y="490.566265060241" type="line"/>
    </contour>
  </outline>
</glyph>
<glyph name="ka-cy" format="2">
  <advance width="578.7349397590361"/>
  <unicode hex="043A"/>
  <anchor x="440.0602409638554" y="0.0" name="bottomright"/>
  <anchor x="283.3373493975904" y="246.6265060240964" name="center"/>
  <anchor x="317.0240963855422" y="484.0" name="top"/>
  <outline>
    <contour>
      <point x="65.67469879518073" y="0.0" type="line"/>
      <point x="216.67469879518072" y="0.0" type="line"/>
      <point x="216.67469879518072" y="192.289156626506" type="line"/>
      <point x="270.5301204819277" y="192.289156626506" type="line" smooth="yes"/>
      <point x="307.32530120481925" y="192.289156626506"/>
      <point x="326.44578313253015" y="181.22891566265062"/>
      <point x="348.3734939759036" y="141.80722891566265" type="curve" smooth="yes"/>
      <point x="426.92771084337346" y="0.0" type="line"/>
      <point x="588.1807228915662" y="0.0" type="line"/>
      <point x="483.6144578313253" y="190.144578313253" type="line" smooth="yes"/>
      <point x="452.31325301204816" y="246.6265060240964"/>
      <point x="414.49397590361446" y="281.6987951807229"/>
      <point x="361.433734939759" y="288.69879518072287" type="curve"/>
      <point x="391.2530120481928" y="240.24096385542168" type="line"/>
      <point x="568.0602409638554" y="490.566265060241" type="line"/>
      <point x="407.43373493975906" y="490.566265060241" type="line"/>
      <point x="276.08433734939763" y="308.39759036144574" type="line"/>
      <point x="216.67469879518072" y="308.39759036144574" type="line"/>
      <point x="216.67469879518072" y="490.566265060241" type="line"/>
      <point x="65.67469879518073" y="490.566265060241" type="line"/>
    </contour>
  </outline>
</glyph>
<glyph name="el-cy" format="2">
  <advance width="610.156626506024"/>
  <unicode hex="043B"/>
  <anchor x="404.04819277108436" y="0.0" name="bottomright"/>
  <outline>
    <contour>
      <point x="60.81927710843374" y="-15.25301204819277" type="line"/>
      <point x="202.27710843373492" y="10.5421686746988"/>
      <point x="264.5421686746988" y="118.30120481927712"/>
      <point x="264.5421686746988" y="318.65060240963857" type="curve" smooth="yes"/>
      <point x="264.5421686746988" y="373.7710843373494" type="line"/>
      <point x="393.48192771084337" y="373.7710843373494" type="line"/>
      <point x="393.48192771084337" y="0.0" type="line"/>
      <point x="544.4819277108434" y="0.0" type="line"/>
      <point x="544.4819277108434" y="490.566265060241" type="line"/>
      <point x="126.67469879518073" y="490.566265060241" type="line"/>
      <point x="126.67469879518073" y="323.5903614457831" type="line" smooth="yes"/>
      <point x="126.67469879518073" y="185.8313253012048"/>
      <point x="96.73493975903614" y="126.5301204819277"/>
      <point x="16.49397590361446" y="104.10843373493975" type="curve"/>
    </contour>
  </outline>
</glyph>
<glyph name="em-cy" format="2">
  <advance width="700.3493975903614"/>
  <unicode hex="043C"/>
  <anchor x="502.12048192771084" y="0.0" name="bottomright"/>
  <outline>
    <contour>
      <point x="65.67469879518073" y="0.0" type="line"/>
      <point x="198.2289156626506" y="0.0" type="line"/>
      <point x="198.2289156626506" y="316.1807228915663" type="line"/>
      <point x="173.28915662650604" y="316.1807228915663" type="line"/>
      <point x="315.50602409638554" y="80.62650602409639" type="line"/>
      <point x="384.8433734939759" y="80.62650602409639" type="line"/>
      <point x="527.0602409638554" y="316.1807228915663" type="line"/>
      <point x="502.12048192771084" y="316.1807228915663" type="line"/>
      <point x="502.12048192771084" y="0.0" type="line"/>
      <point x="634.6746987951808" y="0.0" type="line"/>
      <point x="634.6746987951808" y="490.566265060241" type="line"/>
      <point x="511.37349397590367" y="490.566265060241" type="line"/>
      <point x="350.83132530120486" y="222.86746987951807" type="line"/>
      <point x="189.66265060240963" y="490.566265060241" type="line"/>
      <point x="65.67469879518073" y="490.566265060241" type="line"/>
    </contour>
  </outline>
</glyph>
<glyph name="en-cy" format="2">
  <advance width="620.2168674698795"/>
  <unicode hex="043D"/>
  <anchor x="414.10843373493975" y="0.0" name="bottomright"/>
  <outline>
    <contour>
      <point x="65.67469879518073" y="0.0" type="line"/>
      <point x="216.67469879518072" y="0.0" type="line"/>
      <point x="216.67469879518072" y="192.28915662650604" type="line"/>
      <point x="403.5421686746988" y="192.28915662650604" type="line"/>
      <point x="403.5421686746988" y="0.0" type="line"/>
      <point x="554.5421686746988" y="0.0" type="line"/>
      <point x="554.5421686746988" y="490.566265060241" type="line"/>
      <point x="403.5421686746988" y="490.566265060241" type="line"/>
      <point x="403.5421686746988" y="309.08433734939763" type="line"/>
      <point x="216.67469879518072" y="309.08433734939763" type="line"/>
      <point x="216.67469879518072" y="490.566265060241" type="line"/>
      <point x="65.67469879518073" y="490.566265060241" type="line"/>
    </contour>
  </outline>
</glyph>
<glyph name="pe-cy" format="2">
  <advance width="617.2168674698795"/>
  <unicode hex="043F"/>
  <anchor x="411.10843373493975" y="0.0" name="bottomright"/>
  <outline>
    <contour>
      <point x="65.67469879518073" y="0.0" type="line"/>
      <point x="216.67469879518072" y="0.0" type="line"/>
      <point x="216.67469879518072" y="373.7710843373494" type="line"/>
      <point x="400.5421686746988" y="373.7710843373494" type="line"/>
      <point x="400.5421686746988" y="0.0" type="line"/>
      <point x="551.5421686746988" y="0.0" type="line"/>
      <point x="551.5421686746988" y="490.566265060241" type="line"/>
      <point x="65.67469879518073" y="490.566265060241" type="line"/>
    </contour>
  </outline>
</glyph>
<glyph name="ef-cy" format="2">
  <advance width="863.6867469879518"/>
  <unicode hex="0444"/>
  <outline>
    <contour>
      <point x="356.68674698795184" y="-180.0" type="line"/>
      <point x="507.6867469879518" y="-180.0" type="line"/>
      <point x="507.6867469879518" y="84.85542168674698" type="line"/>
      <point x="496.3734939759036" y="84.85542168674698" type="line"/>
      <point x="519.0" y="23.240963855421686"/>
      <point x="569.6265060240964" y="-10.626506024096384"/>
      <point x="635.0602409638553" y="-10.626506024096384" type="curve" smooth="yes"/>
      <point x="745.0" y="-10.626506024096384"/>
      <point x="822.132530120482" y="90.0"/>
      <point x="822.132530120482" y="245.6265060240964" type="curve" smooth="yes"/>
      <point x="822.132530120482" y="402.56626506024094"/>
      <point x="744.3132530120481" y="501.1927710843374"/>
      <point x="635.0602409638553" y="501.1927710843374" type="curve" smooth="yes"/>
      <point x="568.3132530120482" y="501.1927710843374"/>
      <point x="516.6867469879518" y="466.0120481927711"/>
      <point x="496.3734939759036" y="405.71084337349396" type="curve"/>
      <point x="507.6867469879518" y="405.71084337349396" type="line"/>
      <point x="507.6867469879518" y="705.0" type="line"/>
      <point x="356.68674698795184" y="705.0" type="line"/>
      <point x="356.68674698795184" y="405.71084337349396" type="line"/>
      <point x="367.3132530120482" y="405.71084337349396" type="line"/>
      <point x="347.0" y="466.0120481927711"/>
      <point x="296.06024096385545" y="501.1927710843374"/>
      <point x="228.6265060240964" y="501.1927710843374" type="curve" smooth="yes"/>
      <point x="119.37349397590361" y="501.1927710843374"/>
      <point x="41.554216867469876" y="402.56626506024094"/>
      <point x="41.554216867469876" y="245.6265060240964" type="curve" smooth="yes"/>
      <point x="41.554216867469876" y="90.0"/>
      <point x="119.37349397590361" y="-10.626506024096384"/>
      <point x="228.6265060240964" y="-10.626506024096384" type="curve" smooth="yes"/>
      <point x="294.7469879518072" y="-10.626506024096384"/>
      <point x="345.3734939759036" y="23.240963855421686"/>
      <point x="367.3132530120482" y="84.85542168674698" type="curve"/>
      <point x="356.68674698795184" y="84.85542168674698" type="line"/>
    </contour>
    <contour>
      <point x="276.27710843373495" y="100.9156626506024" type="curve" smooth="yes"/>
      <point x="225.79518072289156" y="100.9156626506024"/>
      <point x="192.55421686746988" y="145.71084337349396"/>
      <point x="192.55421686746988" y="245.93975903614458" type="curve" smooth="yes"/>
      <point x="192.55421686746988" y="345.79518072289153"/>
      <point x="226.79518072289156" y="389.65060240963857"/>
      <point x="276.27710843373495" y="389.65060240963857" type="curve" smooth="yes"/>
      <point x="324.7590361445783" y="389.65060240963857"/>
      <point x="359.0" y="345.79518072289153"/>
      <point x="359.0" y="245.93975903614458" type="curve" smooth="yes"/>
      <point x="359.0" y="145.71084337349396"/>
      <point x="325.7590361445783" y="100.9156626506024"/>
    </contour>
    <contour>
      <point x="587.4096385542169" y="100.9156626506024" type="curve" smooth="yes"/>
      <point x="537.9277108433735" y="100.9156626506024"/>
      <point x="505.3734939759036" y="145.71084337349396"/>
      <point x="505.3734939759036" y="245.93975903614458" type="curve" smooth="yes"/>
      <point x="505.3734939759036" y="345.79518072289153"/>
      <point x="537.6144578313252" y="389.65060240963857"/>
      <point x="587.4096385542169" y="389.65060240963857" type="curve" smooth="yes"/>
      <point x="636.8915662650603" y="389.65060240963857"/>
      <point x="671.132530120482" y="345.79518072289153"/>
      <point x="671.132530120482" y="245.93975903614458" type="curve" smooth="yes"/>
      <point x="671.132530120482" y="145.71084337349396"/>
      <point x="637.8915662650603" y="100.9156626506024"/>
    </contour>
  </outline>
</glyph>
<glyph name="tse-cy" format="2">
  <advance width="638.0361445783133"/>
  <unicode hex="0446"/>
  <outline>
    <contour>
      <point x="493.18072289156623" y="-130.0" type="line"/>
      <point x="620.7951807228915" y="-130.0" type="line"/>
      <point x="620.7951807228915" y="116.79518072289156" type="line"/>
      <point x="539.2289156626506" y="116.79518072289156" type="line"/>
      <point x="539.2289156626506" y="490.566265060241" type="line"/>
      <point x="388.2289156626506" y="490.566265060241" type="line"/>
      <point x="388.2289156626506" y="116.79518072289156" type="line"/>
      <point x="216.67469879518072" y="116.79518072289156" type="line"/>
      <point x="216.67469879518072" y="490.566265060241" type="line"/>
      <point x="65.67469879518073" y="490.566265060241" type="line"/>
      <point x="65.67469879518073" y="0.0" type="line"/>
      <point x="493.18072289156623" y="0.0" type="line"/>
    </contour>
  </outline>
</glyph>
<glyph name="che-cy" format="2">
  <advance width="586.843373493976"/>
  <unicode hex="0447"/>
  <anchor x="380.73493975903614" y="0.0" name="bottomright"/>
  <anchor x="283.5783132530121" y="200.0" name="center"/>
  <anchor x="283.5783132530121" y="484.0" name="top"/>
  <outline>
    <contour>
      <point x="373.10843373493975" y="0.0" type="line"/>
      <point x="521.1686746987951" y="0.0" type="line"/>
      <point x="521.1686746987951" y="490.566265060241" type="line"/>
      <point x="370.1686746987952" y="490.566265060241" type="line"/>
      <point x="370.1686746987952" y="283.578313253012" type="line"/>
      <point x="349.49397590361446" y="269.96385542168673"/>
      <point x="325.56626506024094" y="264.5301204819277"/>
      <point x="296.7710843373494" y="264.5301204819277" type="curve" smooth="yes"/>
      <point x="224.289156626506" y="264.5301204819277"/>
      <point x="196.67469879518072" y="297.08433734939763"/>
      <point x="196.67469879518072" y="375.1927710843373" type="curve" smooth="yes"/>
      <point x="196.67469879518072" y="490.566265060241" type="line"/>
      <point x="45.674698795180724" y="490.566265060241" type="line"/>
      <point x="45.674698795180724" y="361.3734939759036" type="line" smooth="yes"/>
      <point x="45.674698795180724" y="216.6144578313253"/>
      <point x="118.80722891566265" y="143.7951807228916"/>
      <point x="267.56626506024094" y="143.7951807228916" type="curve" smooth="yes"/>
      <point x="302.86746987951807" y="143.7951807228916"/>
      <point x="338.0481927710843" y="150.22891566265062"/>
      <point x="373.10843373493975" y="165.09638554216866" type="curve"/>
    </contour>
  </outline>
</glyph>
<glyph name="shcha-cy" format="2">
  <advance width="884.2409638554217"/>
  <unicode hex="0449"/>
  <outline>
    <contour>
      <point x="739.3855421686746" y="-130.0" type="line"/>
      <point x="867.0" y="-130.0" type="line"/>
      <point x="867.0" y="116.79518072289156" type="line"/>
      <point x="785.433734939759" y="116.79518072289156" type="line"/>
      <point x="785.433734939759" y="490.566265060241" type="line"/>
      <point x="643.9397590361446" y="490.566265060241" type="line"/>
      <point x="643.9397590361446" y="116.79518072289156" type="line"/>
      <point x="496.3012048192771" y="116.79518072289156" type="line"/>
      <point x="496.3012048192771" y="490.566265060241" type="line"/>
      <point x="354.8072289156626" y="490.566265060241" type="line"/>
      <point x="354.8072289156626" y="116.79518072289156" type="line"/>
      <point x="207.16867469879517" y="116.79518072289156" type="line"/>
      <point x="207.16867469879517" y="490.566265060241" type="line"/>
      <point x="65.67469879518073" y="490.566265060241" type="line"/>
      <point x="65.67469879518073" y="0.0" type="line"/>
      <point x="739.3855421686746" y="0.0" type="line"/>
    </contour>
  </outline>
</glyph>
<glyph name="hardsign-cy" format="2">
  <advance width="644.5903614457832"/>
  <unicode hex="044A"/>
  <outline>
    <contour>
      <point x="148.24096385542168" y="0.0" type="line"/>
      <point x="416.5903614457831" y="0.0" type="line" smooth="yes"/>
      <point x="538.2168674698795" y="0.0"/>
      <point x="616.9759036144578" y="69.13253012048193"/>
      <point x="616.9759036144578" y="171.0120481927711" type="curve" smooth="yes"/>
      <point x="616.9759036144578" y="279.144578313253"/>
      <point x="549.722891566265" y="335.45783132530124"/>
      <point x="416.5903614457831" y="335.45783132530124" type="curve" smooth="yes"/>
      <point x="299.2409638554217" y="335.45783132530124" type="line"/>
      <point x="299.2409638554217" y="490.566265060241" type="line"/>
      <point x="7.939759036144578" y="490.566265060241" type="line"/>
      <point x="7.939759036144578" y="372.51807228915663" type="line"/>
      <point x="148.24096385542168" y="372.51807228915663" type="line"/>
    </contour>
    <contour>
      <point x="299.2409638554217" y="96.72289156626506" type="line"/>
      <point x="299.2409638554217" y="238.73493975903617" type="line"/>
      <point x="391.0120481927711" y="238.73493975903617" type="line" smooth="yes"/>
      <point x="447.8072289156627" y="238.73493975903617"/>
      <point x="478.4216867469879" y="217.49397590361446"/>
      <point x="478.4216867469879" y="169.3855421686747" type="curve" smooth="yes"/>
      <point x="478.4216867469879" y="120.59036144578313"/>
      <point x="445.49397590361446" y="96.72289156626506"/>
      <point x="391.0120481927711" y="96.72289156626506" type="curve" smooth="yes"/>
    </contour>
  </outline>
</glyph>
<glyph name="yeru-cy" format="2">
  <advance width="802.9397590361446"/>
  <unicode hex="044B"/>
  <anchor x="401.4698795180723" y="484.0" name="top"/>
  <outline>
    <contour>
      <point x="65.67469879518073" y="0.0" type="line"/>
      <point x="334.71084337349396" y="0.0" type="line" smooth="yes"/>
      <point x="456.33734939759034" y="0.0"/>
      <point x="535.0963855421686" y="69.13253012048193"/>
      <point x="535.0963855421686" y="171.0120481927711" type="curve" smooth="yes"/>
      <point x="535.0963855421686" y="279.144578313253"/>
      <point x="467.15662650602405" y="335.45783132530124"/>
      <point x="334.71084337349396" y="335.45783132530124" type="curve" smooth="yes"/>
      <point x="216.67469879518072" y="335.45783132530124" type="line"/>
      <point x="216.67469879518072" y="490.566265060241" type="line"/>
      <point x="65.67469879518073" y="490.566265060241" type="line"/>
    </contour>
    <contour>
      <point x="216.67469879518072" y="96.72289156626506" type="line"/>
      <point x="216.67469879518072" y="238.73493975903617" type="line"/>
      <point x="309.13253012048193" y="238.73493975903617" type="line" smooth="yes"/>
      <point x="365.2409638554217" y="238.73493975903617"/>
      <point x="396.5421686746988" y="217.49397590361446"/>
      <point x="396.5421686746988" y="169.3855421686747" type="curve" smooth="yes"/>
      <point x="396.5421686746988" y="120.59036144578313"/>
      <point x="363.6144578313253" y="96.72289156626506"/>
      <point x="309.13253012048193" y="96.72289156626506" type="curve" smooth="yes"/>
    </contour>
    <contour>
      <point x="586.2650602409639" y="0.0" type="line"/>
      <point x="737.2650602409637" y="0.0" type="line"/>
      <point x="737.2650602409637" y="490.566265060241" type="line"/>
      <point x="586.2650602409639" y="490.566265060241" type="line"/>
    </contour>
  </outline>
</glyph>
